<?xml version="1.0" encoding="UTF-8"?>
<svg width="240px" height="240px" viewBox="0 0 240 240" version="1.1" xmlns="http://www.w3.org/2000/svg" xmlns:xlink="http://www.w3.org/1999/xlink">
    <!-- Generator: Sketch 51.2 (57519) - http://www.bohemiancoding.com/sketch -->
    <title>illustration/breathable</title>
    <desc>Created with Sketch.</desc>
    <defs></defs>
    <g id="illustration/breathable" stroke="none" stroke-width="1" fill="none" fill-rule="evenodd">
        <g id="Group-6" transform="translate(56.000000, 83.000000)">
            <path d="M33.3126607,57.3281853 C32.379681,62.670829 29.8616734,67.8077081 27.6756757,72.8513502" id="Stroke-18" stroke="#232323" stroke-width="3" stroke-linecap="round"></path>
            <path d="M64.9420044,57.3281853 C64.0090247,62.670829 61.4910171,67.8077081 59.3050193,72.8513502" id="Stroke-20" stroke="#232323" stroke-width="3" stroke-linecap="round"></path>
            <path d="M94.594514,57.3281853 C93.6615343,62.670829 91.1443248,67.8077081 88.957529,72.8513502" id="Stroke-22" stroke="#232323" stroke-width="3" stroke-linecap="round"></path>
            <polyline id="Stroke-24" stroke="#232323" stroke-width="3" stroke-linecap="round" stroke-linejoin="round" points="111.79518 39.5366795 119.721916 39.5366795 127.539312 56.8072353 11.8610039 56.8072353 15.8395357 48.0196434"></polyline>
            <polygon id="Stroke-26" stroke="#231F20" stroke-width="3" points="115.67751 48.8990956 0 48.8990956 7.8173961 31.6293436 107.859316 31.6293436"></polygon>
            <polygon id="Fill-28" fill="#BCDEED" points="115.67751 48.8990956 0 48.8990956 7.8173961 31.6293436 107.859316 31.6293436"></polygon>
            <polygon id="Stroke-30" stroke="#232323" stroke-width="3" stroke-linecap="round" stroke-linejoin="round" points="115.67751 48.8990956 0 48.8990956 7.8173961 31.6293436 107.859316 31.6293436"></polygon>
            <polyline id="Stroke-32" stroke="#232323" stroke-width="3" stroke-linecap="round" stroke-linejoin="round" points="11.8610039 11.8845086 23.6609223 0 35.4616389 11.8845086"></polyline>
            <polyline id="Stroke-34" stroke="#232323" stroke-width="3" stroke-linecap="round" stroke-linejoin="round" points="41.5135135 11.8845086 53.313432 0 65.1141485 11.8845086"></polyline>
            <polyline id="Stroke-36" stroke="#232323" stroke-width="3" stroke-linecap="round" stroke-linejoin="round" points="73.1428571 11.8845086 84.9427756 0 96.7434922 11.8845086"></polyline>
            <path d="M25.0723243,1.97683398 C23.4545743,7.16515423 23.2438757,12.822071 24.6932265,18.0746927 C25.8839927,22.3844949 27.8640805,26.4089596 29.9662776,30.330542 C31.8314389,33.8100522 34.4675654,37.3779768 34.4675654,41.4956786" id="Stroke-38" stroke="#232323" stroke-width="3"></path>
            <path d="M54.724834,1.97683398 C53.1070839,7.16515423 52.8963853,12.822071 54.3457361,18.0746927 C55.5365024,22.3844949 57.5165901,26.4089596 59.6187873,30.330542 C61.4839486,33.8100522 64.1200751,37.3779768 64.1200751,41.4956786" id="Stroke-40" stroke="#232323" stroke-width="3"></path>
            <path d="M86.3541776,1.97683398 C84.7364275,7.16515423 84.525729,12.822071 85.9750798,18.0746927 C87.165846,22.3844949 89.1459338,26.4089596 91.2481309,30.330542 C93.1132922,33.8100522 95.7494187,37.3779768 95.7494187,41.4956786" id="Stroke-42" stroke="#232323" stroke-width="3"></path>
        </g>
    </g>
</svg>