<?xml version="1.0" encoding="UTF-8" standalone="no"?>
<svg
   xmlns:dc="http://purl.org/dc/elements/1.1/"
   xmlns:cc="http://creativecommons.org/ns#"
   xmlns:rdf="http://www.w3.org/1999/02/22-rdf-syntax-ns#"
   xmlns:svg="http://www.w3.org/2000/svg"
   xmlns="http://www.w3.org/2000/svg"
   xmlns:sodipodi="http://sodipodi.sourceforge.net/DTD/sodipodi-0.dtd"
   xmlns:inkscape="http://www.inkscape.org/namespaces/inkscape"
   width="240px"
   height="240px"
   viewBox="0 0 240 240"
   version="1.1"
   id="svg17"
   sodipodi:docname="flexible--w.svg"
   inkscape:version="0.92.2 5c3e80d, 2017-08-06">
  <metadata
     id="metadata21">
    <rdf:RDF>
      <cc:Work
         rdf:about="">
        <dc:format>image/svg+xml</dc:format>
        <dc:type
           rdf:resource="http://purl.org/dc/dcmitype/StillImage" />
        <dc:title>illustration/flexible</dc:title>
      </cc:Work>
    </rdf:RDF>
  </metadata>
  <sodipodi:namedview
     pagecolor="#ffffff"
     bordercolor="#666666"
     borderopacity="1"
     objecttolerance="10"
     gridtolerance="10"
     guidetolerance="10"
     inkscape:pageopacity="0"
     inkscape:pageshadow="2"
     inkscape:window-width="1192"
     inkscape:window-height="829"
     id="namedview19"
     showgrid="false"
     inkscape:zoom="0.98333333"
     inkscape:cx="120"
     inkscape:cy="120"
     inkscape:window-x="482"
     inkscape:window-y="56"
     inkscape:window-maximized="0"
     inkscape:current-layer="svg17" />
  <!-- Generator: Sketch 51.2 (57519) - http://www.bohemiancoding.com/sketch -->
  <title
     id="title2">illustration/flexible</title>
  <desc
     id="desc4">Created with Sketch.</desc>
  <defs
     id="defs6" />
  <g
     id="illustration/flexible"
     stroke="none"
     stroke-width="1"
     fill="none"
     fill-rule="evenodd">
    <rect
       id="Rectangle-4-Copy-2"
       x="0"
       y="0"
       width="240"
       height="240" />
    <g
       id="Group-9"
       transform="translate(78.000000, 80.000000)">
      <path
         d="M0,55.8431299 C0,42.9181908 19.0278304,32.4423963 42.5,32.4423963 C65.9721696,32.4423963 85,42.9181908 85,55.8431299 C85,68.7672427 65.9721696,79.2438634 42.5,79.2438634 C19.0278304,79.2438634 0,68.7672427 0,55.8431299"
         id="Fill-96"
         fill="#BCDEED"
         style="fill:#ffffff;fill-opacity:0.39215687;stroke:#ffffff;stroke-opacity:1" />
      <path
         d="M0,55.8431299 C0,42.9181908 19.0278304,32.4423963 42.5,32.4423963 C65.9721696,32.4423963 85,42.9181908 85,55.8431299 C85,68.7672427 65.9721696,79.2438634 42.5,79.2438634 C19.0278304,79.2438634 0,68.7672427 0,55.8431299 Z"
         id="Stroke-97"
         stroke="#232323"
         stroke-width="3"
         stroke-linecap="round"
         stroke-linejoin="round"
         style="stroke:#ffffff;stroke-opacity:1" />
      <path
         d="M0,35.2152993 C0,28.0847199 19.0278304,22.3041475 42.5,22.3041475 C65.9721696,22.3041475 85,28.0847199 85,35.2152993 C85,42.3450742 65.9721696,48.1256466 42.5,48.1256466 C19.0278304,48.1256466 0,42.3450742 0,35.2152993 Z"
         id="Stroke-98"
         stroke="#232323"
         stroke-width="3"
         stroke-linecap="round"
         stroke-linejoin="round"
         style="stroke:#ffffff;stroke-opacity:1" />
      <path
         d="M0,23.8766106 C0,18.5285683 19.0278304,14.1935484 42.5,14.1935484 C65.9721696,14.1935484 85,18.5285683 85,23.8766106 C85,29.2238398 65.9721696,33.5596727 42.5,33.5596727 C19.0278304,33.5596727 0,29.2238398 0,23.8766106 Z"
         id="Stroke-99"
         stroke="#232323"
         stroke-width="3"
         style="stroke:#ffffff;stroke-opacity:1" />
      <path
         d="M0,13.3452459 C0,11.3392644 4.75695761,9.52389658 12.4483393,8.20940521 C20.1389152,6.89573901 30.7647209,6.08294931 42.5,6.08294931 C65.9721696,6.08294931 85,9.33493329 85,13.3452459 C85,17.3555586 65.9721696,20.6075426 42.5,20.6075426 C19.0278304,20.6075426 0,17.3555586 0,13.3452459 Z"
         id="Stroke-100"
         stroke="#232323"
         stroke-width="3"
         stroke-linecap="round"
         stroke-linejoin="round"
         style="stroke:#ffffff;stroke-opacity:1" />
      <path
         d="M3.77650528,9.68306216 C1.35054367,8.82198187 0,7.86505283 0,6.85825126 C0,4.96387462 4.77747743,3.24950662 12.502037,2.00814833 C20.2257873,0.767569309 30.897429,0 42.6833299,0 C60.166761,0 75.1942904,1.68865248 81.7924528,4.10669062"
         id="Stroke-101"
         stroke="#232323"
         stroke-width="3"
         stroke-linecap="round"
         stroke-linejoin="round"
         style="stroke:#ffffff;stroke-opacity:1" />
    </g>
  </g>
</svg>
