<?xml version="1.0" encoding="UTF-8"?>
<svg width="32px" height="32px" viewBox="0 0 32 32" version="1.1" xmlns="http://www.w3.org/2000/svg" xmlns:xlink="http://www.w3.org/1999/xlink">
    <!-- Generator: Sketch 51.2 (57519) - http://www.bohemiancoding.com/sketch -->
    <title>icon/32/insta/white</title>
    <desc>Created with Sketch.</desc>
    <defs></defs>
    <g id="icon/32/insta/white" stroke="none" stroke-width="1" fill="none" fill-rule="evenodd">
        <path d="M15.8181623,7.76827126 C18.4397426,7.76827126 18.7502432,7.77824388 19.7855308,7.82545803 C20.7427939,7.86912723 21.2626592,8.02900089 21.6086644,8.16335865 C22.0669129,8.34138561 22.3940161,8.55408303 22.737566,8.89747638 C23.081116,9.24086973 23.2939104,9.56782384 23.4719795,10.0258634 C23.6064375,10.371711 23.7663841,10.8913393 23.8100732,11.8481271 C23.8573089,12.8829818 23.8672861,13.1933409 23.8672861,15.8137263 C23.8672861,18.4341117 23.8573089,18.7444707 23.8100732,19.7792865 C23.7663841,20.7361132 23.6064375,21.2557416 23.4719795,21.6015891 C23.2939104,22.0596287 23.081116,22.3865828 22.737566,22.7299762 C22.3940161,23.0733695 22.0669129,23.286067 21.6086644,23.464055 C21.2626592,23.5984517 20.7427939,23.7583253 19.7855308,23.8019945 C18.7503991,23.8492087 18.4398985,23.8591813 15.8181623,23.8591813 C13.1964261,23.8591813 12.8859256,23.8492087 11.8507938,23.8019945 C10.8935308,23.7583253 10.3736655,23.5984517 10.0276992,23.464055 C9.56941178,23.286067 9.24230859,23.0733695 8.89875865,22.7299762 C8.5552087,22.3865828 8.3424143,22.0596287 8.16434514,21.6015891 C8.02988713,21.2557416 7.86994057,20.7361132 7.82625146,19.7793254 C7.77901578,18.7444707 7.76903861,18.4341117 7.76903861,15.8137263 C7.76903861,13.1933409 7.77901578,12.8829818 7.82625146,11.8481661 C7.86994057,10.8913393 8.02988713,10.371711 8.16434514,10.0258634 C8.3424143,9.56782384 8.5552087,9.24086973 8.89875865,8.89747638 C9.24230859,8.55408303 9.56941178,8.34138561 10.0276992,8.16335865 C10.3736655,8.02900089 10.8935308,7.86912723 11.8507549,7.82545803 C12.8860815,7.77824388 13.196582,7.76827126 15.8181623,7.76827126 M15.8181623,6 C18.4846399,6 18.8189921,6.01129712 19.8661667,6.05905664 C20.9112366,6.10673826 21.6249163,6.27261108 22.249464,6.51522638 C22.8950962,6.76602234 23.4426326,7.10158562 23.9884541,7.64715839 C24.5342757,8.19273115 24.869992,8.74001796 25.1209023,9.38535595 C25.3636282,10.009619 25.5295767,10.7229734 25.5772801,11.767567 C25.6250614,12.8142642 25.6363636,13.1484641 25.6363636,15.8137263 C25.6363636,18.4789885 25.6250614,18.8131883 25.5772801,19.8598856 C25.5295767,20.9044792 25.3636282,21.6178336 25.1209023,22.2420966 C24.869992,22.8874346 24.5342757,23.4347214 23.9884541,23.9802942 C23.4426326,24.5258669 22.8950962,24.8614302 22.249464,25.1122262 C21.6249163,25.3548415 20.9112366,25.5207143 19.8661667,25.5683959 C18.8189921,25.6161554 18.4846399,25.6274136 15.8181623,25.6274136 C13.1516848,25.6274136 12.8173715,25.6161554 11.770158,25.5683959 C10.7250881,25.5207143 10.0114084,25.3548415 9.38686068,25.1122262 C8.74122843,24.8614302 8.19369206,24.5258669 7.64787051,23.9802942 C7.10204897,23.4347214 6.76633267,22.8873956 6.51542234,22.2420966 C6.27269642,21.6178336 6.10674796,20.9044792 6.0590446,19.8598856 C6.01126329,18.8131883 6,18.4789885 6,15.8137263 C6,13.1484641 6.01126329,12.8142642 6.0590446,11.767567 C6.10674796,10.7229734 6.27269642,10.009619 6.51542234,9.38535595 C6.76633267,8.74001796 7.10204897,8.19273115 7.64787051,7.64715839 C8.19369206,7.10158562 8.74122843,6.76602234 9.38686068,6.51522638 C10.0114084,6.27261108 10.7250881,6.10673826 11.770158,6.05905664 C12.8173715,6.01129712 13.1516848,6 15.8181623,6 Z M15.8376623,10.7900236 C13.0511471,10.7900236 10.7922078,13.0479333 10.7922078,15.8331784 C10.7922078,18.6184236 13.0511471,20.8763333 15.8376623,20.8763333 C18.6241776,20.8763333 20.8831169,18.6184236 20.8831169,15.8331784 C20.8831169,13.0479333 18.6241776,10.7900236 15.8376623,10.7900236 Z M15.8376623,19.1068142 C14.0288806,19.1068142 12.5625338,17.6411357 12.5625338,15.8331784 C12.5625338,14.0252212 14.0288806,12.5595427 15.8376623,12.5595427 C17.646444,12.5595427 19.1127909,14.0252212 19.1127909,15.8331784 C19.1127909,17.6411357 17.646444,19.1068142 15.8376623,19.1068142 Z M22.2077922,10.5563445 C22.2077922,9.91110512 21.684514,9.38806544 21.0389804,9.38806544 C20.3934467,9.38806544 19.8701299,9.91110512 19.8701299,10.5563445 C19.8701299,11.201584 20.3934467,11.7246623 21.0389804,11.7246623 C21.684514,11.7246623 22.2077922,11.201584 22.2077922,10.5563445 Z" id="Shape" fill="#FFFFFF"></path>
    </g>
</svg>