<?xml version="1.0" encoding="UTF-8"?>
<svg width="32px" height="27px" viewBox="0 0 32 27" version="1.1" xmlns="http://www.w3.org/2000/svg" xmlns:xlink="http://www.w3.org/1999/xlink">
    <!-- Generator: sketchtool 49.3 (51167) - http://www.bohemiancoding.com/sketch -->
    <title>B23458A3-24A6-4566-94A2-49F35F9FA3B7</title>
    <desc>Created with sketchtool.</desc>
    <defs></defs>
    <g id="Product-Reviews" stroke="none" stroke-width="1" fill="none" fill-rule="evenodd">
        <g id="Desktop_Reviews" transform="translate(-49.000000, -2347.000000)" fill="#000000" fill-rule="nonzero">
            <path d="M66.5501176,2373.61901 C66.7651765,2373.75114 67.0203529,2373.81513 67.2736471,2373.81513 C67.6232941,2373.81513 67.9695294,2373.69307 68.2014118,2373.45978 L80.6123529,2360.97691 C80.9450588,2360.64236 80.9450588,2360.17282 80.6123529,2359.83828 L68.2014118,2347.35541 C67.8012941,2346.95299 67.062,2346.88161 66.55,2347.19618 C66.038,2347.51056 65.9472941,2348.09171 66.3474118,2348.49412 L77.4665882,2359.67776 L50.1764706,2359.67776 C49.5267059,2359.67776 49,2360.09173 49,2360.60242 C49,2361.11311 49.5267059,2361.52708 50.1764706,2361.52708 L77.0794118,2361.52708 L66.3474118,2372.32125 C65.9474118,2372.72348 66.0381176,2373.30462 66.5501176,2373.61901 Z" id="Shape" transform="translate(64.930941, 2360.407564) scale(-1, 1) translate(-64.930941, -2360.407564) "></path>
        </g>
    </g>
</svg>