<svg xmlns="http://www.w3.org/2000/svg">
<defs>
<font id="GTAmerica-ExpandedBold" horiz-adv-x="803" >
  <font-face 
    font-family="GT America Expanded Bold"
    font-weight="700"
    font-stretch="ultra-expanded"
    units-per-em="1000"
    panose-1="0 0 8 7 0 0 0 0 0 0"
    ascent="785"
    descent="-215"
    x-height="500"
    cap-height="710"
    bbox="-591 -246 1716 978"
    underline-thickness="50"
    underline-position="-200"
    unicode-range="U+000D-FB02"
  />
<missing-glyph horiz-adv-x="1018" 
d="M998 663h-552v-47h552v-48h-552v-47h552v-48h-552v-47h552v-47h-552v-48h552v-47h-978v426h978v-47zM67 667l13 9h-16l-5 15l-4 -15h-16l13 -9l-5 -15l12 9l13 -9zM142 676h-16l13 -9l-5 -15l12 10l13 -10l-5 15l12 9h-15l-5 15zM229 676h-16l13 -9l-5 -15l12 10l13 -10
l-5 15l12 9h-15l-5 15zM315 676h-15l13 -9l-5 -15l12 10l13 -10l-5 15l12 9h-15l-5 15zM415 667l12 9h-15l-5 15l-5 -15h-15l12 -9l-4 -15l12 10l13 -10zM98 632h-15l12 -9l-4 -14l12 9l12 -9l-4 14l12 9h-15l-5 15zM371 623l13 9h-16l-4 15l-5 -15h-15l12 -9l-5 -14l13 9
l12 -9zM273 364v93h94v80h-94v94h-80v-94h-93v-80h93v-93h80zM67 580l13 9h-16l-5 14l-4 -14h-16l13 -9l-5 -15l12 9l13 -9zM142 589h-16l13 -9l-5 -15l12 9l13 -9l-5 15l12 9h-15l-5 14zM315 589h-15l13 -9l-5 -15l12 9l13 -9l-5 15l12 9h-15l-5 14zM415 580l12 9h-15
l-5 14l-5 -14h-15l12 -9l-4 -15l12 9l13 -9zM67 492l13 10h-16l-5 14l-4 -14h-16l13 -10l-5 -14l12 9l13 -9zM415 492l12 10h-15l-5 14l-5 -14h-15l12 -10l-4 -14l12 9l13 -9zM67 405l13 9h-16l-5 15l-4 -15h-16l13 -9l-5 -14l12 9l13 -9zM154 405l12 9h-15l-5 15l-4 -15
h-16l13 -9l-5 -14l12 9l13 -9zM328 405l12 9h-15l-5 15l-5 -15h-15l13 -9l-5 -14l12 9l13 -9zM415 405l12 9h-15l-5 15l-5 -15h-15l12 -9l-4 -14l12 9l13 -9zM115 347l-4 15l12 9h-15l-5 14l-5 -14h-15l12 -9l-4 -15l12 9zM376 347l-5 15l13 9h-16l-4 14l-5 -14h-15l12 -9
l-5 -15l13 9zM72 303l-5 15l13 9h-16l-5 15l-4 -15h-16l13 -9l-5 -15l12 9zM159 303l-5 15l12 9h-15l-5 15l-4 -15h-16l13 -9l-5 -15l12 9zM246 303l-5 15l12 9h-15l-5 15l-4 -15h-16l13 -9l-5 -15l12 9zM333 303l-5 15l12 9h-15l-5 15l-5 -15h-15l13 -9l-5 -15l12 9z

<glyph glyph-name="fi" unicode="fi" horiz-adv-x="952" 
d="M581 500v-121h-220v-379h-193v379h-153v121h153v19q0 110 71 163t217 53q62 0 125 -12v-129q-49 10 -108 10q-62 0 -87 -19.5t-25 -67.5v-17h220zM673 573v154h203v-154h-203zM678 0v500h192v-500h-192z" />
    <glyph glyph-name="fl" unicode="fl" horiz-adv-x="962" 
d="M581 500v-121h-220v-379h-193v379h-153v121h153v19q0 110 71 163t217 53q62 0 125 -12v-129q-49 10 -108 10q-62 0 -87 -19.5t-25 -67.5v-17h220zM875 725v-725h-192v725h192z" />
    <glyph glyph-name="g_g.liga" unicode="gg" horiz-adv-x="1637" 
d="M592 497q29 96 162 96q34 0 49 -4v-120q-19 6 -61 6q-46 0 -71 -13q65 -45 65 -115q0 -83 -88.5 -130t-246.5 -47q-97 0 -168 18q-29 -9 -29 -30q0 -34 61 -34h304q210 0 210 -150q0 -97 -98.5 -142.5t-309.5 -45.5q-173 0 -255 29t-82 92q0 64 93 88q-83 27 -83 96
q0 44 33.5 74t94.5 43q-106 48 -106 139q0 82 87.5 127.5t247.5 45.5q113 0 191 -23zM1610 469q-19 6 -61 6q-46 0 -71 -13q65 -45 65 -115q0 -82 -90.5 -129.5t-244.5 -47.5q-89 0 -160 17q-24 -9 -24 -29q0 -33 62 -34h298q107 -1 158 -38t51 -112q0 -97 -101 -142.5
t-306 -45.5q-169 0 -250.5 29t-81.5 92q0 62 86 86q-76 29 -76 98q0 87 121 116q-113 47 -113 140q0 83 88 128t248 45q113 0 191 -23q13 47 55.5 71.5t107.5 24.5q33 0 48 -4v-120zM401 261q66 0 102.5 22.5t36.5 63.5q0 40 -36 61t-103 21t-103 -21t-36 -61
q0 -41 36.5 -63.5t102.5 -22.5zM1208 261q66 0 102.5 22.5t36.5 63.5q0 40 -36 61t-103 21q-68 0 -104 -21t-36 -61q0 -41 36.5 -63.5t103.5 -22.5zM531 -22l-319 4h-14q-26 -16 -26 -42q0 -37 56.5 -53t171.5 -16q114 0 159.5 13.5t45.5 47.5q0 46 -74 46zM1345 -22h-312
q-13 0 -20 1q-21 -17 -21 -39q0 -69 222 -69q114 0 159.5 13.5t45.5 47.5q0 46 -74 46z" />
    <glyph glyph-name=".notdef" horiz-adv-x="1018" 
d="M998 663h-552v-47h552v-48h-552v-47h552v-48h-552v-47h552v-47h-552v-48h552v-47h-978v426h978v-47zM67 667l13 9h-16l-5 15l-4 -15h-16l13 -9l-5 -15l12 9l13 -9zM142 676h-16l13 -9l-5 -15l12 10l13 -10l-5 15l12 9h-15l-5 15zM229 676h-16l13 -9l-5 -15l12 10l13 -10
l-5 15l12 9h-15l-5 15zM315 676h-15l13 -9l-5 -15l12 10l13 -10l-5 15l12 9h-15l-5 15zM415 667l12 9h-15l-5 15l-5 -15h-15l12 -9l-4 -15l12 10l13 -10zM98 632h-15l12 -9l-4 -14l12 9l12 -9l-4 14l12 9h-15l-5 15zM371 623l13 9h-16l-4 15l-5 -15h-15l12 -9l-5 -14l13 9
l12 -9zM273 364v93h94v80h-94v94h-80v-94h-93v-80h93v-93h80zM67 580l13 9h-16l-5 14l-4 -14h-16l13 -9l-5 -15l12 9l13 -9zM142 589h-16l13 -9l-5 -15l12 9l13 -9l-5 15l12 9h-15l-5 14zM315 589h-15l13 -9l-5 -15l12 9l13 -9l-5 15l12 9h-15l-5 14zM415 580l12 9h-15
l-5 14l-5 -14h-15l12 -9l-4 -15l12 9l13 -9zM67 492l13 10h-16l-5 14l-4 -14h-16l13 -10l-5 -14l12 9l13 -9zM415 492l12 10h-15l-5 14l-5 -14h-15l12 -10l-4 -14l12 9l13 -9zM67 405l13 9h-16l-5 15l-4 -15h-16l13 -9l-5 -14l12 9l13 -9zM154 405l12 9h-15l-5 15l-4 -15
h-16l13 -9l-5 -14l12 9l13 -9zM328 405l12 9h-15l-5 15l-5 -15h-15l13 -9l-5 -14l12 9l13 -9zM415 405l12 9h-15l-5 15l-5 -15h-15l12 -9l-4 -14l12 9l13 -9zM115 347l-4 15l12 9h-15l-5 14l-5 -14h-15l12 -9l-4 -15l12 9zM376 347l-5 15l13 9h-16l-4 14l-5 -14h-15l12 -9
l-5 -15l13 9zM72 303l-5 15l13 9h-16l-5 15l-4 -15h-16l13 -9l-5 -15l12 9zM159 303l-5 15l12 9h-15l-5 15l-4 -15h-16l13 -9l-5 -15l12 9zM246 303l-5 15l12 9h-15l-5 15l-4 -15h-16l13 -9l-5 -15l12 9zM333 303l-5 15l12 9h-15l-5 15l-5 -15h-15l13 -9l-5 -15l12 9z
M420 303l-5 15l12 9h-15l-5 15l-5 -15h-15l12 -9l-4 -15l12 9zM20 189v48h977v-48h-977zM20 95v47h978v-47h-978zM20 0v47h978v-47h-978z" />
    <glyph glyph-name=".null" horiz-adv-x="0" 
 />
    <glyph glyph-name="nonmarkingreturn" horiz-adv-x="333" 
 />
    <glyph glyph-name="CR" unicode="&#xd;" horiz-adv-x="0" 
 />
    <glyph glyph-name="space" unicode=" " horiz-adv-x="406" 
 />
    <glyph glyph-name="exclam" unicode="!" horiz-adv-x="409" 
d="M122 237l-27 488h219l-27 -488h-165zM314 156v-156h-219v156h219z" />
    <glyph glyph-name="quotedbl" unicode="&#x22;" horiz-adv-x="579" 
d="M97 365l-31 345h196l-31 -345h-134zM348 365l-31 345h196l-31 -345h-134z" />
    <glyph glyph-name="numbersign" unicode="#" horiz-adv-x="849" 
d="M830 411h-159l-25 -128h150v-112h-171l-33 -171h-143l33 171h-186l-33 -171h-143l33 171h-134v112h155l24 128h-139v111h161l32 170h144l-33 -170h186l33 170h143l-33 -170h138v-111zM503 283l25 128h-186l-25 -128h186z" />
    <glyph glyph-name="dollar" unicode="$" horiz-adv-x="879" 
d="M847 213q0 -104 -98 -165.5t-271 -66.5v-86h-73v86q-144 5 -250.5 47.5t-154.5 114.5l143 91q76 -106 262 -120v176l-102 9q-250 25 -250 196q0 99 92.5 157t259.5 63v83h73v-84q245 -9 361 -131l-127 -99q-60 88 -234 100v-162l109 -10q135 -14 197.5 -60.5t62.5 -138.5
zM368 432l37 -3v157q-164 -3 -164 -77q0 -35 29 -52.5t98 -24.5zM478 112q180 5 180 86q0 36 -28 54t-90 25l-62 6v-171z" />
    <glyph glyph-name="percent" unicode="%" horiz-adv-x="1182" 
d="M145 -17l749 743h151l-750 -743h-150zM284 332q-119 0 -190.5 53t-71.5 142q0 86 71.5 139t189.5 53q115 0 188 -54t73 -141q0 -86 -72.5 -139t-187.5 -53zM284 432q49 0 79 25t30 67q0 44 -30 69.5t-80 25.5q-51 0 -81.5 -25t-30.5 -67q0 -44 30.5 -69.5t82.5 -25.5z
M900 -18q-118 0 -190 53t-72 142q0 86 72 139t189 53q115 0 188 -54t73 -141q0 -86 -72.5 -139t-187.5 -53zM900 82q50 0 79.5 24.5t29.5 67.5q0 44 -30 69.5t-80 25.5q-51 0 -81.5 -25t-30.5 -67q0 -44 30.5 -69.5t82.5 -25.5z" />
    <glyph glyph-name="ampersand" unicode="&#x26;" horiz-adv-x="917" 
d="M839 115q31 0 60 9v-124q-43 -18 -85 -18q-86 0 -180 68q-120 -74 -289 -74q-163 0 -247.5 58t-84.5 146q0 68 45 115t139 80q-58 46 -84.5 84.5t-26.5 89.5q0 89 78 137.5t194 48.5q120 0 192 -47.5t72 -131.5q0 -61 -47.5 -112.5t-114.5 -74.5l-22 -8l185 -137
q62 79 82 187l142 -24q-29 -147 -108 -243q53 -29 100 -29zM357 634q-45 0 -71 -21.5t-26 -61.5q0 -30 19 -58t71 -66l19 6q44 15 65.5 47.5t21.5 72.5q0 38 -25.5 59.5t-73.5 21.5zM367 98q81 0 151 38l-229 170q-81 -38 -81 -104q0 -47 44.5 -75.5t114.5 -28.5z" />
    <glyph glyph-name="quotesingle" unicode="'" horiz-adv-x="328" 
d="M97 365l-31 345h196l-31 -345h-134z" />
    <glyph glyph-name="parenleft" unicode="(" horiz-adv-x="426" 
d="M278 -143q-102 95 -160.5 219t-58.5 248t59.5 249.5t162.5 213.5l140 -61q-181 -174 -181 -405q0 -221 183 -403z" />
    <glyph glyph-name="parenright" unicode=")" horiz-adv-x="426" 
d="M148 -143l-145 61q183 180 183 403q0 231 -181 405l140 61q103 -88 162.5 -213.5t59.5 -249.5t-58 -248.5t-161 -218.5z" />
    <glyph glyph-name="asterisk" unicode="*" horiz-adv-x="440" 
d="M422 532l-146 -10l121 -96l-114 -79l-63 143l-62 -143l-114 79l121 96l-146 10l41 128l127 -80l-40 136h146l-40 -136l128 80z" />
    <glyph glyph-name="plus" unicode="+" horiz-adv-x="709" 
d="M663 387v-117h-245v-195h-128v195h-244v117h244v185h128v-185h245z" />
    <glyph glyph-name="comma" unicode="," horiz-adv-x="328" 
d="M100 -164l-20 74q87 16 87 85v5h-101v180h197v-167q0 -71 -39 -118.5t-124 -58.5z" />
    <glyph glyph-name="hyphen" unicode="-" horiz-adv-x="614" 
d="M46 346h522v-136h-522v136z" />
    <glyph glyph-name="period" unicode="." horiz-adv-x="341" 
d="M275 164v-164h-209v164h209z" />
    <glyph glyph-name="slash" unicode="/" horiz-adv-x="732" 
d="M225 -117h-183l465 877h183z" />
    <glyph glyph-name="zero" unicode="0" horiz-adv-x="894" 
d="M447 -24q-182 0 -295 100t-113 273q0 171 113 270.5t295 99.5t295 -99.5t113 -270.5q0 -173 -113 -273t-295 -100zM447 115q93 0 149.5 59.5t56.5 174.5q0 113 -56.5 172t-149.5 59t-149.5 -59t-56.5 -172q0 -115 56.5 -174.5t149.5 -59.5z" />
    <glyph glyph-name="one" unicode="1" horiz-adv-x="545" 
d="M238 0v464q-50 -56 -167 -56h-49v162h28q80 0 135.5 32.5t79.5 92.5h168v-695h-195z" />
    <glyph glyph-name="two" unicode="2" horiz-adv-x="844" 
d="M36 0v132q252 90 414 178q68 38 95 73t27 81q0 48 -41 79.5t-119 31.5t-122.5 -34.5t-44.5 -96.5q0 -12 3 -29l-201 18q-3 12 -3 37q0 111 104.5 178t269.5 67q170 0 265.5 -62t95.5 -174q0 -75 -39 -126.5t-118 -94.5q-117 -63 -294 -111h466v-147h-758z" />
    <glyph glyph-name="three" unicode="3" horiz-adv-x="841" 
d="M415 -20q-175 0 -275.5 64.5t-108.5 179.5l200 17q12 -126 187 -126q84 0 130 24t46 69q0 48 -40.5 68.5t-123.5 20.5h-83v112h81q152 0 152 85q0 41 -42.5 63.5t-124.5 22.5q-173 0 -179 -125l-197 19q4 107 102 174t273 67q177 0 273.5 -54.5t96.5 -150.5
q0 -70 -49.5 -107t-126.5 -44q194 -21 194 -166q0 -96 -102.5 -154.5t-282.5 -58.5z" />
    <glyph glyph-name="four" unicode="4" horiz-adv-x="874" 
d="M862 149h-155v-149h-192v149h-496v121l470 425h218v-416h155v-130zM516 470q0 67 4 94h-4q-18 -33 -74 -84l-144 -136q-44 -42 -80 -65h298v191z" />
    <glyph glyph-name="five" unicode="5" horiz-adv-x="821" 
d="M406 -20q-153 0 -252 58t-116 156l193 23q11 -47 58.5 -74.5t119.5 -27.5q83 0 128 32t45 91q0 57 -44 87.5t-123 30.5q-128 0 -174 -88l-176 15l46 412h620v-138h-467l-21 -162q30 41 92.5 64t145.5 23q142 0 222.5 -64t80.5 -178q0 -120 -102 -190t-276 -70z" />
    <glyph glyph-name="six" unicode="6" horiz-adv-x="848" 
d="M485 477q157 0 241.5 -63.5t84.5 -179.5q0 -115 -103 -184.5t-273 -69.5q-190 0 -293 93.5t-103 265.5q0 179 106 277.5t299 98.5q143 0 238.5 -50.5t120.5 -140.5l-200 -26q-33 83 -166 83q-96 0 -149 -49.5t-58 -144.5q87 90 255 90zM435 114q79 0 127 33t48 86
q0 57 -43 87.5t-124 30.5q-146 0 -201 -105q38 -132 193 -132z" />
    <glyph glyph-name="seven" unicode="7" horiz-adv-x="736" 
d="M193 0v18q0 155 84 290.5t245 239.5h-508v147h704v-138q-311 -206 -311 -517v-40h-214z" />
    <glyph glyph-name="eight" unicode="8" horiz-adv-x="854" 
d="M639 385q93 -27 135.5 -73t42.5 -118q0 -101 -102.5 -157.5t-284.5 -56.5q-185 0 -288.5 52.5t-103.5 146.5q0 64 47 106.5t133 58.5q-82 26 -120 68t-38 107q0 90 99.5 143t268.5 53q168 0 267.5 -50.5t99.5 -136.5q0 -54 -41 -91t-115 -52zM428 596q-78 0 -122.5 -21
t-44.5 -58q0 -35 35 -56t115 -33l93 -15q3 0 4 -1q86 34 86 97q0 42 -43 64.5t-123 22.5zM431 107q85 0 134 25t49 68q0 40 -39 62.5t-134 37.5l-89 15q-111 -33 -111 -110q0 -47 49.5 -72.5t140.5 -25.5z" />
    <glyph glyph-name="nine" unicode="9" horiz-adv-x="848" 
d="M406 715q194 0 298 -91.5t104 -260.5q0 -186 -103 -284.5t-295 -98.5q-144 0 -242 55t-124 152l200 27q36 -96 167 -96q203 0 208 207q-84 -82 -256 -82q-156 0 -241.5 60t-85.5 173q0 110 101 174.5t269 64.5zM404 370q155 0 204 94q-37 123 -196 123q-82 0 -128 -29
t-46 -81q0 -51 44 -79t122 -28z" />
    <glyph glyph-name="colon" unicode=":" horiz-adv-x="341" 
d="M275 500v-164h-209v164h209zM275 164v-164h-209v164h209z" />
    <glyph glyph-name="semicolon" unicode=";" horiz-adv-x="341" 
d="M275 500v-164h-209v164h209zM112 -164l-20 74q87 16 87 85v5h-101v180h197v-167q0 -71 -38.5 -118.5t-124.5 -58.5z" />
    <glyph glyph-name="less" unicode="&#x3c;" 
d="M664 66l-565 205v110l565 205v-125l-421 -134l421 -134v-127z" />
    <glyph glyph-name="equal" unicode="=" horiz-adv-x="691" 
d="M46 371v108h598v-108h-598zM46 179v108h598v-108h-598z" />
    <glyph glyph-name="greater" unicode="&#x3e;" 
d="M139 66v127l422 134l-422 134v125l565 -205v-110z" />
    <glyph glyph-name="question" unicode="?" horiz-adv-x="802" 
d="M295 202v30q0 51 22.5 85.5t77.5 55.5l94 38q45 18 65.5 39.5t20.5 58.5q0 41 -43.5 69t-124.5 28q-85 0 -135.5 -32t-50.5 -91q0 -28 6 -46l-199 17q-6 22 -6 47q0 107 104.5 170t280.5 63q168 0 267 -57t99 -156q0 -69 -36.5 -111t-104.5 -70l-91 -38q-63 -26 -63 -79
v-21h-183zM281 0v156h215v-156h-215z" />
    <glyph glyph-name="at" unicode="@" horiz-adv-x="1007" 
d="M486 -104q-218 0 -341.5 101.5t-123.5 279.5q0 172 135.5 278.5t353.5 106.5q217 0 346.5 -99.5t129.5 -265.5q0 -107 -57 -169.5t-155 -62.5q-125 0 -152 92q-67 -99 -219 -99q-89 0 -137.5 33t-48.5 93q0 62 46.5 94t151.5 43l201 18v6q0 40 -29 61t-83 21
q-49 0 -78.5 -18t-32.5 -49h-163q7 72 84 116.5t192 44.5q129 0 196.5 -48.5t67.5 -142.5v-115q0 -67 59 -67q38 0 59.5 39t21.5 108q0 142 -106 221t-295 79q-188 0 -298 -85.5t-110 -232.5q0 -145 106 -228.5t291 -83.5q127 0 224 41l28 -62q-105 -48 -264 -48zM468 152
q64 0 106 29.5t42 75.5v21l-161 -16q-77 -9 -77 -57q0 -24 24.5 -38.5t65.5 -14.5z" />
    <glyph glyph-name="A" unicode="A" horiz-adv-x="982" 
d="M755 0l-66 143h-396l-66 -143h-217l355 710h252l354 -710h-216zM353 272h276l-91 195q-24 56 -46 122h-2q-22 -66 -46 -122z" />
    <glyph glyph-name="B" unicode="B" horiz-adv-x="950" 
d="M749 373q158 -23 158 -171q0 -87 -65 -144.5t-202 -57.5h-548v710h544q126 0 189.5 -49.5t63.5 -130.5q0 -57 -35.5 -100t-104.5 -57zM580 578h-286v-155h286q100 0 100 82q0 73 -100 73zM589 132q55 0 82 23.5t27 62.5q0 38 -27 60.5t-81 22.5h-296v-169h295z" />
    <glyph glyph-name="C" unicode="C" horiz-adv-x="966" 
d="M486 -24q-213 0 -339 102.5t-126 273.5q0 169 131.5 275.5t341.5 106.5q173 0 291.5 -70.5t153.5 -195.5l-209 -37q-20 73 -81 111.5t-157 38.5q-120 0 -189.5 -61t-69.5 -165q0 -103 70.5 -164.5t190.5 -61.5q192 0 238 144l206 -44q-44 -121 -161.5 -187t-290.5 -66z
" />
    <glyph glyph-name="D" unicode="D" horiz-adv-x="992" 
d="M92 0v710h451q199 0 313.5 -89.5t114.5 -253.5q0 -165 -120 -266t-311 -101h-448zM294 137h220q114 0 179.5 60t65.5 167q0 101 -67 155t-180 54h-218v-436z" />
    <glyph glyph-name="E" unicode="E" horiz-adv-x="880" 
d="M294 141h522v-141h-724v710h717v-141h-515v-143h498v-132h-498v-153z" />
    <glyph glyph-name="F" unicode="F" horiz-adv-x="846" 
d="M809 565h-515v-146h498v-142h-498v-277h-202v710h717v-145z" />
    <glyph glyph-name="G" unicode="G" horiz-adv-x="984" 
d="M438 -24q-192 0 -304.5 103.5t-112.5 267.5q0 169 128.5 278t343.5 109q168 0 285 -62.5t150 -169.5l-218 -36q-21 55 -78 88.5t-145 33.5q-120 0 -187.5 -64.5t-67.5 -174.5q0 -105 68.5 -168.5t188.5 -63.5q111 0 178 44t72 107v3h-268v125h456v-396h-154l-9 122
q-38 -63 -119.5 -104.5t-206.5 -41.5z" />
    <glyph glyph-name="H" unicode="H" horiz-adv-x="1015" 
d="M923 710v-710h-202v290h-427v-290h-202v710h202v-280h427v280h202z" />
    <glyph glyph-name="I" unicode="I" horiz-adv-x="385" 
d="M294 0h-202v710h202v-710z" />
    <glyph glyph-name="J" unicode="J" horiz-adv-x="517" 
d="M453 257q0 -272 -303 -272q-80 0 -136 12v155q47 -7 89 -7q71 0 109.5 32t38.5 114v419h202v-453z" />
    <glyph glyph-name="K" unicode="K" horiz-adv-x="956" 
d="M705 0l-250 323l-161 -143v-180h-202v710h202v-330l379 330h249l-315 -272l333 -438h-235z" />
    <glyph glyph-name="L" unicode="L" horiz-adv-x="802" 
d="M92 0v710h202v-552h481v-158h-683z" />
    <glyph glyph-name="M" unicode="M" horiz-adv-x="1210" 
d="M92 0v710h301l184 -430q21 -62 24 -77h2q4 22 25 78l182 429h308v-710h-184v452q0 64 9 121h-4q-10 -39 -42 -113l-206 -460h-189l-199 459q-18 46 -38 114h-4q7 -41 7 -121v-452h-176z" />
    <glyph glyph-name="N" unicode="N" horiz-adv-x="1012" 
d="M92 0v710h215l371 -403q34 -38 56 -81h4v102v382h183v-710h-201l-385 408q-40 44 -56 81h-4v-99v-390h-183z" />
    <glyph glyph-name="O" unicode="O" horiz-adv-x="994" 
d="M497 -24q-217 0 -346.5 103.5t-129.5 275.5q0 173 129.5 276t346.5 103q216 0 346 -103.5t130 -275.5t-130 -275.5t-346 -103.5zM497 126q118 0 191 63t73 166t-73 166t-191 63t-191 -63t-73 -166t73 -166t191 -63z" />
    <glyph glyph-name="P" unicode="P" horiz-adv-x="888" 
d="M575 710q139 0 217.5 -63t78.5 -173q0 -114 -82 -181.5t-219 -67.5h-276v-225h-202v710h483zM525 360q64 0 99 28.5t35 80.5q0 51 -34.5 78.5t-98.5 27.5h-232v-215h231z" />
    <glyph glyph-name="Q" unicode="Q" horiz-adv-x="994" 
d="M712 9q62 -36 158 -36q43 0 79 4v-153q-44 -6 -75 -6q-219 0 -307 161q-33 -3 -70 -3q-217 0 -346.5 103.5t-129.5 275.5q0 173 129.5 276t346.5 103q216 0 346 -103.5t130 -275.5q0 -123 -69 -213.5t-192 -132.5zM233 355q0 -103 73 -166t191 -63t191 63t73 166t-73 166
t-191 63t-191 -63t-73 -166z" />
    <glyph glyph-name="R" unicode="R" horiz-adv-x="926" 
d="M669 0l-168 251h-207v-251h-202v710h484q82 0 141.5 -19.5t91.5 -53t46.5 -71.5t14.5 -81q0 -67 -38.5 -125.5t-121.5 -84.5l186 -275h-227zM294 575v-195h236q68 0 97.5 28t29.5 71q0 42 -29.5 69t-96.5 27h-237z" />
    <glyph glyph-name="S" unicode="S" horiz-adv-x="883" 
d="M448 -24q-156 0 -274.5 48t-173.5 133l144 101q46 -64 127 -101.5t187 -37.5q189 0 189 82q0 33 -25.5 48.5t-89.5 22.5l-218 24q-132 14 -194.5 65.5t-62.5 148.5q0 106 99 165t281 59q278 0 408 -146l-127 -107q-86 113 -291 113q-170 0 -170 -74q0 -33 26 -48t95 -23
l196 -19q148 -15 212.5 -63.5t64.5 -146.5q0 -117 -105 -180.5t-298 -63.5z" />
    <glyph glyph-name="T" unicode="T" horiz-adv-x="813" 
d="M803 710v-157h-296v-553h-202v553h-295v157h793z" />
    <glyph glyph-name="U" unicode="U" horiz-adv-x="961" 
d="M63 710h202v-371q0 -92 56.5 -148.5t159.5 -56.5q100 0 157.5 57t57.5 148v371h202v-392q0 -156 -109.5 -249t-307.5 -93t-308 93.5t-110 250.5v390z" />
    <glyph glyph-name="V" unicode="V" horiz-adv-x="939" 
d="M349 0l-352 710h224l223 -478q15 -33 24 -71h3q7 32 24 71l223 478h224l-351 -710h-242z" />
    <glyph glyph-name="W" unicode="W" horiz-adv-x="1356" 
d="M264 0l-246 710h205l142 -459q13 -51 14 -68h4q3 21 20 68l170 459h210l170 -459q17 -47 20 -68h3q1 13 15 68l142 459h205l-246 -710h-230l-166 454q-13 32 -16 62h-4q-3 -30 -16 -62l-166 -454h-230z" />
    <glyph glyph-name="X" unicode="X" horiz-adv-x="958" 
d="M4 0l344 364l-331 346h243l181 -201q26 -28 36 -45h3q12 18 37 45l180 201h243l-329 -346l343 -364h-247l-185 207q-36 41 -43 53h-2q-11 -18 -43 -53l-187 -207h-243z" />
    <glyph glyph-name="Y" unicode="Y" horiz-adv-x="895" 
d="M345 0v241l-354 469h229l205 -289q20 -27 24 -39h2q4 15 23 39l213 289h217l-357 -469v-241h-202z" />
    <glyph glyph-name="Z" unicode="Z" horiz-adv-x="880" 
d="M52 131l504 440h-488v139h756v-131l-504 -440h523v-139h-791v131z" />
    <glyph glyph-name="bracketleft" unicode="[" horiz-adv-x="436" 
d="M92 -120v883h333v-120h-161v-643h161v-120h-333z" />
    <glyph glyph-name="backslash" unicode="\" horiz-adv-x="732" 
d="M507 -117l-465 877h183l465 -877h-183z" />
    <glyph glyph-name="bracketright" unicode="]" horiz-adv-x="436" 
d="M344 -120h-333v120h161v643h-161v120h333v-883z" />
    <glyph glyph-name="asciicircum" unicode="^" horiz-adv-x="585" 
d="M213 708h160l192 -267h-157l-115 166l-116 -166h-157z" />
    <glyph glyph-name="underscore" unicode="_" horiz-adv-x="675" 
d="M0 -79h675v-103h-675v103z" />
    <glyph glyph-name="grave" unicode="`" horiz-adv-x="600" 
d="M351 573h-162l-198 157h196z" />
    <glyph glyph-name="a" unicode="a" horiz-adv-x="834" 
d="M295 -19q-119 0 -184.5 41t-65.5 116t63 114q59 37 196 45l262 15v12q0 41 -37.5 62.5t-105.5 21.5t-109.5 -20.5t-49.5 -58.5h-205q15 87 113.5 138.5t250.5 51.5q173 0 255 -56t82 -169v-138q0 -96 9 -156h-192q-5 30 -7 92q-63 -111 -275 -111zM367 88
q90 0 145.5 33.5t55.5 90.5v17l-201 -14q-68 -5 -95.5 -19.5t-27.5 -44.5q0 -63 123 -63z" />
    <glyph glyph-name="b" unicode="b" horiz-adv-x="880" 
d="M532 -19q-174 0 -258 105l-14 -86h-173v725h192v-307q89 101 265 101q139 0 225.5 -73t86.5 -191q0 -122 -89.5 -198t-234.5 -76zM467 104q86 0 137.5 41t51.5 109q0 65 -50.5 104t-135.5 39q-87 0 -142.5 -38t-55.5 -99v-12q0 -65 53.5 -104.5t141.5 -39.5z" />
    <glyph glyph-name="c" unicode="c" horiz-adv-x="807" 
d="M408 -19q-177 0 -280.5 73t-103.5 198t103 196t283 71q152 0 248.5 -50.5t121.5 -143.5l-203 -27q-31 93 -173 93q-84 0 -132 -37t-48 -101t49.5 -103.5t130.5 -39.5q144 0 174 94l202 -30q-24 -89 -124 -141t-248 -52z" />
    <glyph glyph-name="d" unicode="d" horiz-adv-x="880" 
d="M339 -19q-139 0 -227 75.5t-88 196.5q0 119 89 192.5t233 73.5q167 0 255 -93v299h192v-725h-187v98q-85 -117 -267 -117zM411 104q85 0 139.5 39t54.5 102v12q0 62 -55.5 101t-142.5 39q-85 0 -134 -38.5t-49 -106.5t50.5 -108t136.5 -40z" />
    <glyph glyph-name="e" unicode="e" horiz-adv-x="795" 
d="M767 236v-27h-558q11 -51 62.5 -79t136.5 -28q134 0 194 74l146 -64q-108 -131 -348 -131q-176 0 -276 70.5t-100 195.5q0 128 100.5 200t270.5 72q176 0 274 -75t98 -208zM576 307v1q-2 47 -52.5 77t-129.5 30t-128 -29t-58 -79h368z" />
    <glyph glyph-name="f" unicode="f" horiz-adv-x="596" 
d="M581 500v-121h-220v-379h-193v379h-153v121h153v19q0 110 71 163t217 53q62 0 125 -12v-129q-49 10 -108 10q-62 0 -87 -19.5t-25 -67.5v-17h220z" />
    <glyph glyph-name="g" unicode="g" horiz-adv-x="830" 
d="M803 469q-27 6 -60 6q-46 0 -72 -14q65 -43 65 -114q0 -83 -88.5 -130t-246.5 -47q-97 0 -168 18q-29 -9 -29 -30q0 -34 61 -34l320 -1q111 -1 163 -37t52 -111q0 -98 -100 -143.5t-319 -45.5q-179 0 -263 29.5t-84 91.5q0 65 91 87q-81 31 -81 97q0 44 33.5 74t94.5 44
q-106 47 -106 138q0 82 87.5 127t247.5 45q113 0 191 -23q27 97 163 97q25 0 48 -4v-120zM401 261q66 0 102.5 22.5t36.5 63.5q0 81 -139 81t-139 -81q0 -41 36.5 -63.5t102.5 -22.5zM565 -22h-340q-18 0 -26 1q-21 -16 -21 -39q0 -38 52 -53.5t167 -15.5q140 0 190.5 14
t50.5 50q0 43 -73 43z" />
    <glyph glyph-name="h" unicode="h" horiz-adv-x="887" 
d="M87 0v725h192v-332q35 60 102.5 93t156.5 33q137 0 210.5 -76.5t73.5 -218.5v-224h-192v204q0 88 -43.5 134t-127.5 46t-132 -46t-48 -128v-210h-192z" />
    <glyph glyph-name="i" unicode="i" horiz-adv-x="356" 
d="M77 573v154h203v-154h-203zM82 0v500h192v-500h-192z" />
    <glyph glyph-name="j" unicode="j" horiz-adv-x="368" 
d="M85 573v154h203v-154h-203zM48 -211q-58 0 -86 9v137q23 -4 61 -4q36 0 53.5 23.5t17.5 77.5v468h192v-493q0 -109 -55 -163.5t-183 -54.5z" />
    <glyph glyph-name="k" unicode="k" horiz-adv-x="845" 
d="M605 0l-177 232l-149 -104v-128h-192v725h192v-433l282 208h254l-240 -177l250 -323h-220z" />
    <glyph glyph-name="l" unicode="l" horiz-adv-x="366" 
d="M279 725v-725h-192v725h192z" />
    <glyph glyph-name="m" unicode="m" horiz-adv-x="1279" 
d="M82 500h189v-111q28 63 86 96.5t139 33.5q166 0 223 -130q74 130 244 130q122 0 186.5 -68.5t64.5 -198.5v-252h-192v227q0 74 -34 113t-99 39q-68 0 -106.5 -41t-38.5 -113v-225h-192v226q0 153 -133 153q-68 0 -106.5 -41.5t-38.5 -116.5v-221h-192v500z" />
    <glyph glyph-name="n" unicode="n" horiz-adv-x="882" 
d="M82 0v500h189v-116q71 135 266 135q137 0 208.5 -72t71.5 -210v-237h-192v208q0 173 -166 173q-88 0 -136.5 -45.5t-48.5 -128.5v-207h-192z" />
    <glyph glyph-name="o" unicode="o" horiz-adv-x="822" 
d="M411 -19q-175 0 -281 73.5t-106 195.5q0 123 106 196t281 73t281.5 -73t106.5 -196q0 -122 -106.5 -195.5t-281.5 -73.5zM411 104q85 0 136.5 39.5t51.5 106.5t-51.5 106.5t-136.5 39.5t-136.5 -39.5t-51.5 -106.5t51.5 -106.5t136.5 -39.5z" />
    <glyph glyph-name="p" unicode="p" horiz-adv-x="875" 
d="M82 -195v695h189v-87q41 52 110.5 79t154.5 27q143 0 229 -73t86 -193q0 -122 -89.5 -197t-231.5 -75q-83 0 -149.5 26.5t-106.5 71.5v-274h-192zM463 104q87 0 137.5 40.5t50.5 109.5q0 66 -49 104.5t-136 38.5t-141.5 -38.5t-54.5 -99.5v-10q0 -65 53.5 -105t139.5 -40
z" />
    <glyph glyph-name="q" unicode="q" horiz-adv-x="875" 
d="M601 -195v276q-88 -100 -256 -100q-143 0 -232 76t-89 197q0 119 87 192t229 73q180 0 265 -105l4 86h184v-695h-192zM412 104q88 0 137.5 40.5t49.5 105.5v11q0 60 -51 98t-140 38q-87 0 -138.5 -37t-51.5 -104v-1q0 -70 53 -110.5t141 -40.5z" />
    <glyph glyph-name="r" unicode="r" horiz-adv-x="561" 
d="M251 352q21 75 81.5 119t146.5 44q32 0 65 -5v-164q-42 8 -80 8q-90 0 -138 -45q-52 -49 -52 -147v-162h-192v500h169v-148z" />
    <glyph glyph-name="s" unicode="s" horiz-adv-x="758" 
d="M404 -19q-263 0 -384 113l93 88q96 -87 309 -87q67 0 96.5 11t29.5 36q0 19 -14.5 27t-52.5 12l-218 19q-108 11 -159.5 48t-51.5 106q0 165 323 165q223 0 340 -86l-78 -92q-98 66 -279 66q-129 0 -129 -43q0 -18 16 -26.5t53 -12.5l222 -19q110 -10 157.5 -44
t47.5 -103q0 -178 -321 -178z" />
    <glyph glyph-name="t" unicode="t" horiz-adv-x="607" 
d="M4 379v121h147v117l192 68v-185h226v-121h-226v-145q0 -54 30 -78.5t93 -24.5q55 0 103 12v-135q-52 -22 -152 -22q-266 0 -266 210v183h-147z" />
    <glyph glyph-name="u" unicode="u" horiz-adv-x="871" 
d="M335 -19q-129 0 -200 64t-71 184v271h193v-225q0 -160 154 -160q91 0 138.5 49.5t47.5 122.5v213h192v-500h-189v117q-33 -66 -103.5 -101t-161.5 -35z" />
    <glyph glyph-name="v" unicode="v" horiz-adv-x="789" 
d="M286 0l-292 500h210l162 -298q15 -30 26 -56h5q11 26 26 56l162 298h210l-292 -500h-217z" />
    <glyph glyph-name="w" unicode="w" horiz-adv-x="1138" 
d="M219 0l-207 500h193l110 -305q8 -27 13 -54h2q3 23 15 54l127 305h195l126 -305q12 -31 15 -54h2q5 27 13 54l110 305h193l-207 -500h-209l-122 288q-14 34 -17 61h-4q-3 -27 -17 -61l-121 -288h-210z" />
    <glyph glyph-name="x" unicode="x" horiz-adv-x="797" 
d="M4 0l262 255l-253 245h236l115 -115q23 -25 35 -47h2q12 22 35 47l116 115h224l-249 -241l266 -259h-239l-128 122q-24 24 -37 46h-1q-15 -25 -38 -46l-127 -122h-219z" />
    <glyph glyph-name="y" unicode="y" horiz-adv-x="773" 
d="M168 -214q-64 0 -119 11v143q54 -10 95 -10q44 0 87.5 16.5t64.5 44.5l2 6l-304 503h215l158 -299q17 -34 25 -57h4q5 13 24 54l152 302h207l-291 -524q-54 -101 -128.5 -145.5t-191.5 -44.5z" />
    <glyph glyph-name="z" unicode="z" horiz-adv-x="740" 
d="M45 121l397 261h-382v118h630v-118l-395 -264h411v-118h-661v121z" />
    <glyph glyph-name="braceleft" unicode="{" horiz-adv-x="430" 
d="M311 -120q-105 0 -151.5 36t-46.5 120v148q0 47 -17.5 69t-80.5 23v106q64 1 80.5 20.5t16.5 67.5v135q0 77 50 118t146 41h111v-121h-55q-41 0 -60 -18t-19 -60v-93q0 -56 -22 -92t-80 -50q58 -16 80 -54.5t22 -94.5v-111q0 -41 19 -55.5t60 -14.5h55v-120h-108z" />
    <glyph glyph-name="bar" unicode="|" horiz-adv-x="287" 
d="M87 -117v877h113v-877h-113z" />
    <glyph glyph-name="braceright" unicode="}" horiz-adv-x="430" 
d="M119 -120h-108v120h55q41 0 60 14.5t19 55.5v111q0 56 22 94.5t80 54.5q-58 14 -80 50t-22 92v93q0 42 -19 60t-60 18h-55v121h111q96 0 146 -41t50 -118v-135q0 -48 16.5 -67.5t80.5 -20.5v-106q-63 -1 -80.5 -23t-17.5 -69v-148q0 -84 -46.5 -120t-151.5 -36z" />
    <glyph glyph-name="asciitilde" unicode="~" 
d="M515 218q-57 0 -119.5 33.5t-94.5 33.5q-71 0 -82 -67l-115 28q12 72 61.5 109t122.5 37q60 0 124 -33.5t94 -33.5q65 0 78 71l114 -21q-11 -80 -62 -118.5t-121 -38.5z" />
    <glyph glyph-name="uni00A0" unicode="&#xa0;" horiz-adv-x="406" 
 />
    <glyph glyph-name="exclamdown" unicode="&#xa1;" horiz-adv-x="409" 
d="M314 424h-219v156h219v-156zM122 343h165l27 -488h-219z" />
    <glyph glyph-name="cent" unicode="&#xa2;" horiz-adv-x="813" 
d="M449 103q125 12 153 101l184 -30q-23 -83 -112.5 -134t-224.5 -58v-86h-72v86q-164 7 -258.5 79t-94.5 190t94 188.5t259 78.5v75h72v-75q138 -6 225.5 -56t112.5 -138l-186 -25q-29 90 -152 102v-298zM206 251q0 -63 46 -102.5t125 -46.5v300q-80 -7 -125.5 -47
t-45.5 -104z" />
    <glyph glyph-name="sterling" unicode="&#xa3;" horiz-adv-x="853" 
d="M659 213l187 -23q-17 -98 -88 -154t-179 -56q-51 0 -140 11t-156 11q-110 0 -238 -19l-32 93q146 39 146 164q0 34 -7 71h-108v91h86q-8 35 -8 73q0 112 91 176t249 64q298 0 345 -190l-186 -34q-25 93 -156 93q-152 0 -152 -109q0 -33 9 -73h249v-91h-227q4 -32 4 -51
q0 -97 -96 -135q50 10 98 10q38 0 97 -5t95 -5q102 0 117 88z" />
    <glyph glyph-name="currency" unicode="&#xa4;" horiz-adv-x="696" 
d="M657 303q0 -85 -55 -146l64 -56l-71 -68l-77 66q-70 -32 -166 -32q-102 0 -180 38l-76 -67l-72 68l69 61q-47 58 -47 136q0 80 48 137l-70 61l72 68l78 -67q74 37 178 37q99 0 172 -34l77 65l72 -68l-67 -58q51 -59 51 -141zM352 181q75 0 118.5 33t43.5 89
q0 54 -43.5 86.5t-118.5 32.5t-119 -32.5t-44 -86.5q0 -56 44 -89t119 -33z" />
    <glyph glyph-name="yen" unicode="&#xa5;" horiz-adv-x="923" 
d="M932 695l-346 -392h264v-70h-289v-58h289v-71h-289v-104h-199v104h-282v71h282v58h-282v70h257l-346 392h225l180 -211q30 -36 67 -89h3q37 54 68 89l184 211h214z" />
    <glyph glyph-name="brokenbar" unicode="&#xa6;" horiz-adv-x="286" 
d="M199 760v-375h-112v375h112zM199 264v-381h-112v381h112z" />
    <glyph glyph-name="section" unicode="&#xa7;" horiz-adv-x="728" 
d="M621 195q55 -38 55 -117q0 -94 -92 -147.5t-253 -53.5q-238 0 -331 113l99 84q78 -80 255 -80q138 0 138 63q0 26 -17.5 39t-60.5 18l-193 22q-107 13 -155.5 48.5t-48.5 102.5q0 77 85 120q-64 37 -64 119q0 88 88 138.5t239 50.5q207 0 307 -91l-93 -86q-87 63 -230 63
q-129 0 -129 -56q0 -25 16 -36.5t58 -16.5l199 -22q108 -11 155 -47t47 -106q0 -77 -74 -122zM290 258l196 -22h4q29 16 29 49q0 29 -21 42.5t-76 20.5l-184 22q-46 -18 -46 -54q0 -25 21.5 -37.5t76.5 -20.5z" />
    <glyph glyph-name="dieresis" unicode="&#xa8;" horiz-adv-x="600" 
d="M44 579v143h181v-143h-181zM375 579v143h181v-143h-181z" />
    <glyph glyph-name="copyright" unicode="&#xa9;" horiz-adv-x="930" 
d="M465 -24q-203 0 -323.5 101.5t-120.5 277.5t120.5 277.5t323.5 101.5t323.5 -101.5t120.5 -277.5t-120.5 -277.5t-323.5 -101.5zM465 39q168 0 270.5 85t102.5 231t-102.5 231t-270.5 85t-270.5 -85t-102.5 -231t102.5 -231t270.5 -85zM475 140q-127 0 -197 58.5
t-70 156.5t69.5 156.5t196.5 58.5q108 0 174 -41t79 -110l-142 -20q-7 33 -36.5 53t-76.5 20q-56 0 -90.5 -32t-34.5 -85q0 -52 34 -83.5t91 -31.5q47 0 76.5 19.5t36.5 52.5l143 -20q-15 -68 -80 -110t-173 -42z" />
    <glyph glyph-name="ordfeminine" unicode="&#xaa;" horiz-adv-x="642" 
d="M227 296q-89 0 -137 30t-48 86q0 60 50 85t139 30l181 11v9q0 60 -88 60q-87 0 -99 -51h-173q12 62 86 98t186 36q133 0 193.5 -42t60.5 -128v-104q0 -56 6 -106h-163q-3 22 -5 65q-17 -36 -68 -57.5t-121 -21.5zM288 380q56 0 91.5 22.5t35.5 59.5v16l-129 -10
q-81 -5 -81 -43q0 -21 22.5 -33t60.5 -12z" />
    <glyph glyph-name="guillemotleft" unicode="&#xab;" horiz-adv-x="789" 
d="M266 67l-242 209l247 206h182l-244 -205l241 -210h-184zM585 67l-241 209l246 206h182l-244 -205l241 -210h-184z" />
    <glyph glyph-name="logicalnot" unicode="&#xac;" 
d="M116 387h569v-265h-118v154h-451v111z" />
    <glyph glyph-name="registered" unicode="&#xae;" horiz-adv-x="930" 
d="M465 734q203 0 323.5 -101.5t120.5 -277.5t-120.5 -277.5t-323.5 -101.5t-323.5 101.5t-120.5 277.5t120.5 277.5t323.5 101.5zM465 39q168 0 270.5 85t102.5 231t-102.5 231t-270.5 85t-270.5 -85t-102.5 -231t102.5 -231t270.5 -85zM721 431q0 -47 -25.5 -79t-73.5 -46
l101 -150h-149l-83 136h-101v-136h-131v406h300q78 0 120 -34t42 -97zM390 478v-104h128q67 0 67 54q0 50 -66 50h-129z" />
    <glyph glyph-name="macron" unicode="&#xaf;" horiz-adv-x="600" 
d="M56 593v104h497v-104h-497z" />
    <glyph glyph-name="degree" unicode="&#xb0;" horiz-adv-x="515" 
d="M257 269q-101 0 -168 62t-67 162q0 101 66.5 162.5t168.5 61.5t169 -61.5t67 -162.5q0 -100 -67 -162t-169 -62zM257 367q57 0 92.5 34.5t35.5 91.5t-35.5 91.5t-92.5 34.5q-56 0 -91.5 -34.5t-35.5 -91.5t35.5 -91.5t91.5 -34.5z" />
    <glyph glyph-name="plusminus" unicode="&#xb1;" 
d="M464 409h246v-117h-246v-152h-127v152h-244v117h244v153h127v-153zM93 0v107h617v-107h-617z" />
    <glyph glyph-name="acute" unicode="&#xb4;" horiz-adv-x="600" 
d="M44 573l163 157h196l-198 -157h-161z" />
    <glyph glyph-name="uni00B5" unicode="&#xb5;" horiz-adv-x="889" 
d="M614 500h193v-500h-189v117q-34 -67 -104 -101.5t-162 -34.5q-49 0 -95 11v-187h-175v695h192v-225q0 -84 42 -122t112 -38q92 0 139 49t47 123v213z" />
    <glyph glyph-name="paragraph" unicode="&#xb6;" horiz-adv-x="891" 
d="M362 323q-155 0 -231 47.5t-76 149.5q0 200 328 200h458v-90h-123v-730h-100v730h-155v-730h-101v423z" />
    <glyph glyph-name="periodcentered" unicode="&#xb7;" horiz-adv-x="341" 
d="M275 418v-163h-209v163h209z" />
    <glyph glyph-name="cedilla" unicode="&#xb8;" horiz-adv-x="600" 
d="M145 3h90l-48 -60q31 16 77 16q62 0 96.5 -24.5t34.5 -67.5q0 -46 -46 -71t-128 -25q-113 0 -156 57l92 28q21 -24 65 -24q52 0 52 35t-50 35q-35 0 -52 -16l-94 18z" />
    <glyph glyph-name="ordmasculine" unicode="&#xba;" horiz-adv-x="634" 
d="M318 296q-133 0 -213 53.5t-80 143.5t80 143.5t213 53.5t212 -53.5t79 -143.5q0 -91 -79 -144t-212 -53zM318 394q54 0 88 27t34 72q0 44 -34 71t-88 27q-56 0 -89.5 -27t-33.5 -71q0 -45 33.5 -72t89.5 -27z" />
    <glyph glyph-name="guillemotright" unicode="&#xbb;" horiz-adv-x="789" 
d="M204 67h-184l241 210l-244 205h182l246 -206zM523 67h-184l241 210l-244 205h182l247 -206z" />
    <glyph glyph-name="onequarter" unicode="&#xbc;" horiz-adv-x="1099" 
d="M111 -17l585 744h159l-585 -744h-159zM155 317v251q-32 -26 -102 -26h-30v100h17q97 0 131 68h101v-393h-117zM1083 82h-89v-82h-116v82h-302v74l282 237h136v-231h89v-80zM878 314l-177 -152h177v152z" />
    <glyph glyph-name="onehalf" unicode="&#xbd;" horiz-adv-x="1151" 
d="M111 -17l585 744h159l-585 -744h-159zM155 317v251q-32 -26 -102 -26h-30v100h17q97 0 131 68h101v-393h-117zM644 0v83q198 61 256 91q77 39 77 84q0 29 -27 46t-73 17t-75 -19t-29 -55q0 -11 3 -20l-123 12q-3 12 -3 22q0 66 64.5 106t162.5 40q104 0 165 -36.5
t61 -104.5q0 -115 -233 -174h242v-92h-468z" />
    <glyph glyph-name="threequarters" unicode="&#xbe;" horiz-adv-x="1281" 
d="M293 -17l585 744h159l-585 -744h-159zM264 303q-107 0 -168.5 37t-67.5 104l119 10q15 -67 117 -67q110 0 110 47q0 24 -22 33.5t-77 9.5h-60v76h62q87 0 87 40q0 47 -99 47q-107 0 -115 -69l-118 13q5 66 66 103t168 37q101 0 161 -31t60 -88q0 -38 -28.5 -60t-76.5 -26
q116 -13 116 -91q0 -58 -64 -91.5t-170 -33.5zM1264 82h-89v-82h-116v82h-302v74l282 237h136v-231h89v-80zM1059 314l-177 -152h177v152z" />
    <glyph glyph-name="questiondown" unicode="&#xbf;" horiz-adv-x="802" 
d="M522 580v-156h-215v156h215zM507 378v-30q0 -51 -22 -85.5t-77 -55.5l-95 -38q-45 -18 -65.5 -39.5t-20.5 -58.5q0 -41 43.5 -69t124.5 -28q85 0 135.5 32t50.5 91q0 27 -5 46l198 -17q6 -18 6 -47q0 -107 -104 -170t-281 -63q-168 0 -267 57t-99 156q0 69 36.5 111
t104.5 70l91 38q36 15 49.5 33.5t13.5 45.5v21h183z" />
    <glyph glyph-name="Agrave" unicode="&#xc0;" horiz-adv-x="982" 
d="M570 760h-167l-180 118h196zM755 0l-66 143h-396l-66 -143h-217l355 710h252l354 -710h-216zM353 272h276l-91 195q-24 56 -46 122h-2q-22 -66 -46 -122z" />
    <glyph glyph-name="Aacute" unicode="&#xc1;" horiz-adv-x="982" 
d="M754 878l-180 -118h-167l151 118h196zM755 0l-66 143h-396l-66 -143h-217l355 710h252l354 -710h-216zM353 272h276l-91 195q-24 56 -46 122h-2q-22 -66 -46 -122z" />
    <glyph glyph-name="Acircumflex" unicode="&#xc2;" horiz-adv-x="982" 
d="M491 825l-89 -65h-164l152 118h201l153 -118h-165zM755 0l-66 143h-396l-66 -143h-217l355 710h252l354 -710h-216zM353 272h276l-91 195q-24 56 -46 122h-2q-22 -66 -46 -122z" />
    <glyph glyph-name="Atilde" unicode="&#xc3;" horiz-adv-x="982" 
d="M399 804q-53 0 -67 -53l-99 40q33 114 161 114q52 0 108.5 -24.5t83.5 -24.5q53 0 67 53l99 -41q-33 -113 -161 -113q-52 0 -109 24.5t-83 24.5zM755 0l-66 143h-396l-66 -143h-217l355 710h252l354 -710h-216zM353 272h276l-91 195q-24 56 -46 122h-2q-22 -66 -46 -122z
" />
    <glyph glyph-name="Adieresis" unicode="&#xc4;" horiz-adv-x="982" 
d="M418 878v-118h-181v118h181zM746 878v-118h-181v118h181zM755 0l-66 143h-396l-66 -143h-217l355 710h252l354 -710h-216zM353 272h276l-91 195q-24 56 -46 122h-2q-22 -66 -46 -122z" />
    <glyph glyph-name="Aring" unicode="&#xc5;" horiz-adv-x="982" 
d="M491 742q-65 0 -105 32.5t-40 85.5t40 85.5t105 32.5t105.5 -32.5t40.5 -85.5t-40.5 -85.5t-105.5 -32.5zM491 914q-26 0 -42.5 -15t-16.5 -39q0 -23 16.5 -38t42.5 -15t42.5 15t16.5 38q0 24 -16.5 39t-42.5 15zM755 0l-66 143h-396l-66 -143h-217l355 710h252l354 -710
h-216zM353 272h276l-91 195q-24 56 -46 122h-2q-22 -66 -46 -122z" />
    <glyph glyph-name="AE" unicode="&#xc6;" horiz-adv-x="1487" 
d="M884 141h539v-141h-741v142h-340l-110 -142h-230l593 710h821v-141h-532v-143h515v-132h-515v-153zM439 268h243v314z" />
    <glyph glyph-name="Ccedilla" unicode="&#xc7;" horiz-adv-x="966" 
d="M494 129q192 0 238 144l206 -44q-41 -113 -146 -178t-260 -74l-27 -34q31 16 77 16q62 0 96.5 -24.5t34.5 -67.5q0 -46 -46 -71t-128 -25q-113 0 -156 57l92 28q21 -24 65 -24q52 0 52 35t-50 35q-35 0 -52 -16l-94 18l49 73q-195 11 -309.5 111.5t-114.5 263.5
q0 169 131.5 275.5t341.5 106.5q173 0 291.5 -70.5t153.5 -195.5l-209 -37q-20 73 -81 111.5t-157 38.5q-120 0 -189.5 -61t-69.5 -165q0 -103 70.5 -164.5t190.5 -61.5z" />
    <glyph glyph-name="Egrave" unicode="&#xc8;" horiz-adv-x="880" 
d="M544 760h-167l-180 118h196zM294 141h522v-141h-724v710h717v-141h-515v-143h498v-132h-498v-153z" />
    <glyph glyph-name="Eacute" unicode="&#xc9;" horiz-adv-x="880" 
d="M727 878l-180 -118h-167l151 118h196zM294 141h522v-141h-724v710h717v-141h-515v-143h498v-132h-498v-153z" />
    <glyph glyph-name="Ecircumflex" unicode="&#xca;" horiz-adv-x="880" 
d="M465 825l-89 -65h-164l152 118h201l153 -118h-165zM294 141h522v-141h-724v710h717v-141h-515v-143h498v-132h-498v-153z" />
    <glyph glyph-name="Edieresis" unicode="&#xcb;" horiz-adv-x="880" 
d="M391 878v-118h-181v118h181zM719 878v-118h-181v118h181zM294 141h522v-141h-724v710h717v-141h-515v-143h498v-132h-498v-153z" />
    <glyph glyph-name="Igrave" unicode="&#xcc;" horiz-adv-x="385" 
d="M274 760h-165l-127 118h180zM294 0h-202v710h202v-710z" />
    <glyph glyph-name="Iacute" unicode="&#xcd;" horiz-adv-x="385" 
d="M110 760l112 118h180l-127 -118h-165zM294 0h-202v710h202v-710z" />
    <glyph glyph-name="Icircumflex" unicode="&#xce;" horiz-adv-x="385" 
d="M358 760h-120l-45 74l-44 -74h-120l79 119h171zM294 0h-202v710h202v-710z" />
    <glyph glyph-name="Idieresis" unicode="&#xcf;" horiz-adv-x="385" 
d="M22 760v118h150v-118h-150zM214 760v118h150v-118h-150zM294 0h-202v710h202v-710z" />
    <glyph glyph-name="Eth" unicode="&#xd0;" horiz-adv-x="992" 
d="M543 710q199 0 313.5 -89.5t114.5 -253.5q0 -165 -120 -266t-311 -101h-448v308h-80v114h80v288h451zM514 137q114 0 179.5 60t65.5 167q0 101 -67 155t-180 54h-218v-151h247v-114h-247v-171h220z" />
    <glyph glyph-name="Ntilde" unicode="&#xd1;" horiz-adv-x="1012" 
d="M612 755q-52 0 -109 24.5t-83 24.5q-53 0 -67 -53l-99 40q33 114 161 114q52 0 108.5 -24.5t83.5 -24.5q53 0 67 53l99 -41q-33 -113 -161 -113zM92 0v710h215l371 -403q34 -38 56 -81h4v102v382h183v-710h-201l-385 408q-40 44 -56 81h-4v-99v-390h-183z" />
    <glyph glyph-name="Ograve" unicode="&#xd2;" horiz-adv-x="994" 
d="M576 760h-167l-180 118h196zM497 -24q-217 0 -346.5 103.5t-129.5 275.5q0 173 129.5 276t346.5 103q216 0 346 -103.5t130 -275.5t-130 -275.5t-346 -103.5zM497 126q118 0 191 63t73 166t-73 166t-191 63t-191 -63t-73 -166t73 -166t191 -63z" />
    <glyph glyph-name="Oacute" unicode="&#xd3;" horiz-adv-x="994" 
d="M413 760l151 118h196l-180 -118h-167zM497 -24q-217 0 -346.5 103.5t-129.5 275.5q0 173 129.5 276t346.5 103q216 0 346 -103.5t130 -275.5t-130 -275.5t-346 -103.5zM497 126q118 0 191 63t73 166t-73 166t-191 63t-191 -63t-73 -166t73 -166t191 -63z" />
    <glyph glyph-name="Ocircumflex" unicode="&#xd4;" horiz-adv-x="994" 
d="M750 760h-165l-88 65l-89 -65h-164l152 118h201zM497 -24q-217 0 -346.5 103.5t-129.5 275.5q0 173 129.5 276t346.5 103q216 0 346 -103.5t130 -275.5t-130 -275.5t-346 -103.5zM497 126q118 0 191 63t73 166t-73 166t-191 63t-191 -63t-73 -166t73 -166t191 -63z" />
    <glyph glyph-name="Otilde" unicode="&#xd5;" horiz-adv-x="994" 
d="M597 755q-52 0 -109 24.5t-83 24.5q-53 0 -67 -53l-99 40q33 114 161 114q52 0 108.5 -24.5t83.5 -24.5q53 0 67 53l99 -41q-33 -113 -161 -113zM497 -24q-217 0 -346.5 103.5t-129.5 275.5q0 173 129.5 276t346.5 103q216 0 346 -103.5t130 -275.5t-130 -275.5
t-346 -103.5zM497 126q118 0 191 63t73 166t-73 166t-191 63t-191 -63t-73 -166t73 -166t191 -63z" />
    <glyph glyph-name="Odieresis" unicode="&#xd6;" horiz-adv-x="994" 
d="M243 760v118h181v-118h-181zM571 760v118h181v-118h-181zM497 -24q-217 0 -346.5 103.5t-129.5 275.5q0 173 129.5 276t346.5 103q216 0 346 -103.5t130 -275.5t-130 -275.5t-346 -103.5zM497 126q118 0 191 63t73 166t-73 166t-191 63t-191 -63t-73 -166t73 -166
t191 -63z" />
    <glyph glyph-name="multiply" unicode="&#xd7;" 
d="M698 504l-209 -179l208 -178l-84 -78l-212 182l-212 -181l-84 77l208 178l-208 179l85 77l211 -181l211 181z" />
    <glyph glyph-name="Oslash" unicode="&#xd8;" horiz-adv-x="994" 
d="M859 617q114 -102 114 -262q0 -172 -130 -275.5t-346 -103.5q-172 0 -293 68l-82 -72l-63 55l76 66q-114 102 -114 262q0 173 129.5 276t346.5 103q171 0 293 -67l80 70l64 -54zM233 355q0 -80 45 -136l374 327q-64 38 -155 38q-118 0 -191 -63t-73 -166zM497 126
q118 0 191 63t73 166q0 80 -45 137l-375 -328q67 -38 156 -38z" />
    <glyph glyph-name="Ugrave" unicode="&#xd9;" horiz-adv-x="961" 
d="M560 760h-167l-180 118h196zM63 710h202v-371q0 -92 56.5 -148.5t159.5 -56.5q100 0 157.5 57t57.5 148v371h202v-392q0 -156 -109.5 -249t-307.5 -93t-308 93.5t-110 250.5v390z" />
    <glyph glyph-name="Uacute" unicode="&#xda;" horiz-adv-x="961" 
d="M397 760l151 118h196l-180 -118h-167zM63 710h202v-371q0 -92 56.5 -148.5t159.5 -56.5q100 0 157.5 57t57.5 148v371h202v-392q0 -156 -109.5 -249t-307.5 -93t-308 93.5t-110 250.5v390z" />
    <glyph glyph-name="Ucircumflex" unicode="&#xdb;" horiz-adv-x="961" 
d="M734 760h-165l-88 65l-89 -65h-164l152 118h201zM63 710h202v-371q0 -92 56.5 -148.5t159.5 -56.5q100 0 157.5 57t57.5 148v371h202v-392q0 -156 -109.5 -249t-307.5 -93t-308 93.5t-110 250.5v390z" />
    <glyph glyph-name="Udieresis" unicode="&#xdc;" horiz-adv-x="961" 
d="M227 760v118h181v-118h-181zM555 760v118h181v-118h-181zM63 710h202v-371q0 -92 56.5 -148.5t159.5 -56.5q100 0 157.5 57t57.5 148v371h202v-392q0 -156 -109.5 -249t-307.5 -93t-308 93.5t-110 250.5v390z" />
    <glyph glyph-name="Yacute" unicode="&#xdd;" horiz-adv-x="895" 
d="M367 760l151 118h196l-180 -118h-167zM345 0v241l-354 469h229l205 -289q20 -27 24 -39h2q4 15 23 39l213 289h217l-357 -469v-241h-202z" />
    <glyph glyph-name="Thorn" unicode="&#xde;" horiz-adv-x="831" 
d="M522 607q137 0 214.5 -63t77.5 -178q0 -116 -77.5 -179t-214.5 -63h-228v-124h-202v710h202v-103h228zM467 259q134 0 134 106q0 52 -34 79.5t-100 27.5h-173v-213h173z" />
    <glyph glyph-name="germandbls" unicode="&#xdf;" horiz-adv-x="901" 
d="M81 462q0 133 96 202.5t288 69.5q167 0 262.5 -50t95.5 -143q0 -67 -48 -108t-137 -51q109 -9 169 -56.5t60 -124.5q0 -105 -91 -160.5t-263 -55.5q-73 0 -149 14v124q58 -12 117 -12q184 0 184 100q0 99 -194 99h-103v114h92q160 0 160 94t-163 94q-96 0 -140 -36.5
t-44 -116.5v-459h-192v462z" />
    <glyph glyph-name="agrave" unicode="&#xe0;" horiz-adv-x="834" 
d="M511 573h-162l-198 157h196zM295 -19q-119 0 -184.5 41t-65.5 116t63 114q59 37 196 45l262 15v12q0 41 -37.5 62.5t-105.5 21.5t-109.5 -20.5t-49.5 -58.5h-205q15 87 113.5 138.5t250.5 51.5q173 0 255 -56t82 -169v-138q0 -96 9 -156h-192q-5 30 -7 92
q-63 -111 -275 -111zM367 88q90 0 145.5 33.5t55.5 90.5v17l-201 -14q-68 -5 -95.5 -19.5t-27.5 -44.5q0 -63 123 -63z" />
    <glyph glyph-name="aacute" unicode="&#xe1;" horiz-adv-x="834" 
d="M338 573l163 157h196l-198 -157h-161zM295 -19q-119 0 -184.5 41t-65.5 116t63 114q59 37 196 45l262 15v12q0 41 -37.5 62.5t-105.5 21.5t-109.5 -20.5t-49.5 -58.5h-205q15 87 113.5 138.5t250.5 51.5q173 0 255 -56t82 -169v-138q0 -96 9 -156h-192q-5 30 -7 92
q-63 -111 -275 -111zM367 88q90 0 145.5 33.5t55.5 90.5v17l-201 -14q-68 -5 -95.5 -19.5t-27.5 -44.5q0 -63 123 -63z" />
    <glyph glyph-name="acircumflex" unicode="&#xe2;" horiz-adv-x="834" 
d="M680 573h-154l-102 101l-102 -101h-154l156 157h200zM295 -19q-119 0 -184.5 41t-65.5 116t63 114q59 37 196 45l262 15v12q0 41 -37.5 62.5t-105.5 21.5t-109.5 -20.5t-49.5 -58.5h-205q15 87 113.5 138.5t250.5 51.5q173 0 255 -56t82 -169v-138q0 -96 9 -156h-192
q-5 30 -7 92q-63 -111 -275 -111zM367 88q90 0 145.5 33.5t55.5 90.5v17l-201 -14q-68 -5 -95.5 -19.5t-27.5 -44.5q0 -63 123 -63z" />
    <glyph glyph-name="atilde" unicode="&#xe3;" horiz-adv-x="834" 
d="M534 584q-55 0 -115.5 29.5t-89.5 29.5q-55 0 -70 -63l-102 41q28 124 158 124q55 0 116 -29.5t89 -29.5q55 0 70 63l102 -41q-29 -124 -158 -124zM295 -19q-119 0 -184.5 41t-65.5 116t63 114q59 37 196 45l262 15v12q0 41 -37.5 62.5t-105.5 21.5t-109.5 -20.5
t-49.5 -58.5h-205q15 87 113.5 138.5t250.5 51.5q173 0 255 -56t82 -169v-138q0 -96 9 -156h-192q-5 30 -7 92q-63 -111 -275 -111zM367 88q90 0 145.5 33.5t55.5 90.5v17l-201 -14q-68 -5 -95.5 -19.5t-27.5 -44.5q0 -63 123 -63z" />
    <glyph glyph-name="adieresis" unicode="&#xe4;" horiz-adv-x="834" 
d="M169 579v143h181v-143h-181zM500 579v143h181v-143h-181zM295 -19q-119 0 -184.5 41t-65.5 116t63 114q59 37 196 45l262 15v12q0 41 -37.5 62.5t-105.5 21.5t-109.5 -20.5t-49.5 -58.5h-205q15 87 113.5 138.5t250.5 51.5q173 0 255 -56t82 -169v-138q0 -96 9 -156h-192
q-5 30 -7 92q-63 -111 -275 -111zM367 88q90 0 145.5 33.5t55.5 90.5v17l-201 -14q-68 -5 -95.5 -19.5t-27.5 -44.5q0 -63 123 -63z" />
    <glyph glyph-name="aring" unicode="&#xe5;" horiz-adv-x="834" 
d="M424 557q-87 0 -135.5 32.5t-48.5 88.5q0 55 48.5 88t135.5 33q88 0 136.5 -33t48.5 -88q0 -56 -48.5 -88.5t-136.5 -32.5zM424 623q43 0 66.5 15t23.5 40t-23.5 40t-66.5 15t-66 -15t-23 -40t23 -40t66 -15zM295 -19q-119 0 -184.5 41t-65.5 116t63 114q59 37 196 45
l262 15v12q0 41 -37.5 62.5t-105.5 21.5t-109.5 -20.5t-49.5 -58.5h-205q15 87 113.5 138.5t250.5 51.5q173 0 255 -56t82 -169v-138q0 -96 9 -156h-192q-5 30 -7 92q-63 -111 -275 -111zM367 88q90 0 145.5 33.5t55.5 90.5v17l-201 -14q-68 -5 -95.5 -19.5t-27.5 -44.5
q0 -63 123 -63z" />
    <glyph glyph-name="ae" unicode="&#xe6;" horiz-adv-x="1287" 
d="M1259 238v-29h-521q10 -51 57 -79t124 -28q117 0 175 75l146 -65q-102 -131 -328 -131q-213 0 -305 111q-87 -111 -297 -111q-127 0 -196 40.5t-69 115.5q0 71 64.5 111t189.5 44l248 9v12q0 93 -134 93q-67 0 -107.5 -21t-45.5 -59h-201q12 88 108.5 140.5t247.5 52.5
q168 0 242 -67q91 67 249 67q167 0 260 -74t93 -207zM737 308h331q-4 48 -49 77.5t-113 29.5q-73 0 -117 -27.5t-52 -79.5zM549 206v16l-198 -8q-107 -3 -107 -64t120 -61q83 0 134 32t51 85z" />
    <glyph glyph-name="ccedilla" unicode="&#xe7;" horiz-adv-x="807" 
d="M404 110q144 0 174 94l202 -30q-22 -83 -111 -134t-223 -58l-31 -39q31 16 77 16q62 0 96.5 -24.5t34.5 -67.5q0 -46 -46 -71t-128 -25q-113 0 -156 57l92 28q21 -24 65 -24q52 0 52 35t-50 35q-35 0 -52 -16l-94 18l53 79q-155 10 -245 82t-90 187q0 125 103 196t283 71
q152 0 248.5 -50.5t121.5 -143.5l-203 -27q-31 93 -173 93q-84 0 -132 -37t-48 -101t49.5 -103.5t130.5 -39.5z" />
    <glyph glyph-name="egrave" unicode="&#xe8;" horiz-adv-x="795" 
d="M484 573h-162l-198 157h196zM767 236v-27h-558q11 -51 62.5 -79t136.5 -28q134 0 194 74l146 -64q-108 -131 -348 -131q-176 0 -276 70.5t-100 195.5q0 128 100.5 200t270.5 72q176 0 274 -75t98 -208zM576 307v1q-2 47 -52.5 77t-129.5 30t-128 -29t-58 -79h368z" />
    <glyph glyph-name="eacute" unicode="&#xe9;" horiz-adv-x="795" 
d="M669 730l-198 -157h-161l163 157h196zM767 236v-27h-558q11 -51 62.5 -79t136.5 -28q134 0 194 74l146 -64q-108 -131 -348 -131q-176 0 -276 70.5t-100 195.5q0 128 100.5 200t270.5 72q176 0 274 -75t98 -208zM576 307v1q-2 47 -52.5 77t-129.5 30t-128 -29t-58 -79
h368z" />
    <glyph glyph-name="ecircumflex" unicode="&#xea;" horiz-adv-x="795" 
d="M397 674l-102 -101h-154l156 157h200l156 -157h-154zM767 236v-27h-558q11 -51 62.5 -79t136.5 -28q134 0 194 74l146 -64q-108 -131 -348 -131q-176 0 -276 70.5t-100 195.5q0 128 100.5 200t270.5 72q176 0 274 -75t98 -208zM576 307v1q-2 47 -52.5 77t-129.5 30
t-128 -29t-58 -79h368z" />
    <glyph glyph-name="edieresis" unicode="&#xeb;" horiz-adv-x="795" 
d="M322 722v-143h-181v143h181zM653 722v-143h-181v143h181zM767 236v-27h-558q11 -51 62.5 -79t136.5 -28q134 0 194 74l146 -64q-108 -131 -348 -131q-176 0 -276 70.5t-100 195.5q0 128 100.5 200t270.5 72q176 0 274 -75t98 -208zM576 307v1q-2 47 -52.5 77t-129.5 30
t-128 -29t-58 -79h368z" />
    <glyph glyph-name="igrave" unicode="&#xec;" horiz-adv-x="356" 
d="M256 573h-157l-126 157h176zM82 0v500h192v-500h-192z" />
    <glyph glyph-name="iacute" unicode="&#xed;" horiz-adv-x="356" 
d="M99 573l107 157h177l-126 -157h-158zM82 0v500h192v-500h-192z" />
    <glyph glyph-name="icircumflex" unicode="&#xee;" horiz-adv-x="356" 
d="M336 573h-113l-45 107l-44 -107h-113l77 158h161zM82 0v500h192v-500h-192z" />
    <glyph glyph-name="idieresis" unicode="&#xef;" horiz-adv-x="356" 
d="M-2 579v143h156v-143h-156zM203 579v143h156v-143h-156zM82 0v500h192v-500h-192z" />
    <glyph glyph-name="eth" unicode="&#xf0;" horiz-adv-x="852" 
d="M667 622q139 -131 139 -328q0 -142 -107 -227.5t-298 -85.5t-284 69.5t-93 191.5q0 112 88.5 183t238.5 71q169 0 254 -102h2q-20 97 -128 176l-148 -41l-21 49l109 30q-45 25 -102 49l175 81q69 -33 126 -75l110 31l20 -49zM415 111q92 0 143.5 36t51.5 96t-52.5 98
t-142.5 38q-92 0 -141.5 -37.5t-49.5 -98.5q0 -60 49 -96t142 -36z" />
    <glyph glyph-name="ntilde" unicode="&#xf1;" horiz-adv-x="882" 
d="M602 584q-55 0 -115.5 29.5t-89.5 29.5q-55 0 -70 -63l-102 41q28 124 158 124q55 0 116 -29.5t89 -29.5q55 0 70 63l102 -41q-29 -124 -158 -124zM82 0v500h189v-116q71 135 266 135q137 0 208.5 -72t71.5 -210v-237h-192v208q0 173 -166 173q-88 0 -136.5 -45.5
t-48.5 -128.5v-207h-192z" />
    <glyph glyph-name="ograve" unicode="&#xf2;" horiz-adv-x="822" 
d="M498 573h-162l-198 157h196zM411 -19q-175 0 -281 73.5t-106 195.5q0 123 106 196t281 73t281.5 -73t106.5 -196q0 -122 -106.5 -195.5t-281.5 -73.5zM411 104q85 0 136.5 39.5t51.5 106.5t-51.5 106.5t-136.5 39.5t-136.5 -39.5t-51.5 -106.5t51.5 -106.5t136.5 -39.5z
" />
    <glyph glyph-name="oacute" unicode="&#xf3;" horiz-adv-x="822" 
d="M325 573l163 157h196l-198 -157h-161zM411 -19q-175 0 -281 73.5t-106 195.5q0 123 106 196t281 73t281.5 -73t106.5 -196q0 -122 -106.5 -195.5t-281.5 -73.5zM411 104q85 0 136.5 39.5t51.5 106.5t-51.5 106.5t-136.5 39.5t-136.5 -39.5t-51.5 -106.5t51.5 -106.5
t136.5 -39.5z" />
    <glyph glyph-name="ocircumflex" unicode="&#xf4;" horiz-adv-x="822" 
d="M667 573h-154l-102 101l-102 -101h-154l156 157h200zM411 -19q-175 0 -281 73.5t-106 195.5q0 123 106 196t281 73t281.5 -73t106.5 -196q0 -122 -106.5 -195.5t-281.5 -73.5zM411 104q85 0 136.5 39.5t51.5 106.5t-51.5 106.5t-136.5 39.5t-136.5 -39.5t-51.5 -106.5
t51.5 -106.5t136.5 -39.5z" />
    <glyph glyph-name="otilde" unicode="&#xf5;" horiz-adv-x="822" 
d="M520 584q-55 0 -115.5 29.5t-89.5 29.5q-55 0 -70 -63l-102 41q28 124 158 124q55 0 116 -29.5t89 -29.5q55 0 70 63l102 -41q-29 -124 -158 -124zM411 -19q-175 0 -281 73.5t-106 195.5q0 123 106 196t281 73t281.5 -73t106.5 -196q0 -122 -106.5 -195.5t-281.5 -73.5z
M411 104q85 0 136.5 39.5t51.5 106.5t-51.5 106.5t-136.5 39.5t-136.5 -39.5t-51.5 -106.5t51.5 -106.5t136.5 -39.5z" />
    <glyph glyph-name="odieresis" unicode="&#xf6;" horiz-adv-x="822" 
d="M155 579v143h181v-143h-181zM486 579v143h181v-143h-181zM411 -19q-175 0 -281 73.5t-106 195.5q0 123 106 196t281 73t281.5 -73t106.5 -196q0 -122 -106.5 -195.5t-281.5 -73.5zM411 104q85 0 136.5 39.5t51.5 106.5t-51.5 106.5t-136.5 39.5t-136.5 -39.5
t-51.5 -106.5t51.5 -106.5t136.5 -39.5z" />
    <glyph glyph-name="divide" unicode="&#xf7;" horiz-adv-x="709" 
d="M353 445q-33 0 -55 21.5t-22 55.5t22 56t55 22q34 0 56.5 -21.5t22.5 -56.5q0 -34 -22.5 -55.5t-56.5 -21.5zM46 269v118h617v-118h-617zM353 53q-33 0 -55 21.5t-22 55.5t22 56t55 22q34 0 56.5 -21.5t22.5 -56.5q0 -34 -22.5 -55.5t-56.5 -21.5z" />
    <glyph glyph-name="oslash" unicode="&#xf8;" horiz-adv-x="822" 
d="M715 428q84 -70 84 -178q0 -122 -106.5 -195.5t-281.5 -73.5q-141 0 -241 50l-87 -64l-50 48l76 56q-85 71 -85 179q0 123 106 196t281 73q143 0 243 -50l86 63l49 -50zM223 250q0 -44 24 -78l275 200q-45 24 -111 24q-85 0 -136.5 -39.5t-51.5 -106.5zM411 104
q85 0 136.5 39.5t51.5 106.5q0 43 -23 77l-274 -200q46 -23 109 -23z" />
    <glyph glyph-name="ugrave" unicode="&#xf9;" horiz-adv-x="871" 
d="M510 573h-162l-198 157h196zM335 -19q-129 0 -200 64t-71 184v271h193v-225q0 -160 154 -160q91 0 138.5 49.5t47.5 122.5v213h192v-500h-189v117q-33 -66 -103.5 -101t-161.5 -35z" />
    <glyph glyph-name="uacute" unicode="&#xfa;" horiz-adv-x="871" 
d="M337 573l163 157h196l-198 -157h-161zM335 -19q-129 0 -200 64t-71 184v271h193v-225q0 -160 154 -160q91 0 138.5 49.5t47.5 122.5v213h192v-500h-189v117q-33 -66 -103.5 -101t-161.5 -35z" />
    <glyph glyph-name="ucircumflex" unicode="&#xfb;" horiz-adv-x="871" 
d="M679 573h-154l-102 101l-102 -101h-154l156 157h200zM335 -19q-129 0 -200 64t-71 184v271h193v-225q0 -160 154 -160q91 0 138.5 49.5t47.5 122.5v213h192v-500h-189v117q-33 -66 -103.5 -101t-161.5 -35z" />
    <glyph glyph-name="udieresis" unicode="&#xfc;" horiz-adv-x="871" 
d="M167 579v143h181v-143h-181zM498 579v143h181v-143h-181zM335 -19q-129 0 -200 64t-71 184v271h193v-225q0 -160 154 -160q91 0 138.5 49.5t47.5 122.5v213h192v-500h-189v117q-33 -66 -103.5 -101t-161.5 -35z" />
    <glyph glyph-name="yacute" unicode="&#xfd;" horiz-adv-x="773" 
d="M301 573l163 157h196l-198 -157h-161zM168 -214q-64 0 -119 11v143q54 -10 95 -10q44 0 87.5 16.5t64.5 44.5l2 6l-304 503h215l158 -299q17 -34 25 -57h4q5 13 24 54l152 302h207l-291 -524q-54 -101 -128.5 -145.5t-191.5 -44.5z" />
    <glyph glyph-name="thorn" unicode="&#xfe;" horiz-adv-x="880" 
d="M87 -195v920h192v-310q85 104 263 104q142 0 228 -73.5t86 -193.5q0 -121 -89 -196t-232 -75q-168 0 -256 99v-275h-192zM469 104q87 0 137 40t50 109q0 67 -49.5 105.5t-135.5 38.5q-87 0 -141.5 -38.5t-54.5 -100.5v-10q0 -65 53.5 -104.5t140.5 -39.5z" />
    <glyph glyph-name="ydieresis" unicode="&#xff;" horiz-adv-x="773" 
d="M132 579v143h181v-143h-181zM463 579v143h181v-143h-181zM168 -214q-64 0 -119 11v143q54 -10 95 -10q44 0 87.5 16.5t64.5 44.5l2 6l-304 503h215l158 -299q17 -34 25 -57h4q5 13 24 54l152 302h207l-291 -524q-54 -101 -128.5 -145.5t-191.5 -44.5z" />
    <glyph glyph-name="Amacron" unicode="&#x100;" horiz-adv-x="982" 
d="M736 863v-102h-490v102h490zM755 0l-66 143h-396l-66 -143h-217l355 710h252l354 -710h-216zM353 272h276l-91 195q-24 56 -46 122h-2q-22 -66 -46 -122z" />
    <glyph glyph-name="amacron" unicode="&#x101;" horiz-adv-x="834" 
d="M176 593v104h497v-104h-497zM295 -19q-119 0 -184.5 41t-65.5 116t63 114q59 37 196 45l262 15v12q0 41 -37.5 62.5t-105.5 21.5t-109.5 -20.5t-49.5 -58.5h-205q15 87 113.5 138.5t250.5 51.5q173 0 255 -56t82 -169v-138q0 -96 9 -156h-192q-5 30 -7 92
q-63 -111 -275 -111zM367 88q90 0 145.5 33.5t55.5 90.5v17l-201 -14q-68 -5 -95.5 -19.5t-27.5 -44.5q0 -63 123 -63z" />
    <glyph glyph-name="Abreve" unicode="&#x102;" horiz-adv-x="982" 
d="M491 755q-93 0 -152.5 32t-66.5 91h124q12 -45 95 -45q86 0 96 45h124q-7 -59 -66.5 -91t-153.5 -32zM755 0l-66 143h-396l-66 -143h-217l355 710h252l354 -710h-216zM353 272h276l-91 195q-24 56 -46 122h-2q-22 -66 -46 -122z" />
    <glyph glyph-name="abreve" unicode="&#x103;" horiz-adv-x="834" 
d="M332 730q9 -78 93 -78q83 0 92 78h130q-7 -80 -65 -121t-157 -41q-100 0 -158 41t-65 121h130zM295 -19q-119 0 -184.5 41t-65.5 116t63 114q59 37 196 45l262 15v12q0 41 -37.5 62.5t-105.5 21.5t-109.5 -20.5t-49.5 -58.5h-205q15 87 113.5 138.5t250.5 51.5
q173 0 255 -56t82 -169v-138q0 -96 9 -156h-192q-5 30 -7 92q-63 -111 -275 -111zM367 88q90 0 145.5 33.5t55.5 90.5v17l-201 -14q-68 -5 -95.5 -19.5t-27.5 -44.5q0 -63 123 -63z" />
    <glyph glyph-name="Aogonek" unicode="&#x104;" horiz-adv-x="982" 
d="M866 -90l115 -16q-8 -48 -55.5 -75t-125.5 -27q-76 0 -120 27t-44 74q0 80 117 111l-64 139h-396l-66 -143h-217l355 710h252l354 -710h-56q-76 -7 -112.5 -32t-36.5 -57q0 -19 13 -31.5t33 -12.5q42 0 54 43zM353 272h276l-91 195q-24 56 -46 122h-2q-22 -66 -46 -122z
" />
    <glyph glyph-name="aogonek" unicode="&#x105;" horiz-adv-x="834" 
d="M689 -90l115 -16q-8 -48 -55.5 -75t-125.5 -27q-76 0 -120 27t-44 74q0 79 117 112q-4 32 -6 87q-63 -111 -275 -111q-119 0 -184.5 41t-65.5 116t63 114q59 37 196 45l262 15v12q0 41 -37.5 62.5t-105.5 21.5t-109.5 -20.5t-49.5 -58.5h-205q15 87 113.5 138.5
t250.5 51.5q173 0 255 -56t82 -169v-138q0 -96 9 -156h-31q-76 -7 -112.5 -32t-36.5 -57q0 -19 13 -31.5t33 -12.5q42 0 54 43zM568 212v17l-201 -14q-68 -5 -95.5 -19.5t-27.5 -44.5q0 -63 123 -63q90 0 145.5 33.5t55.5 90.5z" />
    <glyph glyph-name="Cacute" unicode="&#x106;" horiz-adv-x="966" 
d="M407 760l151 118h196l-180 -118h-167zM486 -24q-213 0 -339 102.5t-126 273.5q0 169 131.5 275.5t341.5 106.5q173 0 291.5 -70.5t153.5 -195.5l-209 -37q-20 73 -81 111.5t-157 38.5q-120 0 -189.5 -61t-69.5 -165q0 -103 70.5 -164.5t190.5 -61.5q192 0 238 144
l206 -44q-44 -121 -161.5 -187t-290.5 -66z" />
    <glyph glyph-name="cacute" unicode="&#x107;" horiz-adv-x="807" 
d="M319 573l163 157h196l-198 -157h-161zM408 -19q-177 0 -280.5 73t-103.5 198t103 196t283 71q152 0 248.5 -50.5t121.5 -143.5l-203 -27q-31 93 -173 93q-84 0 -132 -37t-48 -101t49.5 -103.5t130.5 -39.5q144 0 174 94l202 -30q-24 -89 -124 -141t-248 -52z" />
    <glyph glyph-name="Ccircumflex" unicode="&#x108;" horiz-adv-x="966" 
d="M745 760h-165l-88 65l-89 -65h-164l152 118h201zM486 -24q-213 0 -339 102.5t-126 273.5q0 169 131.5 275.5t341.5 106.5q173 0 291.5 -70.5t153.5 -195.5l-209 -37q-20 73 -81 111.5t-157 38.5q-120 0 -189.5 -61t-69.5 -165q0 -103 70.5 -164.5t190.5 -61.5
q192 0 238 144l206 -44q-44 -121 -161.5 -187t-290.5 -66z" />
    <glyph glyph-name="ccircumflex" unicode="&#x109;" horiz-adv-x="807" 
d="M661 573h-154l-102 101l-102 -101h-154l156 157h200zM408 -19q-177 0 -280.5 73t-103.5 198t103 196t283 71q152 0 248.5 -50.5t121.5 -143.5l-203 -27q-31 93 -173 93q-84 0 -132 -37t-48 -101t49.5 -103.5t130.5 -39.5q144 0 174 94l202 -30q-24 -89 -124 -141
t-248 -52z" />
    <glyph glyph-name="Cdotaccent" unicode="&#x10a;" horiz-adv-x="966" 
d="M390 760v118h203v-118h-203zM486 -24q-213 0 -339 102.5t-126 273.5q0 169 131.5 275.5t341.5 106.5q173 0 291.5 -70.5t153.5 -195.5l-209 -37q-20 73 -81 111.5t-157 38.5q-120 0 -189.5 -61t-69.5 -165q0 -103 70.5 -164.5t190.5 -61.5q192 0 238 144l206 -44
q-44 -121 -161.5 -187t-290.5 -66z" />
    <glyph glyph-name="cdotaccent" unicode="&#x10b;" horiz-adv-x="807" 
d="M304 573v154h203v-154h-203zM408 -19q-177 0 -280.5 73t-103.5 198t103 196t283 71q152 0 248.5 -50.5t121.5 -143.5l-203 -27q-31 93 -173 93q-84 0 -132 -37t-48 -101t49.5 -103.5t130.5 -39.5q144 0 174 94l202 -30q-24 -89 -124 -141t-248 -52z" />
    <glyph glyph-name="Ccaron" unicode="&#x10c;" horiz-adv-x="966" 
d="M744 873l-152 -118h-201l-153 118h165l88 -65l89 65h164zM486 -24q-213 0 -339 102.5t-126 273.5q0 169 131.5 275.5t341.5 106.5q173 0 291.5 -70.5t153.5 -195.5l-209 -37q-20 73 -81 111.5t-157 38.5q-120 0 -189.5 -61t-69.5 -165q0 -103 70.5 -164.5t190.5 -61.5
q192 0 238 144l206 -44q-44 -121 -161.5 -187t-290.5 -66z" />
    <glyph glyph-name="ccaron" unicode="&#x10d;" horiz-adv-x="807" 
d="M149 725h154l102 -101l102 101h154l-156 -157h-200zM408 -19q-177 0 -280.5 73t-103.5 198t103 196t283 71q152 0 248.5 -50.5t121.5 -143.5l-203 -27q-31 93 -173 93q-84 0 -132 -37t-48 -101t49.5 -103.5t130.5 -39.5q144 0 174 94l202 -30q-24 -89 -124 -141t-248 -52
z" />
    <glyph glyph-name="Dcaron" unicode="&#x10e;" horiz-adv-x="992" 
d="M752 873l-152 -118h-201l-153 118h165l88 -65l89 65h164zM92 0v710h451q199 0 313.5 -89.5t114.5 -253.5q0 -165 -120 -266t-311 -101h-448zM294 137h220q114 0 179.5 60t65.5 167q0 101 -67 155t-180 54h-218v-436z" />
    <glyph glyph-name="dcaron" unicode="&#x10f;" horiz-adv-x="985" 
d="M339 -19q-139 0 -227 75.5t-88 196.5q0 119 89 192.5t233 73.5q167 0 255 -93v299h192v-725h-187v98q-85 -117 -267 -117zM894 520l-25 52q58 7 63 38h-93v100h181v-69q0 -106 -126 -121zM411 104q85 0 139.5 39t54.5 102v12q0 62 -55.5 101t-142.5 39q-85 0 -134 -38.5
t-49 -106.5t50.5 -108t136.5 -40z" />
    <glyph glyph-name="Dcroat" unicode="&#x110;" horiz-adv-x="992" 
d="M543 710q199 0 313.5 -89.5t114.5 -253.5q0 -165 -120 -266t-311 -101h-448v308h-80v114h80v288h451zM514 137q114 0 179.5 60t65.5 167q0 101 -67 155t-180 54h-218v-151h247v-114h-247v-171h220z" />
    <glyph glyph-name="dcroat" unicode="&#x111;" horiz-adv-x="880" 
d="M896 657v-88h-103v-569h-187v98q-85 -117 -267 -117q-139 0 -227 75.5t-88 196.5q0 119 89 192.5t233 73.5q167 0 255 -93v143h-247v88h247v68h192v-68h103zM605 245v12q0 62 -55.5 101t-142.5 39q-85 0 -134 -38.5t-49 -106.5t50.5 -108t136.5 -40q85 0 139.5 39
t54.5 102z" />
    <glyph glyph-name="Emacron" unicode="&#x112;" horiz-adv-x="880" 
d="M709 863v-102h-490v102h490zM294 141h522v-141h-724v710h717v-141h-515v-143h498v-132h-498v-153z" />
    <glyph glyph-name="emacron" unicode="&#x113;" horiz-adv-x="795" 
d="M645 697v-104h-497v104h497zM767 236v-27h-558q11 -51 62.5 -79t136.5 -28q134 0 194 74l146 -64q-108 -131 -348 -131q-176 0 -276 70.5t-100 195.5q0 128 100.5 200t270.5 72q176 0 274 -75t98 -208zM576 307v1q-2 47 -52.5 77t-129.5 30t-128 -29t-58 -79h368z" />
    <glyph glyph-name="Ebreve" unicode="&#x114;" horiz-adv-x="880" 
d="M464 755q-93 0 -152.5 32t-66.5 91h124q12 -45 95 -45q86 0 96 45h124q-7 -59 -66.5 -91t-153.5 -32zM294 141h522v-141h-724v710h717v-141h-515v-143h498v-132h-498v-153z" />
    <glyph glyph-name="ebreve" unicode="&#x115;" horiz-adv-x="795" 
d="M397 568q-100 0 -158 41t-65 121h130q9 -78 93 -78q83 0 92 78h130q-7 -80 -65 -121t-157 -41zM767 236v-27h-558q11 -51 62.5 -79t136.5 -28q134 0 194 74l146 -64q-108 -131 -348 -131q-176 0 -276 70.5t-100 195.5q0 128 100.5 200t270.5 72q176 0 274 -75t98 -208z
M576 307v1q-2 47 -52.5 77t-129.5 30t-128 -29t-58 -79h368z" />
    <glyph glyph-name="Edotaccent" unicode="&#x116;" horiz-adv-x="880" 
d="M566 878v-118h-203v118h203zM294 141h522v-141h-724v710h717v-141h-515v-143h498v-132h-498v-153z" />
    <glyph glyph-name="edotaccent" unicode="&#x117;" horiz-adv-x="795" 
d="M498 727v-154h-203v154h203zM767 236v-27h-558q11 -51 62.5 -79t136.5 -28q134 0 194 74l146 -64q-108 -131 -348 -131q-176 0 -276 70.5t-100 195.5q0 128 100.5 200t270.5 72q176 0 274 -75t98 -208zM576 307v1q-2 47 -52.5 77t-129.5 30t-128 -29t-58 -79h368z" />
    <glyph glyph-name="Eogonek" unicode="&#x118;" horiz-adv-x="880" 
d="M767 -90l115 -16q-8 -48 -55.5 -75t-125.5 -27q-76 0 -120 27t-44 74q0 74 102 107h-547v710h717v-141h-515v-143h498v-132h-498v-153h522v-141q-76 -7 -112.5 -32t-36.5 -57q0 -19 13 -31.5t33 -12.5q42 0 54 43z" />
    <glyph glyph-name="eogonek" unicode="&#x119;" horiz-adv-x="795" 
d="M767 236v-27h-558q11 -51 62.5 -79t136.5 -28q134 0 194 74l146 -64q-84 -103 -254 -125q-62 -25 -62 -70q0 -19 13 -31.5t33 -12.5q42 0 54 43l115 -16q-8 -48 -55.5 -75t-125.5 -27q-76 0 -120 27t-44 74q0 53 50 83q-155 10 -241.5 79.5t-86.5 185.5q0 128 100.5 200
t270.5 72q176 0 274 -75t98 -208zM576 307v1q-2 47 -52.5 77t-129.5 30t-128 -29t-58 -79h368z" />
    <glyph glyph-name="Ecaron" unicode="&#x11a;" horiz-adv-x="880" 
d="M565 755h-201l-153 118h165l88 -65l89 65h164zM294 141h522v-141h-724v710h717v-141h-515v-143h498v-132h-498v-153z" />
    <glyph glyph-name="ecaron" unicode="&#x11b;" horiz-adv-x="795" 
d="M497 568h-200l-156 157h154l102 -101l102 101h154zM767 236v-27h-558q11 -51 62.5 -79t136.5 -28q134 0 194 74l146 -64q-108 -131 -348 -131q-176 0 -276 70.5t-100 195.5q0 128 100.5 200t270.5 72q176 0 274 -75t98 -208zM576 307v1q-2 47 -52.5 77t-129.5 30
t-128 -29t-58 -79h368z" />
    <glyph glyph-name="Gcircumflex" unicode="&#x11c;" horiz-adv-x="984" 
d="M754 760h-165l-88 65l-89 -65h-164l152 118h201zM438 -24q-192 0 -304.5 103.5t-112.5 267.5q0 169 128.5 278t343.5 109q168 0 285 -62.5t150 -169.5l-218 -36q-21 55 -78 88.5t-145 33.5q-120 0 -187.5 -64.5t-67.5 -174.5q0 -105 68.5 -168.5t188.5 -63.5
q111 0 178 44t72 107v3h-268v125h456v-396h-154l-9 122q-38 -63 -119.5 -104.5t-206.5 -41.5z" />
    <glyph glyph-name="gcircumflex" unicode="&#x11d;" horiz-adv-x="830" 
d="M397 683l-102 -82h-154l156 129h200l156 -129h-154zM803 469q-27 6 -60 6q-46 0 -72 -14q65 -43 65 -114q0 -83 -88.5 -130t-246.5 -47q-97 0 -168 18q-29 -9 -29 -30q0 -34 61 -34l320 -1q111 -1 163 -37t52 -111q0 -98 -100 -143.5t-319 -45.5q-179 0 -263 29.5
t-84 91.5q0 65 91 87q-81 31 -81 97q0 44 33.5 74t94.5 44q-106 47 -106 138q0 82 87.5 127t247.5 45q113 0 191 -23q27 97 163 97q25 0 48 -4v-120zM401 261q66 0 102.5 22.5t36.5 63.5q0 81 -139 81t-139 -81q0 -41 36.5 -63.5t102.5 -22.5zM565 -22h-340q-18 0 -26 1
q-21 -16 -21 -39q0 -38 52 -53.5t167 -15.5q140 0 190.5 14t50.5 50q0 43 -73 43z" />
    <glyph glyph-name="Gbreve" unicode="&#x11e;" horiz-adv-x="984" 
d="M406 878q12 -45 95 -45q86 0 96 45h124q-7 -59 -66.5 -91t-153.5 -32q-93 0 -152.5 32t-66.5 91h124zM438 -24q-192 0 -304.5 103.5t-112.5 267.5q0 169 128.5 278t343.5 109q168 0 285 -62.5t150 -169.5l-218 -36q-21 55 -78 88.5t-145 33.5q-120 0 -187.5 -64.5
t-67.5 -174.5q0 -105 68.5 -168.5t188.5 -63.5q111 0 178 44t72 107v3h-268v125h456v-396h-154l-9 122q-38 -63 -119.5 -104.5t-206.5 -41.5z" />
    <glyph glyph-name="gbreve" unicode="&#x11f;" horiz-adv-x="830" 
d="M398 568q-100 0 -158 41t-65 121h130q9 -78 93 -78q83 0 92 78h130q-7 -80 -65 -121t-157 -41zM803 469q-27 6 -60 6q-46 0 -72 -14q65 -43 65 -114q0 -83 -88.5 -130t-246.5 -47q-97 0 -168 18q-29 -9 -29 -30q0 -34 61 -34l320 -1q111 -1 163 -37t52 -111
q0 -98 -100 -143.5t-319 -45.5q-179 0 -263 29.5t-84 91.5q0 65 91 87q-81 31 -81 97q0 44 33.5 74t94.5 44q-106 47 -106 138q0 82 87.5 127t247.5 45q113 0 191 -23q27 97 163 97q25 0 48 -4v-120zM401 261q66 0 102.5 22.5t36.5 63.5q0 81 -139 81t-139 -81
q0 -41 36.5 -63.5t102.5 -22.5zM565 -22h-340q-18 0 -26 1q-21 -16 -21 -39q0 -38 52 -53.5t167 -15.5q140 0 190.5 14t50.5 50q0 43 -73 43z" />
    <glyph glyph-name="Gdotaccent" unicode="&#x120;" horiz-adv-x="984" 
d="M400 760v118h203v-118h-203zM438 -24q-192 0 -304.5 103.5t-112.5 267.5q0 169 128.5 278t343.5 109q168 0 285 -62.5t150 -169.5l-218 -36q-21 55 -78 88.5t-145 33.5q-120 0 -187.5 -64.5t-67.5 -174.5q0 -105 68.5 -168.5t188.5 -63.5q111 0 178 44t72 107v3h-268v125
h456v-396h-154l-9 122q-38 -63 -119.5 -104.5t-206.5 -41.5z" />
    <glyph glyph-name="gdotaccent" unicode="&#x121;" horiz-adv-x="830" 
d="M498 727v-154h-203v154h203zM803 469q-27 6 -60 6q-46 0 -72 -14q65 -43 65 -114q0 -83 -88.5 -130t-246.5 -47q-97 0 -168 18q-29 -9 -29 -30q0 -34 61 -34l320 -1q111 -1 163 -37t52 -111q0 -98 -100 -143.5t-319 -45.5q-179 0 -263 29.5t-84 91.5q0 65 91 87
q-81 31 -81 97q0 44 33.5 74t94.5 44q-106 47 -106 138q0 82 87.5 127t247.5 45q113 0 191 -23q27 97 163 97q25 0 48 -4v-120zM401 261q66 0 102.5 22.5t36.5 63.5q0 81 -139 81t-139 -81q0 -41 36.5 -63.5t102.5 -22.5zM565 -22h-340q-18 0 -26 1q-21 -16 -21 -39
q0 -38 52 -53.5t167 -15.5q140 0 190.5 14t50.5 50q0 43 -73 43z" />
    <glyph glyph-name="uni0122" unicode="&#x122;" horiz-adv-x="984" 
d="M438 -24q-192 0 -304.5 103.5t-112.5 267.5q0 169 128.5 278t343.5 109q168 0 285 -62.5t150 -169.5l-218 -36q-21 55 -78 88.5t-145 33.5q-120 0 -187.5 -64.5t-67.5 -174.5q0 -105 68.5 -168.5t188.5 -63.5q111 0 178 44t72 107v3h-268v125h456v-396h-154l-9 122
q-38 -63 -119.5 -104.5t-206.5 -41.5zM462 -244l-26 47q38 9 53 19.5t17 29.5h-99v100h187v-76q0 -98 -132 -120z" />
    <glyph glyph-name="uni0123" unicode="&#x123;" horiz-adv-x="830" 
d="M487 672v-100h-187v76q0 98 132 120l26 -47q-38 -9 -53 -19.5t-17 -29.5h99zM803 469q-27 6 -60 6q-46 0 -72 -14q65 -43 65 -114q0 -83 -88.5 -130t-246.5 -47q-97 0 -168 18q-29 -9 -29 -30q0 -34 61 -34l320 -1q111 -1 163 -37t52 -111q0 -98 -100 -143.5t-319 -45.5
q-179 0 -263 29.5t-84 91.5q0 65 91 87q-81 31 -81 97q0 44 33.5 74t94.5 44q-106 47 -106 138q0 82 87.5 127t247.5 45q113 0 191 -23q27 97 163 97q25 0 48 -4v-120zM401 261q66 0 102.5 22.5t36.5 63.5q0 81 -139 81t-139 -81q0 -41 36.5 -63.5t102.5 -22.5zM565 -22
h-340q-18 0 -26 1q-21 -16 -21 -39q0 -38 52 -53.5t167 -15.5q140 0 190.5 14t50.5 50q0 43 -73 43z" />
    <glyph glyph-name="Hcircumflex" unicode="&#x124;" horiz-adv-x="1015" 
d="M761 760h-165l-88 65l-89 -65h-164l152 118h201zM923 710v-710h-202v290h-427v-290h-202v710h202v-280h427v280h202z" />
    <glyph glyph-name="hcircumflex" unicode="&#x125;" horiz-adv-x="887" 
d="M436 760h-165l-88 65l-89 -65h-164l152 118h201zM87 0v725h192v-332q35 60 102.5 93t156.5 33q137 0 210.5 -76.5t73.5 -218.5v-224h-192v204q0 88 -43.5 134t-127.5 46t-132 -46t-48 -128v-210h-192z" />
    <glyph glyph-name="Hbar" unicode="&#x126;" horiz-adv-x="1015" 
d="M1015 607v-87h-92v-520h-202v290h-427v-290h-202v520h-91v87h91v103h202v-103h427v103h202v-103h92zM721 430v90h-427v-90h427z" />
    <glyph glyph-name="hbar" unicode="&#x127;" horiz-adv-x="860" 
d="M538 519q137 0 210.5 -76.5t73.5 -218.5v-224h-192v204q0 88 -43.5 134t-127.5 46t-132 -46t-48 -128v-210h-192v571h-99v88h99v66h192v-66h301v-88h-301v-178q35 60 102.5 93t156.5 33z" />
    <glyph glyph-name="Itilde" unicode="&#x128;" horiz-adv-x="385" 
d="M267 754q-30 0 -55.5 15.5t-45.5 31t-35 15.5q-30 0 -33 -49l-75 28q3 50 28 80t68 30q30 0 55.5 -15.5t45.5 -31t35 -15.5q30 0 33 49l75 -28q-3 -50 -28 -80t-68 -30zM294 0h-202v710h202v-710z" />
    <glyph glyph-name="itilde" unicode="&#x129;" horiz-adv-x="356" 
d="M243 581q-27 0 -50.5 16.5t-40.5 33.5t-29 17q-21 0 -29 -56l-78 28q8 59 35 92.5t67 33.5q27 0 50.5 -17t40.5 -34t29 -17q21 0 29 56l78 -27q-8 -60 -35 -93t-67 -33zM82 0v500h192v-500h-192z" />
    <glyph glyph-name="Imacron" unicode="&#x12a;" horiz-adv-x="385" 
d="M30 761v104h324v-104h-324zM294 0h-202v710h202v-710z" />
    <glyph glyph-name="imacron" unicode="&#x12b;" horiz-adv-x="356" 
d="M38 594v103h281v-103h-281zM82 0v500h192v-500h-192z" />
    <glyph glyph-name="Ibreve" unicode="&#x12c;" horiz-adv-x="385" 
d="M137 878q2 -21 16.5 -34.5t39.5 -13.5t40 13.5t16 34.5h102q-4 -59 -46 -91t-112 -32t-112 32t-46 91h102zM294 0h-202v710h202v-710z" />
    <glyph glyph-name="ibreve" unicode="&#x12d;" horiz-adv-x="356" 
d="M139 730q-1 -81 40 -81q39 0 40 81h100q-3 -162 -140 -162q-138 0 -141 162h101zM82 0v500h192v-500h-192z" />
    <glyph glyph-name="Iogonek" unicode="&#x12e;" horiz-adv-x="385" 
d="M203 -90l115 -16q-8 -48 -55.5 -75t-125.5 -27q-76 0 -120 27t-44 74q0 80 119 112v705h202v-710h-42q-76 -7 -112.5 -32t-36.5 -57q0 -19 13 -31.5t33 -12.5q42 0 54 43z" />
    <glyph glyph-name="iogonek" unicode="&#x12f;" horiz-adv-x="356" 
d="M280 727v-154h-203v154h203zM194 -90l115 -16q-8 -48 -55.5 -75t-125.5 -27q-76 0 -120 27t-44 74q0 80 118 112v495h192v-500h-31q-76 -7 -112.5 -32t-36.5 -57q0 -19 13 -31.5t33 -12.5q42 0 54 43z" />
    <glyph glyph-name="Idotaccent" unicode="&#x130;" horiz-adv-x="385" 
d="M91 760v118h203v-118h-203zM294 0h-202v710h202v-710z" />
    <glyph glyph-name="dotlessi" unicode="&#x131;" horiz-adv-x="356" 
d="M82 0v500h192v-500h-192z" />
    <glyph glyph-name="IJ" unicode="&#x132;" horiz-adv-x="902" 
d="M294 0h-202v710h202v-710zM838 257q0 -272 -303 -272q-81 0 -136 12v155q47 -7 89 -7q71 0 109.5 32t38.5 114v419h202v-453z" />
    <glyph glyph-name="ij" unicode="&#x133;" horiz-adv-x="736" 
d="M77 573v154h203v-154h-203zM453 573v154h203v-154h-203zM82 0v500h192v-500h-192zM416 -211q-58 0 -86 9v137q23 -4 61 -4q36 0 53.5 23.5t17.5 77.5v468h192v-493q0 -109 -55 -163.5t-183 -54.5z" />
    <glyph glyph-name="Jcircumflex" unicode="&#x134;" horiz-adv-x="517" 
d="M517 760h-120l-45 74l-44 -74h-120l79 119h171zM453 257q0 -272 -303 -272q-80 0 -136 12v155q47 -7 89 -7q71 0 109.5 32t38.5 114v419h202v-453z" />
    <glyph glyph-name="jcircumflex" unicode="&#x135;" horiz-adv-x="368" 
d="M344 573h-113l-45 107l-44 -107h-113l77 158h161zM48 -211q-58 0 -86 9v137q23 -4 61 -4q36 0 53.5 23.5t17.5 77.5v468h192v-493q0 -109 -55 -163.5t-183 -54.5z" />
    <glyph glyph-name="uni0136" unicode="&#x136;" horiz-adv-x="956" 
d="M607 438l333 -438h-235l-250 323l-161 -143v-180h-202v710h202v-330l379 330h249zM391 -148v100h187v-76q0 -98 -132 -120l-26 47q38 9 53 19.5t17 29.5h-99z" />
    <glyph glyph-name="uni0137" unicode="&#x137;" horiz-adv-x="845" 
d="M575 323l250 -323h-220l-177 232l-149 -104v-128h-192v725h192v-433l282 208h254zM324 -148v100h187v-76q0 -98 -132 -120l-26 47q38 9 53 19.5t17 29.5h-99z" />
    <glyph glyph-name="kgreenlandic" unicode="&#x138;" horiz-adv-x="840" 
d="M600 0l-177 232l-149 -104v-128h-192v500h192v-208l282 208h254l-240 -177l250 -323h-220z" />
    <glyph glyph-name="Lacute" unicode="&#x139;" horiz-adv-x="802" 
d="M109 760l151 118h196l-180 -118h-167zM92 0v710h202v-552h481v-158h-683z" />
    <glyph glyph-name="lacute" unicode="&#x13a;" horiz-adv-x="366" 
d="M99 760l151 118h196l-180 -118h-167zM279 725v-725h-192v725h192z" />
    <glyph glyph-name="uni013B" unicode="&#x13b;" horiz-adv-x="802" 
d="M92 0v710h202v-552h481v-158h-683zM400 -244l-26 47q38 9 53 19.5t17 29.5h-99v100h187v-76q0 -98 -132 -120z" />
    <glyph glyph-name="uni013C" unicode="&#x13c;" horiz-adv-x="366" 
d="M279 725v-725h-192v725h192zM144 -244l-26 47q38 9 53 19.5t17 29.5h-99v100h187v-76q0 -98 -132 -120z" />
    <glyph glyph-name="Lcaron" unicode="&#x13d;" horiz-adv-x="802" 
d="M92 0v710h202v-552h481v-158h-683zM426 520l-25 52q59 8 62 38h-92v100h181v-69q0 -106 -126 -121z" />
    <glyph glyph-name="lcaron" unicode="&#x13e;" horiz-adv-x="470" 
d="M279 725v-725h-192v725h192zM379 520l-24 52q57 7 62 38h-93v100h181v-69q0 -106 -126 -121z" />
    <glyph glyph-name="Ldot" unicode="&#x13f;" horiz-adv-x="802" 
d="M92 0v710h202v-552h481v-158h-683zM614 500v-163h-209v163h209z" />
    <glyph glyph-name="ldot" unicode="&#x140;" horiz-adv-x="532" 
d="M279 725v-725h-192v725h192zM554 500v-164h-209v164h209z" />
    <glyph glyph-name="Lslash" unicode="&#x141;" horiz-adv-x="802" 
d="M294 158h481v-158h-683v245l-107 -48v119l107 48v346h202v-256l283 127v-119l-283 -127v-177z" />
    <glyph glyph-name="lslash" unicode="&#x142;" horiz-adv-x="366" 
d="M342 560v-102l-63 -49v-409h-192v260l-64 -50v101l64 50v364h192v-214z" />
    <glyph glyph-name="Nacute" unicode="&#x143;" horiz-adv-x="1012" 
d="M428 760l151 118h196l-180 -118h-167zM92 0v710h215l371 -403q34 -38 56 -81h4v102v382h183v-710h-201l-385 408q-40 44 -56 81h-4v-99v-390h-183z" />
    <glyph glyph-name="nacute" unicode="&#x144;" horiz-adv-x="882" 
d="M406 573l163 157h196l-198 -157h-161zM82 0v500h189v-116q71 135 266 135q137 0 208.5 -72t71.5 -210v-237h-192v208q0 173 -166 173q-88 0 -136.5 -45.5t-48.5 -128.5v-207h-192z" />
    <glyph glyph-name="uni0145" unicode="&#x145;" horiz-adv-x="1012" 
d="M92 0v710h215l371 -403q34 -38 56 -81h4v102v382h183v-710h-201l-385 408q-40 44 -56 81h-4v-99v-390h-183zM474 -244l-26 47q38 9 53 19.5t17 29.5h-99v100h187v-76q0 -98 -132 -120z" />
    <glyph glyph-name="uni0146" unicode="&#x146;" horiz-adv-x="882" 
d="M82 0v500h189v-116q71 135 266 135q137 0 208.5 -72t71.5 -210v-237h-192v208q0 173 -166 173q-88 0 -136.5 -45.5t-48.5 -128.5v-207h-192zM403 -244l-26 47q38 9 53 19.5t17 29.5h-99v100h187v-76q0 -98 -132 -120z" />
    <glyph glyph-name="Ncaron" unicode="&#x147;" horiz-adv-x="1012" 
d="M765 873l-152 -118h-201l-153 118h165l88 -65l89 65h164zM92 0v710h215l371 -403q34 -38 56 -81h4v102v382h183v-710h-201l-385 408q-40 44 -56 81h-4v-99v-390h-183z" />
    <glyph glyph-name="ncaron" unicode="&#x148;" horiz-adv-x="882" 
d="M236 725h154l102 -101l102 101h154l-156 -157h-200zM82 0v500h189v-116q71 135 266 135q137 0 208.5 -72t71.5 -210v-237h-192v208q0 173 -166 173q-88 0 -136.5 -45.5t-48.5 -128.5v-207h-192z" />
    <glyph glyph-name="napostrophe" unicode="&#x149;" horiz-adv-x="903" 
d="M58 520l-25 52q59 8 62 38h-92v100h181v-69q0 -106 -126 -121zM104 0v500h188v-116q73 135 266 135q138 0 209.5 -71.5t71.5 -210.5v-237h-192v208q0 173 -166 173q-89 0 -137 -45.5t-48 -128.5v-207h-192z" />
    <glyph glyph-name="Eng" unicode="&#x14a;" horiz-adv-x="1012" 
d="M921 710v-710h-1v-3q0 -109 -70 -160.5t-188 -51.5q-85 0 -146 10v147q68 -6 108 -6q90 0 108 64h-12l-385 408q-40 44 -56 81h-4v-99v-390h-183v710h215l371 -403q34 -38 56 -81h4v102v382h183z" />
    <glyph glyph-name="eng" unicode="&#x14b;" horiz-adv-x="882" 
d="M537 519q137 0 208.5 -72t71.5 -210v-240q0 -98 -57 -147t-191 -49q-62 0 -90 9v133q28 -5 59 -5q45 0 66 17.5t21 61.5v191q0 173 -166 173q-88 0 -136.5 -45.5t-48.5 -128.5v-207h-192v500h189v-116q71 135 266 135z" />
    <glyph glyph-name="Omacron" unicode="&#x14c;" horiz-adv-x="994" 
d="M252 761v102h490v-102h-490zM497 -24q-217 0 -346.5 103.5t-129.5 275.5q0 173 129.5 276t346.5 103q216 0 346 -103.5t130 -275.5t-130 -275.5t-346 -103.5zM497 126q118 0 191 63t73 166t-73 166t-191 63t-191 -63t-73 -166t73 -166t191 -63z" />
    <glyph glyph-name="omacron" unicode="&#x14d;" horiz-adv-x="822" 
d="M162 593v104h497v-104h-497zM411 -19q-175 0 -281 73.5t-106 195.5q0 123 106 196t281 73t281.5 -73t106.5 -196q0 -122 -106.5 -195.5t-281.5 -73.5zM411 104q85 0 136.5 39.5t51.5 106.5t-51.5 106.5t-136.5 39.5t-136.5 -39.5t-51.5 -106.5t51.5 -106.5t136.5 -39.5z
" />
    <glyph glyph-name="Obreve" unicode="&#x14e;" horiz-adv-x="994" 
d="M401 878q12 -45 95 -45q86 0 96 45h124q-7 -59 -66.5 -91t-153.5 -32q-93 0 -152.5 32t-66.5 91h124zM497 -24q-217 0 -346.5 103.5t-129.5 275.5q0 173 129.5 276t346.5 103q216 0 346 -103.5t130 -275.5t-130 -275.5t-346 -103.5zM497 126q118 0 191 63t73 166t-73 166
t-191 63t-191 -63t-73 -166t73 -166t191 -63z" />
    <glyph glyph-name="obreve" unicode="&#x14f;" horiz-adv-x="822" 
d="M319 730q9 -78 93 -78q83 0 92 78h130q-7 -80 -65 -121t-157 -41q-100 0 -158 41t-65 121h130zM411 -19q-175 0 -281 73.5t-106 195.5q0 123 106 196t281 73t281.5 -73t106.5 -196q0 -122 -106.5 -195.5t-281.5 -73.5zM411 104q85 0 136.5 39.5t51.5 106.5t-51.5 106.5
t-136.5 39.5t-136.5 -39.5t-51.5 -106.5t51.5 -106.5t136.5 -39.5z" />
    <glyph glyph-name="Ohungarumlaut" unicode="&#x150;" horiz-adv-x="994" 
d="M302 760l149 118h161l-160 -118h-150zM541 760l149 118h161l-160 -118h-150zM497 -24q-217 0 -346.5 103.5t-129.5 275.5q0 173 129.5 276t346.5 103q216 0 346 -103.5t130 -275.5t-130 -275.5t-346 -103.5zM497 126q118 0 191 63t73 166t-73 166t-191 63t-191 -63
t-73 -166t73 -166t191 -63z" />
    <glyph glyph-name="ohungarumlaut" unicode="&#x151;" horiz-adv-x="822" 
d="M224 573l155 157h153l-166 -157h-142zM456 573l155 157h153l-166 -157h-142zM411 -19q-175 0 -281 73.5t-106 195.5q0 123 106 196t281 73t281.5 -73t106.5 -196q0 -122 -106.5 -195.5t-281.5 -73.5zM411 104q85 0 136.5 39.5t51.5 106.5t-51.5 106.5t-136.5 39.5
t-136.5 -39.5t-51.5 -106.5t51.5 -106.5t136.5 -39.5z" />
    <glyph glyph-name="OE" unicode="&#x152;" horiz-adv-x="1474" 
d="M888 141h522v-141h-977q-186 0 -299 98.5t-113 268.5q0 165 121 254t314 89h947v-141h-515v-143h498v-132h-498v-153zM473 137h213v436h-211q-112 0 -177 -54.5t-65 -155.5q0 -109 64.5 -167.5t175.5 -58.5z" />
    <glyph glyph-name="oe" unicode="&#x153;" horiz-adv-x="1381" 
d="M1354 236v-27h-559q11 -51 63 -79t137 -28q63 0 114 19.5t79 54.5l147 -64q-109 -131 -348 -131q-192 0 -291 82q-108 -82 -279 -82q-175 0 -284 74t-109 195q0 124 108.5 196.5t284.5 72.5q173 0 281 -82q101 82 284 82q176 0 274 -75t98 -208zM1163 307v1q-1 47 -52 77
t-130 30t-128 -29t-58 -79h368zM417 108q90 0 141.5 40t51.5 102t-51.5 102t-141.5 40t-142 -40t-52 -102t52 -102t142 -40z" />
    <glyph glyph-name="Racute" unicode="&#x154;" horiz-adv-x="926" 
d="M682 878l-180 -118h-167l151 118h196zM669 0l-168 251h-207v-251h-202v710h484q82 0 141.5 -19.5t91.5 -53t46.5 -71.5t14.5 -81q0 -67 -38.5 -125.5t-121.5 -84.5l186 -275h-227zM294 575v-195h236q68 0 97.5 28t29.5 71q0 42 -29.5 69t-96.5 27h-237z" />
    <glyph glyph-name="racute" unicode="&#x155;" horiz-adv-x="561" 
d="M204 573l163 157h196l-198 -157h-161zM251 352q21 75 81.5 119t146.5 44q32 0 65 -5v-164q-42 8 -80 8q-90 0 -138 -45q-52 -49 -52 -147v-162h-192v500h169v-148z" />
    <glyph glyph-name="uni0156" unicode="&#x156;" horiz-adv-x="926" 
d="M710 275l186 -275h-227l-168 251h-207v-251h-202v710h484q82 0 141.5 -19.5t91.5 -53t46.5 -71.5t14.5 -81q0 -67 -38.5 -125.5t-121.5 -84.5zM294 575v-195h236q68 0 97.5 28t29.5 71q0 42 -29.5 69t-96.5 27h-237zM352 -148v100h187v-76q0 -98 -132 -120l-26 47
q38 9 53 19.5t17 29.5h-99z" />
    <glyph glyph-name="uni0157" unicode="&#x157;" horiz-adv-x="561" 
d="M251 352q21 75 81.5 119t146.5 44q32 0 65 -5v-164q-42 8 -80 8q-90 0 -138 -45q-52 -49 -52 -147v-162h-192v500h169v-148zM139 -244l-26 47q38 9 53 19.5t17 29.5h-99v100h187v-76q0 -98 -132 -120z" />
    <glyph glyph-name="Rcaron" unicode="&#x158;" horiz-adv-x="926" 
d="M520 755h-201l-153 118h165l88 -65l89 65h164zM669 0l-168 251h-207v-251h-202v710h484q82 0 141.5 -19.5t91.5 -53t46.5 -71.5t14.5 -81q0 -67 -38.5 -125.5t-121.5 -84.5l186 -275h-227zM294 575v-195h236q68 0 97.5 28t29.5 71q0 42 -29.5 69t-96.5 27h-237z" />
    <glyph glyph-name="rcaron" unicode="&#x159;" horiz-adv-x="561" 
d="M34 725h154l102 -101l102 101h154l-156 -157h-200zM251 352q21 75 81.5 119t146.5 44q32 0 65 -5v-164q-42 8 -80 8q-90 0 -138 -45q-52 -49 -52 -147v-162h-192v500h169v-148z" />
    <glyph glyph-name="Sacute" unicode="&#x15a;" horiz-adv-x="883" 
d="M359 760l151 118h196l-180 -118h-167zM448 -24q-156 0 -274.5 48t-173.5 133l144 101q46 -64 127 -101.5t187 -37.5q189 0 189 82q0 33 -25.5 48.5t-89.5 22.5l-218 24q-132 14 -194.5 65.5t-62.5 148.5q0 106 99 165t281 59q278 0 408 -146l-127 -107q-86 113 -291 113
q-170 0 -170 -74q0 -33 26 -48t95 -23l196 -19q148 -15 212.5 -63.5t64.5 -146.5q0 -117 -105 -180.5t-298 -63.5z" />
    <glyph glyph-name="sacute" unicode="&#x15b;" horiz-adv-x="758" 
d="M288 573l163 157h196l-198 -157h-161zM404 -19q-263 0 -384 113l93 88q96 -87 309 -87q67 0 96.5 11t29.5 36q0 19 -14.5 27t-52.5 12l-218 19q-108 11 -159.5 48t-51.5 106q0 165 323 165q223 0 340 -86l-78 -92q-98 66 -279 66q-129 0 -129 -43q0 -18 16 -26.5
t53 -12.5l222 -19q110 -10 157.5 -44t47.5 -103q0 -178 -321 -178z" />
    <glyph glyph-name="Scircumflex" unicode="&#x15c;" horiz-adv-x="883" 
d="M696 760h-165l-88 65l-89 -65h-164l152 118h201zM448 -24q-156 0 -274.5 48t-173.5 133l144 101q46 -64 127 -101.5t187 -37.5q189 0 189 82q0 33 -25.5 48.5t-89.5 22.5l-218 24q-132 14 -194.5 65.5t-62.5 148.5q0 106 99 165t281 59q278 0 408 -146l-127 -107
q-86 113 -291 113q-170 0 -170 -74q0 -33 26 -48t95 -23l196 -19q148 -15 212.5 -63.5t64.5 -146.5q0 -117 -105 -180.5t-298 -63.5z" />
    <glyph glyph-name="scircumflex" unicode="&#x15d;" horiz-adv-x="758" 
d="M630 573h-154l-102 101l-102 -101h-154l156 157h200zM404 -19q-263 0 -384 113l93 88q96 -87 309 -87q67 0 96.5 11t29.5 36q0 19 -14.5 27t-52.5 12l-218 19q-108 11 -159.5 48t-51.5 106q0 165 323 165q223 0 340 -86l-78 -92q-98 66 -279 66q-129 0 -129 -43
q0 -18 16 -26.5t53 -12.5l222 -19q110 -10 157.5 -44t47.5 -103q0 -178 -321 -178z" />
    <glyph glyph-name="Scedilla" unicode="&#x15e;" horiz-adv-x="883" 
d="M851 220q0 -112 -95.5 -175t-271.5 -68l-27 -34q31 16 77 16q62 0 96.5 -24.5t34.5 -67.5q0 -46 -46 -71t-128 -25q-113 0 -156 57l92 28q21 -24 65 -24q52 0 52 35t-50 35q-35 0 -52 -16l-94 18l50 73q-139 8 -243.5 55.5t-154.5 124.5l144 101q46 -64 127 -101.5
t187 -37.5q189 0 189 82q0 33 -25.5 48.5t-89.5 22.5l-218 24q-132 14 -194.5 65.5t-62.5 148.5q0 106 99 165t281 59q278 0 408 -146l-127 -107q-86 113 -291 113q-170 0 -170 -74q0 -33 26 -48t95 -23l196 -19q148 -15 212.5 -63.5t64.5 -146.5z" />
    <glyph glyph-name="scedilla" unicode="&#x15f;" horiz-adv-x="758" 
d="M725 159q0 -172 -302 -178l-31 -38q31 16 77 16q62 0 96.5 -24.5t34.5 -67.5q0 -46 -46 -71t-128 -25q-113 0 -156 57l92 28q21 -24 65 -24q52 0 52 35t-50 35q-35 0 -52 -16l-94 18l53 79q-211 13 -316 111l93 88q96 -87 309 -87q67 0 96.5 11t29.5 36q0 19 -14.5 27
t-52.5 12l-218 19q-108 11 -159.5 48t-51.5 106q0 165 323 165q223 0 340 -86l-78 -92q-98 66 -279 66q-129 0 -129 -43q0 -18 16 -26.5t53 -12.5l222 -19q110 -10 157.5 -44t47.5 -103z" />
    <glyph glyph-name="Scaron" unicode="&#x160;" horiz-adv-x="883" 
d="M696 873l-152 -118h-201l-153 118h165l88 -65l89 65h164zM448 -24q-156 0 -274.5 48t-173.5 133l144 101q46 -64 127 -101.5t187 -37.5q189 0 189 82q0 33 -25.5 48.5t-89.5 22.5l-218 24q-132 14 -194.5 65.5t-62.5 148.5q0 106 99 165t281 59q278 0 408 -146l-127 -107
q-86 113 -291 113q-170 0 -170 -74q0 -33 26 -48t95 -23l196 -19q148 -15 212.5 -63.5t64.5 -146.5q0 -117 -105 -180.5t-298 -63.5z" />
    <glyph glyph-name="scaron" unicode="&#x161;" horiz-adv-x="758" 
d="M118 725h154l102 -101l102 101h154l-156 -157h-200zM404 -19q-263 0 -384 113l93 88q96 -87 309 -87q67 0 96.5 11t29.5 36q0 19 -14.5 27t-52.5 12l-218 19q-108 11 -159.5 48t-51.5 106q0 165 323 165q223 0 340 -86l-78 -92q-98 66 -279 66q-129 0 -129 -43
q0 -18 16 -26.5t53 -12.5l222 -19q110 -10 157.5 -44t47.5 -103q0 -178 -321 -178z" />
    <glyph glyph-name="uni0162" unicode="&#x162;" horiz-adv-x="813" 
d="M507 0h-57l-46 -57q31 16 77 16q62 0 96.5 -24.5t34.5 -67.5q0 -46 -46 -71t-128 -25q-113 0 -156 57l92 28q21 -24 65 -24q52 0 52 35t-50 35q-35 0 -52 -16l-94 18l65 96h-55v553h-295v157h793v-157h-296v-553z" />
    <glyph glyph-name="uni0163" unicode="&#x163;" horiz-adv-x="607" 
d="M467 -41q62 0 96.5 -24.5t34.5 -67.5q0 -46 -46 -71t-128 -25q-113 0 -156 57l92 28q21 -24 65 -24q52 0 52 35t-50 35q-35 0 -52 -16l-94 18l59 87q-189 27 -189 205v183h-147v121h147v117l192 68v-185h226v-121h-226v-145q0 -54 30 -78.5t93 -24.5q55 0 103 12v-135
q-47 -20 -145 -22l-34 -43q31 16 77 16z" />
    <glyph glyph-name="Tcaron" unicode="&#x164;" horiz-adv-x="813" 
d="M507 755h-201l-153 118h165l88 -65l89 65h164zM803 710v-157h-296v-553h-202v553h-295v157h793z" />
    <glyph glyph-name="tcaron" unicode="&#x165;" horiz-adv-x="608" 
d="M453 520l-25 52q59 8 62 38h-92v100h181v-69q0 -106 -126 -121zM4 379v121h147v117l192 68v-185h226v-121h-226v-145q0 -54 30 -78.5t93 -24.5q55 0 103 12v-135q-52 -22 -152 -22q-266 0 -266 210v183h-147z" />
    <glyph glyph-name="Tbar" unicode="&#x166;" horiz-adv-x="813" 
d="M803 553h-296v-130h220v-87h-220v-336h-202v336h-219v87h219v130h-295v157h793v-157z" />
    <glyph glyph-name="tbar" unicode="&#x167;" horiz-adv-x="607" 
d="M569 379h-226v-66h225v-84h-225q1 -51 31.5 -74.5t91.5 -23.5q55 0 103 12v-135q-52 -22 -152 -22q-266 0 -266 210v33h-146v84h146v66h-147v121h147v117l192 68v-185h226v-121z" />
    <glyph glyph-name="Utilde" unicode="&#x168;" horiz-adv-x="961" 
d="M581 755q-52 0 -109 24.5t-83 24.5q-53 0 -67 -53l-99 40q33 114 161 114q52 0 108.5 -24.5t83.5 -24.5q53 0 67 53l99 -41q-33 -113 -161 -113zM63 710h202v-371q0 -92 56.5 -148.5t159.5 -56.5q100 0 157.5 57t57.5 148v371h202v-392q0 -156 -109.5 -249t-307.5 -93
t-308 93.5t-110 250.5v390z" />
    <glyph glyph-name="utilde" unicode="&#x169;" horiz-adv-x="871" 
d="M532 584q-55 0 -115.5 29.5t-89.5 29.5q-55 0 -70 -63l-102 41q28 124 158 124q55 0 116 -29.5t89 -29.5q55 0 70 63l102 -41q-29 -124 -158 -124zM335 -19q-129 0 -200 64t-71 184v271h193v-225q0 -160 154 -160q91 0 138.5 49.5t47.5 122.5v213h192v-500h-189v117
q-33 -66 -103.5 -101t-161.5 -35z" />
    <glyph glyph-name="Umacron" unicode="&#x16a;" horiz-adv-x="961" 
d="M236 761v102h490v-102h-490zM63 710h202v-371q0 -92 56.5 -148.5t159.5 -56.5q100 0 157.5 57t57.5 148v371h202v-392q0 -156 -109.5 -249t-307.5 -93t-308 93.5t-110 250.5v390z" />
    <glyph glyph-name="umacron" unicode="&#x16b;" horiz-adv-x="871" 
d="M174 593v104h497v-104h-497zM335 -19q-129 0 -200 64t-71 184v271h193v-225q0 -160 154 -160q91 0 138.5 49.5t47.5 122.5v213h192v-500h-189v117q-33 -66 -103.5 -101t-161.5 -35z" />
    <glyph glyph-name="Ubreve" unicode="&#x16c;" horiz-adv-x="961" 
d="M386 878q12 -45 95 -45q86 0 96 45h124q-7 -59 -66.5 -91t-153.5 -32q-93 0 -152.5 32t-66.5 91h124zM63 710h202v-371q0 -92 56.5 -148.5t159.5 -56.5q100 0 157.5 57t57.5 148v371h202v-392q0 -156 -109.5 -249t-307.5 -93t-308 93.5t-110 250.5v390z" />
    <glyph glyph-name="ubreve" unicode="&#x16d;" horiz-adv-x="871" 
d="M331 730q9 -78 93 -78q83 0 92 78h130q-7 -80 -65 -121t-157 -41q-100 0 -158 41t-65 121h130zM335 -19q-129 0 -200 64t-71 184v271h193v-225q0 -160 154 -160q91 0 138.5 49.5t47.5 122.5v213h192v-500h-189v117q-33 -66 -103.5 -101t-161.5 -35z" />
    <glyph glyph-name="Uring" unicode="&#x16e;" horiz-adv-x="961" 
d="M481 742q-65 0 -105 32.5t-40 85.5t40 85.5t105 32.5t105.5 -32.5t40.5 -85.5t-40.5 -85.5t-105.5 -32.5zM481 807q26 0 42.5 15t16.5 38q0 24 -16.5 39t-42.5 15t-42.5 -15t-16.5 -39q0 -23 16.5 -38t42.5 -15zM63 710h202v-371q0 -92 56.5 -148.5t159.5 -56.5
q100 0 157.5 57t57.5 148v371h202v-392q0 -156 -109.5 -249t-307.5 -93t-308 93.5t-110 250.5v390z" />
    <glyph glyph-name="uring" unicode="&#x16f;" horiz-adv-x="871" 
d="M423 557q-87 0 -135.5 32.5t-48.5 88.5q0 55 48.5 88t135.5 33q88 0 136.5 -33t48.5 -88q0 -56 -48.5 -88.5t-136.5 -32.5zM423 623q43 0 66.5 15t23.5 40t-23.5 40t-66.5 15t-66 -15t-23 -40t23 -40t66 -15zM335 -19q-129 0 -200 64t-71 184v271h193v-225
q0 -160 154 -160q91 0 138.5 49.5t47.5 122.5v213h192v-500h-189v117q-33 -66 -103.5 -101t-161.5 -35z" />
    <glyph glyph-name="Uhungarumlaut" unicode="&#x170;" horiz-adv-x="961" 
d="M286 760l149 118h161l-160 -118h-150zM525 760l149 118h161l-160 -118h-150zM63 710h202v-371q0 -92 56.5 -148.5t159.5 -56.5q100 0 157.5 57t57.5 148v371h202v-392q0 -156 -109.5 -249t-307.5 -93t-308 93.5t-110 250.5v390z" />
    <glyph glyph-name="uhungarumlaut" unicode="&#x171;" horiz-adv-x="871" 
d="M236 573l155 157h153l-166 -157h-142zM468 573l155 157h153l-166 -157h-142zM335 -19q-129 0 -200 64t-71 184v271h193v-225q0 -160 154 -160q91 0 138.5 49.5t47.5 122.5v213h192v-500h-189v117q-33 -66 -103.5 -101t-161.5 -35z" />
    <glyph glyph-name="Uogonek" unicode="&#x172;" horiz-adv-x="961" 
d="M696 710h202v-392q0 -137 -85.5 -226.5t-241.5 -109.5q-64 -25 -64 -71q0 -19 13 -31.5t33 -12.5q42 0 54 43l115 -16q-8 -48 -55.5 -75t-125.5 -27q-76 0 -120 27t-44 74q0 53 52 85q-174 13 -270 104.5t-96 237.5v390h202v-371q0 -92 56.5 -148.5t159.5 -56.5
q100 0 157.5 57t57.5 148v371z" />
    <glyph glyph-name="uogonek" unicode="&#x173;" horiz-adv-x="871" 
d="M712 -90l115 -16q-8 -48 -55.5 -75t-125.5 -27q-76 0 -120 27t-44 74q0 80 118 112v112q-33 -66 -103.5 -101t-161.5 -35q-129 0 -200 64t-71 184v271h193v-225q0 -160 154 -160q91 0 138.5 49.5t47.5 122.5v213h192v-500h-28q-76 -7 -112.5 -32t-36.5 -57
q0 -19 13 -31.5t33 -12.5q42 0 54 43z" />
    <glyph glyph-name="Wcircumflex" unicode="&#x174;" horiz-adv-x="1356" 
d="M932 760h-165l-88 65l-89 -65h-164l152 118h201zM264 0l-246 710h205l142 -459q13 -51 14 -68h4q3 21 20 68l170 459h210l170 -459q17 -47 20 -68h3q1 13 15 68l142 459h205l-246 -710h-230l-166 454q-13 32 -16 62h-4q-3 -30 -16 -62l-166 -454h-230z" />
    <glyph glyph-name="wcircumflex" unicode="&#x175;" horiz-adv-x="1138" 
d="M825 573h-154l-102 101l-102 -101h-154l156 157h200zM219 0l-207 500h193l110 -305q8 -27 13 -54h2q3 23 15 54l127 305h195l126 -305q12 -31 15 -54h2q5 27 13 54l110 305h193l-207 -500h-209l-122 288q-14 34 -17 61h-4q-3 -27 -17 -61l-121 -288h-210z" />
    <glyph glyph-name="Ycircumflex" unicode="&#x176;" horiz-adv-x="895" 
d="M704 760h-165l-88 65l-89 -65h-164l152 118h201zM345 0v241l-354 469h229l205 -289q20 -27 24 -39h2q4 15 23 39l213 289h217l-357 -469v-241h-202z" />
    <glyph glyph-name="ycircumflex" unicode="&#x177;" horiz-adv-x="773" 
d="M643 573h-154l-102 101l-102 -101h-154l156 157h200zM168 -214q-64 0 -119 11v143q54 -10 95 -10q44 0 87.5 16.5t64.5 44.5l2 6l-304 503h215l158 -299q17 -34 25 -57h4q5 13 24 54l152 302h207l-291 -524q-54 -101 -128.5 -145.5t-191.5 -44.5z" />
    <glyph glyph-name="Ydieresis" unicode="&#x178;" horiz-adv-x="895" 
d="M196 760v118h181v-118h-181zM524 760v118h181v-118h-181zM345 0v241l-354 469h229l205 -289q20 -27 24 -39h2q4 15 23 39l213 289h217l-357 -469v-241h-202z" />
    <glyph glyph-name="Zacute" unicode="&#x179;" horiz-adv-x="880" 
d="M359 760l151 118h196l-180 -118h-167zM52 131l504 440h-488v139h756v-131l-504 -440h523v-139h-791v131z" />
    <glyph glyph-name="zacute" unicode="&#x17a;" horiz-adv-x="740" 
d="M287 573l163 157h196l-198 -157h-161zM45 121l397 261h-382v118h630v-118l-395 -264h411v-118h-661v121z" />
    <glyph glyph-name="Zdotaccent" unicode="&#x17b;" horiz-adv-x="880" 
d="M341 760v118h203v-118h-203zM52 131l504 440h-488v139h756v-131l-504 -440h523v-139h-791v131z" />
    <glyph glyph-name="zdotaccent" unicode="&#x17c;" horiz-adv-x="740" 
d="M272 573v154h203v-154h-203zM45 121l397 261h-382v118h630v-118l-395 -264h411v-118h-661v121z" />
    <glyph glyph-name="Zcaron" unicode="&#x17d;" horiz-adv-x="880" 
d="M695 873l-152 -118h-201l-153 118h165l88 -65l89 65h164zM52 131l504 440h-488v139h756v-131l-504 -440h523v-139h-791v131z" />
    <glyph glyph-name="zcaron" unicode="&#x17e;" horiz-adv-x="740" 
d="M117 725h154l102 -101l102 101h154l-156 -157h-200zM45 121l397 261h-382v118h630v-118l-395 -264h411v-118h-661v121z" />
    <glyph glyph-name="florin" unicode="&#x192;" horiz-adv-x="665" 
d="M570 582q-65 0 -95 -27.5t-40 -95.5l-4 -31h186v-126h-204l-64 -452h-214l66 452h-163v126h182l4 30q21 149 102 206.5t228 57.5q67 0 99 -12v-137q-27 9 -83 9z" />
    <glyph glyph-name="AEacute" unicode="&#x1fc;" horiz-adv-x="1487" 
d="M1285 878l-180 -118h-167l151 118h196zM884 141h539v-141h-741v142h-340l-110 -142h-230l593 710h821v-141h-532v-143h515v-132h-515v-153zM439 268h243v314z" />
    <glyph glyph-name="aeacute" unicode="&#x1fd;" horiz-adv-x="1287" 
d="M917 730l-198 -157h-161l163 157h196zM1259 238v-29h-521q10 -51 57 -79t124 -28q117 0 175 75l146 -65q-102 -131 -328 -131q-213 0 -305 111q-87 -111 -297 -111q-127 0 -196 40.5t-69 115.5q0 71 64.5 111t189.5 44l248 9v12q0 93 -134 93q-67 0 -107.5 -21t-45.5 -59
h-201q12 88 108.5 140.5t247.5 52.5q168 0 242 -67q91 67 249 67q167 0 260 -74t93 -207zM737 308h331q-4 48 -49 77.5t-113 29.5q-73 0 -117 -27.5t-52 -79.5zM549 206v16l-198 -8q-107 -3 -107 -64t120 -61q83 0 134 32t51 85z" />
    <glyph glyph-name="Oslashacute" unicode="&#x1fe;" horiz-adv-x="994" 
d="M763 878l-180 -118h-167l151 118h196zM859 617q114 -102 114 -262q0 -172 -130 -275.5t-346 -103.5q-172 0 -293 68l-82 -72l-63 55l76 66q-114 102 -114 262q0 173 129.5 276t346.5 103q171 0 293 -67l80 70l64 -54zM233 355q0 -80 45 -136l374 327q-64 38 -155 38
q-118 0 -191 -63t-73 -166zM497 126q118 0 191 63t73 166q0 80 -45 137l-375 -328q67 -38 156 -38z" />
    <glyph glyph-name="oslashacute" unicode="&#x1ff;" horiz-adv-x="822" 
d="M695 730l-198 -157h-161l163 157h196zM715 428q84 -70 84 -178q0 -122 -106.5 -195.5t-281.5 -73.5q-141 0 -241 50l-87 -64l-50 48l76 56q-85 71 -85 179q0 123 106 196t281 73q143 0 243 -50l86 63l49 -50zM223 250q0 -44 24 -78l275 200q-45 24 -111 24
q-85 0 -136.5 -39.5t-51.5 -106.5zM411 104q85 0 136.5 39.5t51.5 106.5q0 43 -23 77l-274 -200q46 -23 109 -23z" />
    <glyph glyph-name="uni0218" unicode="&#x218;" horiz-adv-x="883" 
d="M448 -24q-156 0 -274.5 48t-173.5 133l144 101q46 -64 127 -101.5t187 -37.5q189 0 189 82q0 33 -25.5 48.5t-89.5 22.5l-218 24q-132 14 -194.5 65.5t-62.5 148.5q0 106 99 165t281 59q278 0 408 -146l-127 -107q-86 113 -291 113q-170 0 -170 -74q0 -33 26 -48t95 -23
l196 -19q148 -15 212.5 -63.5t64.5 -146.5q0 -117 -105 -180.5t-298 -63.5zM421 -244l-26 47q38 9 53 19.5t17 29.5h-99v100h187v-76q0 -98 -132 -120z" />
    <glyph glyph-name="uni0219" unicode="&#x219;" horiz-adv-x="758" 
d="M404 -19q-263 0 -384 113l93 88q96 -87 309 -87q67 0 96.5 11t29.5 36q0 19 -14.5 27t-52.5 12l-218 19q-108 11 -159.5 48t-51.5 106q0 165 323 165q223 0 340 -86l-78 -92q-98 66 -279 66q-129 0 -129 -43q0 -18 16 -26.5t53 -12.5l222 -19q110 -10 157.5 -44
t47.5 -103q0 -178 -321 -178zM356 -244l-26 47q38 9 53 19.5t17 29.5h-99v100h187v-76q0 -98 -132 -120z" />
    <glyph glyph-name="uni021A" unicode="&#x21a;" horiz-adv-x="813" 
d="M803 710v-157h-296v-553h-202v553h-295v157h793zM313 -148v100h187v-76q0 -98 -132 -120l-26 47q38 9 53 19.5t17 29.5h-99z" />
    <glyph glyph-name="uni021B" unicode="&#x21b;" horiz-adv-x="607" 
d="M4 379v121h147v117l192 68v-185h226v-121h-226v-145q0 -54 30 -78.5t93 -24.5q55 0 103 12v-135q-52 -22 -152 -22q-266 0 -266 210v183h-147zM354 -244l-26 47q38 9 53 19.5t17 29.5h-99v100h187v-76q0 -98 -132 -120z" />
    <glyph glyph-name="uni0237" unicode="&#x237;" horiz-adv-x="368" 
d="M48 -211q-58 0 -86 9v137q23 -4 61 -4q36 0 53.5 23.5t17.5 77.5v468h192v-493q0 -109 -55 -163.5t-183 -54.5z" />
    <glyph glyph-name="uni0243" unicode="&#x243;" horiz-adv-x="948" 
d="M748 362q158 -26 158 -166q0 -92 -70.5 -144t-197.5 -52h-2v-105h-79v105h-175v-105h-78v105h-212v695h212v93h78v-93h175v93h79v-93q123 -1 187.5 -46t64.5 -132q0 -60 -37 -100.5t-103 -54.5zM579 567h-288v-157h289q99 0 99 80q0 77 -100 77zM589 128q109 0 109 83
q0 39 -29 60t-82 21h-296v-164h298z" />
    <glyph glyph-name="circumflex" unicode="&#x2c6;" horiz-adv-x="600" 
d="M547 573h-154l-102 101l-102 -101h-154l156 157h200z" />
    <glyph glyph-name="caron" unicode="&#x2c7;" horiz-adv-x="600" 
d="M35 725h154l102 -101l102 101h154l-156 -157h-200z" />
    <glyph glyph-name="breve" unicode="&#x2d8;" horiz-adv-x="600" 
d="M185 730q9 -78 93 -78q83 0 92 78h130q-7 -80 -65 -121t-157 -41q-100 0 -158 41t-65 121h130z" />
    <glyph glyph-name="dotaccent" unicode="&#x2d9;" horiz-adv-x="600" 
d="M50 573v154h203v-154h-203z" />
    <glyph glyph-name="ring" unicode="&#x2da;" horiz-adv-x="600" 
d="M218 557q-87 0 -135.5 32.5t-48.5 88.5q0 55 48.5 88t135.5 33q88 0 136.5 -33t48.5 -88q0 -56 -48.5 -88.5t-136.5 -32.5zM218 623q43 0 66.5 15t23.5 40t-23.5 40t-66.5 15t-66 -15t-23 -40t23 -40t66 -15z" />
    <glyph glyph-name="ogonek" unicode="&#x2db;" horiz-adv-x="600" 
d="M395 -106q-8 -48 -55.5 -75t-125.5 -27q-76 0 -120 27t-44 74q0 80 119 112l160 -5q-76 -7 -112.5 -32t-36.5 -57q0 -19 13 -31.5t33 -12.5q42 0 54 43z" />
    <glyph glyph-name="tilde" unicode="&#x2dc;" horiz-adv-x="600" 
d="M433 584q-55 0 -115.5 29.5t-89.5 29.5q-55 0 -70 -63l-102 41q28 124 158 124q56 0 116 -29.5t89 -29.5q55 0 70 63l102 -41q-29 -124 -158 -124z" />
    <glyph glyph-name="hungarumlaut" unicode="&#x2dd;" horiz-adv-x="600" 
d="M79 573l155 157h153l-166 -157h-142zM311 573l155 157h153l-166 -157h-142z" />
    <glyph glyph-name="gravecomb" unicode="&#x300;" horiz-adv-x="0" 
d="M8 573h-162l-198 157h196z" />
    <glyph glyph-name="acutecomb" unicode="&#x301;" horiz-adv-x="0" 
d="M-354 573l163 157h196l-198 -157h-161z" />
    <glyph glyph-name="uni0302" unicode="&#x302;" horiz-adv-x="0" 
d="M-35 573h-154l-102 101l-102 -101h-154l156 157h200z" />
    <glyph glyph-name="tildecomb" unicode="&#x303;" horiz-adv-x="0" 
d="M-214 584q-55 0 -115.5 29.5t-89.5 29.5q-55 0 -70 -63l-102 41q28 124 158 124q55 0 116 -29.5t89 -29.5q55 0 70 63l102 -41q-29 -124 -158 -124z" />
    <glyph glyph-name="uni0304" unicode="&#x304;" horiz-adv-x="0" 
d="M-553 593v104h497v-104h-497z" />
    <glyph glyph-name="uni0306" unicode="&#x306;" horiz-adv-x="0" 
d="M-369 730q9 -78 93 -78q83 0 92 78h130q-7 -80 -65 -121t-157 -41q-100 0 -158 41t-65 121h130z" />
    <glyph glyph-name="uni0307" unicode="&#x307;" horiz-adv-x="0" 
d="M-254 573v154h203v-154h-203z" />
    <glyph glyph-name="uni0308" unicode="&#x308;" horiz-adv-x="0" 
d="M-550 579v143h181v-143h-181zM-219 579v143h181v-143h-181z" />
    <glyph glyph-name="uni030A" unicode="&#x30a;" horiz-adv-x="0" 
d="M-219 557q-87 0 -135.5 32.5t-48.5 88.5q0 55 48.5 88t135.5 33q88 0 136.5 -33t48.5 -88q0 -56 -48.5 -88.5t-136.5 -32.5zM-219 623q43 0 66.5 15t23.5 40t-23.5 40t-66.5 15t-66 -15t-23 -40t23 -40t66 -15z" />
    <glyph glyph-name="uni030B" unicode="&#x30b;" horiz-adv-x="0" 
d="M-568 573l155 157h153l-166 -157h-142zM-336 573l155 157h153l-166 -157h-142z" />
    <glyph glyph-name="uni030C" unicode="&#x30c;" horiz-adv-x="0" 
d="M-547 725h154l102 -101l102 101h154l-156 -157h-200z" />
    <glyph glyph-name="uni0312" unicode="&#x312;" horiz-adv-x="0" 
d="M-105 768l26 -47q-38 -9 -53 -19.5t-17 -29.5h99v-100h-187v76q0 98 132 120z" />
    <glyph glyph-name="uni0326" unicode="&#x326;" horiz-adv-x="0" 
d="M-182 -244l-26 47q38 9 53 19.5t17 29.5h-99v100h187v-76q0 -98 -132 -120z" />
    <glyph glyph-name="uni0327" unicode="&#x327;" horiz-adv-x="0" 
d="M-300 3h90l-48 -60q31 16 77 16q62 0 96.5 -24.5t34.5 -67.5q0 -46 -46 -71t-128 -25q-113 0 -156 57l92 28q21 -24 65 -24q52 0 52 35t-50 35q-35 0 -52 -16l-94 18z" />
    <glyph glyph-name="uni0328" unicode="&#x328;" horiz-adv-x="0" 
d="M-51 -106q-8 -48 -55.5 -75t-125.5 -27q-76 0 -120 27t-44 74q0 80 119 112l160 -5q-76 -7 -112.5 -32t-36.5 -57q0 -19 13 -31.5t33 -12.5q42 0 54 43z" />
    <glyph glyph-name="uni0394" unicode="&#x394;" horiz-adv-x="982" 
d="M16 0l383 705h185l382 -705h-950zM490 535l-209 -395h416z" />
    <glyph glyph-name="uni03A9" unicode="&#x3a9;" horiz-adv-x="954" 
d="M894 0h-351l-22 266q89 10 134 52.5t45 110.5q0 74 -58 118.5t-165 44.5q-106 0 -164.5 -44.5t-58.5 -118.5q0 -68 45 -110.5t134 -52.5l-22 -266h-351v141h207l5 44q-105 24 -164 87t-59 160q0 135 117 216t311 81t311.5 -81t117.5 -216q0 -97 -59.5 -160t-164.5 -87
l5 -44h207v-141z" />
    <glyph glyph-name="uni03BC" unicode="&#x3bc;" horiz-adv-x="889" 
d="M614 500h193v-500h-189v117q-34 -67 -104 -101.5t-162 -34.5q-49 0 -95 11v-187h-175v695h192v-225q0 -84 42 -122t112 -38q92 0 139 49t47 123v213z" />
    <glyph glyph-name="pi" unicode="&#x3c0;" horiz-adv-x="941" 
d="M917 1q-52 -13 -107 -13q-114 0 -156 43t-42 122v227h-276v-380h-192v380h-121v120h895v-120h-114v-204q0 -60 65 -60q15 0 31 2.5t17 2.5v-120z" />
    <glyph glyph-name="uni0E3F" unicode="&#xe3f;" horiz-adv-x="948" 
d="M745 360q161 -24 161 -163q0 -95 -71 -146t-197 -51h-124v-105h-72v105h-350v695h350v93h72v-93h117q257 0 257 -178q0 -59 -37.5 -100.5t-105.5 -56.5zM281 575v-173h161v173h-161zM589 575h-75v-173h75q100 0 100 90q0 83 -100 83zM281 120h161v177h-161v-177zM600 120
q107 0 107 90q0 42 -28.5 64.5t-80.5 22.5h-84v-177h86z" />
    <glyph glyph-name="Wgrave" unicode="&#x1e80;" horiz-adv-x="1356" 
d="M758 760h-167l-180 118h196zM264 0l-246 710h205l142 -459q13 -51 14 -68h4q3 21 20 68l170 459h210l170 -459q17 -47 20 -68h3q1 13 15 68l142 459h205l-246 -710h-230l-166 454q-13 32 -16 62h-4q-3 -30 -16 -62l-166 -454h-230z" />
    <glyph glyph-name="wgrave" unicode="&#x1e81;" horiz-adv-x="1138" 
d="M656 573h-162l-198 157h196zM219 0l-207 500h193l110 -305q8 -27 13 -54h2q3 23 15 54l127 305h195l126 -305q12 -31 15 -54h2q5 27 13 54l110 305h193l-207 -500h-209l-122 288q-14 34 -17 61h-4q-3 -27 -17 -61l-121 -288h-210z" />
    <glyph glyph-name="Wacute" unicode="&#x1e82;" horiz-adv-x="1356" 
d="M594 760l151 118h196l-180 -118h-167zM264 0l-246 710h205l142 -459q13 -51 14 -68h4q3 21 20 68l170 459h210l170 -459q17 -47 20 -68h3q1 13 15 68l142 459h205l-246 -710h-230l-166 454q-13 32 -16 62h-4q-3 -30 -16 -62l-166 -454h-230z" />
    <glyph glyph-name="wacute" unicode="&#x1e83;" horiz-adv-x="1138" 
d="M483 573l163 157h196l-198 -157h-161zM219 0l-207 500h193l110 -305q8 -27 13 -54h2q3 23 15 54l127 305h195l126 -305q12 -31 15 -54h2q5 27 13 54l110 305h193l-207 -500h-209l-122 288q-14 34 -17 61h-4q-3 -27 -17 -61l-121 -288h-210z" />
    <glyph glyph-name="Wdieresis" unicode="&#x1e84;" horiz-adv-x="1356" 
d="M424 760v118h181v-118h-181zM752 760v118h181v-118h-181zM264 0l-246 710h205l142 -459q13 -51 14 -68h4q3 21 20 68l170 459h210l170 -459q17 -47 20 -68h3q1 13 15 68l142 459h205l-246 -710h-230l-166 454q-13 32 -16 62h-4q-3 -30 -16 -62l-166 -454h-230z" />
    <glyph glyph-name="wdieresis" unicode="&#x1e85;" horiz-adv-x="1138" 
d="M313 579v143h181v-143h-181zM644 579v143h181v-143h-181zM219 0l-207 500h193l110 -305q8 -27 13 -54h2q3 23 15 54l127 305h195l126 -305q12 -31 15 -54h2q5 27 13 54l110 305h193l-207 -500h-209l-122 288q-14 34 -17 61h-4q-3 -27 -17 -61l-121 -288h-210z" />
    <glyph glyph-name="Ygrave" unicode="&#x1ef2;" horiz-adv-x="895" 
d="M530 760h-167l-180 118h196zM345 0v241l-354 469h229l205 -289q20 -27 24 -39h2q4 15 23 39l213 289h217l-357 -469v-241h-202z" />
    <glyph glyph-name="ygrave" unicode="&#x1ef3;" horiz-adv-x="773" 
d="M474 573h-162l-198 157h196zM168 -214q-64 0 -119 11v143q54 -10 95 -10q44 0 87.5 16.5t64.5 44.5l2 6l-304 503h215l158 -299q17 -34 25 -57h4q5 13 24 54l152 302h207l-291 -524q-54 -101 -128.5 -145.5t-191.5 -44.5z" />
    <glyph glyph-name="uni2002" unicode="&#x2002;" horiz-adv-x="500" 
 />
    <glyph glyph-name="uni2003" unicode="&#x2003;" horiz-adv-x="1000" 
 />
    <glyph glyph-name="uni2004" unicode="&#x2004;" horiz-adv-x="333" 
 />
    <glyph glyph-name="uni2005" unicode="&#x2005;" horiz-adv-x="250" 
 />
    <glyph glyph-name="uni2009" unicode="&#x2009;" horiz-adv-x="135" 
 />
    <glyph glyph-name="uni200A" unicode="&#x200a;" horiz-adv-x="75" 
 />
    <glyph glyph-name="endash" unicode="&#x2013;" horiz-adv-x="790" 
d="M46 358h698v-161h-698v161z" />
    <glyph glyph-name="emdash" unicode="&#x2014;" horiz-adv-x="1069" 
d="M46 361h977v-167h-977v167z" />
    <glyph glyph-name="quoteleft" unicode="&#x2018;" horiz-adv-x="328" 
d="M229 734l19 -74q-87 -17 -87 -85v-5h102v-180h-197v167q0 71 38.5 118.5t124.5 58.5z" />
    <glyph glyph-name="quoteright" unicode="&#x2019;" horiz-adv-x="328" 
d="M100 366l-20 74q87 16 87 85v5h-101v180h197v-167q0 -155 -163 -177z" />
    <glyph glyph-name="quotesinglbase" unicode="&#x201a;" horiz-adv-x="328" 
d="M100 -164l-20 74q87 16 87 85v5h-101v180h197v-167q0 -71 -39 -118.5t-124 -58.5z" />
    <glyph glyph-name="quotedblleft" unicode="&#x201c;" horiz-adv-x="588" 
d="M229 734l19 -74q-87 -17 -87 -85v-5h102v-180h-197v167q0 71 38.5 118.5t124.5 58.5zM488 734l20 -74q-87 -16 -87 -85v-5h101v-180h-197v167q0 71 39 118.5t124 58.5z" />
    <glyph glyph-name="quotedblright" unicode="&#x201d;" horiz-adv-x="588" 
d="M100 366l-20 74q87 16 87 85v5h-101v180h197v-167q0 -155 -163 -177zM359 366l-20 74q88 16 88 85v5h-102v180h197v-167q0 -71 -38.5 -118.5t-124.5 -58.5z" />
    <glyph glyph-name="quotedblbase" unicode="&#x201e;" horiz-adv-x="588" 
d="M100 -164l-20 74q87 16 87 85v5h-101v180h197v-167q0 -71 -39 -118.5t-124 -58.5zM359 -164l-20 74q88 16 88 85v5h-102v180h197v-167q0 -71 -38.5 -118.5t-124.5 -58.5z" />
    <glyph glyph-name="dagger" unicode="&#x2020;" horiz-adv-x="654" 
d="M390 396v-468h-127v468h-225v104h225v220h127v-220h226v-104h-226z" />
    <glyph glyph-name="daggerdbl" unicode="&#x2021;" horiz-adv-x="654" 
d="M616 396h-226v-144h226v-104h-226v-220h-127v220h-225v104h225v144h-225v104h225v220h127v-220h226v-104z" />
    <glyph glyph-name="bullet" unicode="&#x2022;" horiz-adv-x="393" 
d="M196 211q-57 0 -93.5 35.5t-36.5 91.5q0 59 36.5 95t93.5 36t94 -36t37 -95q0 -56 -37 -91.5t-94 -35.5z" />
    <glyph glyph-name="ellipsis" unicode="&#x2026;" horiz-adv-x="1100" 
d="M275 162v-162h-209v162h209zM654 162v-162h-208v162h208zM1034 162v-162h-209v162h209z" />
    <glyph glyph-name="perthousand" unicode="&#x2030;" horiz-adv-x="1739" 
d="M145 -17l749 743h151l-750 -743h-150zM284 332q-119 0 -190.5 53t-71.5 142q0 86 71.5 139t189.5 53q115 0 188 -54t73 -141q0 -86 -72.5 -139t-187.5 -53zM284 432q49 0 79 25t30 67q0 44 -30 69.5t-80 25.5q-51 0 -81.5 -25t-30.5 -67q0 -44 30.5 -69.5t82.5 -25.5z
M900 -18q-118 0 -190 53t-72 142q0 86 72 139t189 53q115 0 188 -54t73 -141q0 -86 -72.5 -139t-187.5 -53zM1456 -18q-118 0 -189.5 53t-71.5 142q0 86 71.5 139t189.5 53q115 0 187.5 -54t72.5 -141q0 -86 -72.5 -139t-187.5 -53zM900 82q50 0 79.5 24.5t29.5 67.5
q0 44 -30 69.5t-80 25.5q-51 0 -81.5 -25t-30.5 -67q0 -44 30.5 -69.5t82.5 -25.5zM1456 82q50 0 80 25t30 67q0 44 -30 69.5t-80 25.5q-51 0 -81.5 -24.5t-30.5 -67.5q0 -45 30 -70t82 -25z" />
    <glyph glyph-name="guilsinglleft" unicode="&#x2039;" horiz-adv-x="470" 
d="M266 67l-242 209l247 206h182l-244 -205l241 -210h-184z" />
    <glyph glyph-name="guilsinglright" unicode="&#x203a;" horiz-adv-x="470" 
d="M204 67h-184l241 210l-244 205h182l246 -206z" />
    <glyph glyph-name="fraction" unicode="&#x2044;" horiz-adv-x="264" 
d="M-240 -17l585 744h159l-585 -744h-159z" />
    <glyph glyph-name="uni20A9" unicode="&#x20a9;" horiz-adv-x="1399" 
d="M1369 379h-120l-22 -62h142v-63h-164l-89 -254h-220l-90 254h-213l-89 -254h-221l-89 254h-164v63h142l-22 62h-120v63h98l-89 253h187l74 -253h206l91 253h205l92 -253h206l74 253h186l-89 -253h98v-63zM663 452l-4 -10h81l-4 10q-24 68 -34 133h-5q-8 -58 -34 -133z
M318 379l18 -62h125l22 62h-165zM616 317h168l-22 62h-125zM1064 317l18 62h-166l23 -62h125zM433 239l5 15h-83l3 -11q24 -84 31 -137h5q7 49 39 133zM1042 243l3 11h-83l5 -15q33 -90 39 -133h4q9 56 32 137z" />
    <glyph glyph-name="Euro" unicode="&#x20ac;" horiz-adv-x="1010" 
d="M569 127q163 0 228 111l181 -68q-54 -89 -161.5 -139.5t-254.5 -50.5q-182 0 -295.5 76t-147.5 199h-114v64h103q-2 24 -2 36q0 17 1 25h-102v64h113q34 120 152.5 195.5t301.5 75.5q144 0 250.5 -49.5t155.5 -134.5l-185 -61q-60 98 -224 98q-189 0 -243 -124h362v-64
h-378q-1 -8 -1 -25q0 -12 2 -36h377v-64h-359q56 -128 240 -128z" />
    <glyph glyph-name="uni20B9" unicode="&#x20b9;" horiz-adv-x="911" 
d="M856 584h-236q26 -36 32 -85h204v-70h-205q-13 -81 -82 -132.5t-208 -54.5h-23l297 -242h-246l-310 263v78h206q135 0 155 88h-361v70h361q-20 85 -141 85h-220v111h777v-111z" />
    <glyph glyph-name="uni20BA" unicode="&#x20ba;" horiz-adv-x="839" 
d="M643 281l190 -23q-23 -85 -61 -139t-111 -86.5t-183 -32.5h-340v268l-115 -23v69l115 23v70l-115 -23v68l115 23v220h200v-180l317 63v-69l-317 -63v-70l317 63v-68l-317 -63v-165h107q83 0 132 38t66 100z" />
    <glyph glyph-name="uni20BD" unicode="&#x20bd;" horiz-adv-x="907" 
d="M603 238h-274v-68h283v-70h-283v-100h-199v100h-124v70h124v68h-123v128h123v329h471q135 0 212.5 -59.5t77.5 -164.5q0 -107 -77.5 -170t-210.5 -63zM329 560v-194h227q59 0 91.5 26t32.5 72t-32 71t-91 25h-228z" />
    <glyph glyph-name="uni2105" unicode="&#x2105;" horiz-adv-x="1219" 
d="M24 537q0 87 72 140t190 53q102 0 170.5 -39.5t85.5 -107.5l-159 -16q-19 57 -97 57q-48 0 -77 -23.5t-29 -63.5q0 -42 29 -65.5t78 -23.5q79 0 97 59l160 -11q-13 -70 -83 -112t-174 -42q-120 0 -191.5 53t-71.5 142zM322 -14h-179l751 744h179zM934 -13
q-118 0 -189.5 52.5t-71.5 142.5q0 87 71.5 140t188.5 53q116 0 188.5 -53.5t72.5 -142.5q0 -87 -72.5 -139.5t-187.5 -52.5zM1036 179q0 42 -28 66t-75 24q-48 0 -76.5 -23.5t-28.5 -63.5q0 -42 29 -65.5t77 -23.5q47 0 74.5 23t27.5 63z" />
    <glyph glyph-name="uni2113" unicode="&#x2113;" horiz-adv-x="659" 
d="M330 220q20 -96 146 -96q44 0 107 13v-137q-66 -16 -139 -16q-146 0 -212.5 46.5t-79.5 138.5q-73 -16 -129 -26l-35 123q115 24 160 35v203q0 81 37.5 134.5t92 74.5t123.5 21q116 0 175.5 -55.5t59.5 -151.5q0 -197 -306 -307zM325 524v-170q69 29 104.5 69.5
t35.5 98.5q0 89 -69 89q-34 0 -52.5 -22.5t-18.5 -64.5z" />
    <glyph glyph-name="uni2116" unicode="&#x2116;" horiz-adv-x="1665" 
d="M92 0v710h215l371 -403q34 -38 56 -81h4v102v382h183v-710h-201l-385 408q-40 44 -56 81h-4v-99v-390h-183zM1286 199q-144 0 -229.5 63.5t-85.5 165.5q0 103 84.5 165.5t230.5 62.5q145 0 230 -62.5t85 -165.5q0 -102 -85.5 -165.5t-229.5 -63.5zM1286 316
q70 0 110.5 30.5t40.5 81.5q0 50 -40.5 80t-110.5 30t-111 -30t-41 -80t40.5 -80.5t111.5 -31.5zM977 0v118h618v-118h-618z" />
    <glyph glyph-name="trademark" unicode="&#x2122;" horiz-adv-x="1112" 
d="M165 307v309h-159v97h452v-97h-165v-309h-128zM507 307v406h181l79 -214q16 -48 24 -86h2q8 39 25 86l78 214h181v-406h-112v228q0 39 3 89h-1q-8 -23 -26 -75l-92 -242h-114l-92 242q-17 47 -25 75h-2q3 -49 3 -89v-228h-112z" />
    <glyph glyph-name="uni2126" unicode="&#x2126;" horiz-adv-x="954" 
d="M894 0h-351l-22 266q89 10 134 52.5t45 110.5q0 74 -58 118.5t-165 44.5q-106 0 -164.5 -44.5t-58.5 -118.5q0 -68 45 -110.5t134 -52.5l-22 -266h-351v141h207l5 44q-105 24 -164 87t-59 160q0 135 117 216t311 81t311.5 -81t117.5 -216q0 -97 -59.5 -160t-164.5 -87
l5 -44h207v-141z" />
    <glyph glyph-name="estimated" unicode="&#x212e;" horiz-adv-x="907" 
d="M886 345h-623v-248q88 -44 214 -44q109 0 187 32t141 103l61 -45q-131 -163 -389 -163q-93 0 -173 21.5t-144.5 65t-101.5 116.5t-37 168q0 90 36.5 162.5t99 117.5t143 69t171.5 24q190 0 302.5 -92.5t112.5 -244.5v-42zM672 613q-80 44 -206 44q-116 0 -203 -44v-199
h409v199z" />
    <glyph glyph-name="uni2153" unicode="&#x2153;" horiz-adv-x="1147" 
d="M111 -17l585 744h159l-585 -744h-159zM155 317v251q-32 -26 -102 -26h-30v100h17q97 0 131 68h101v-393h-117zM879 -14q-107 0 -168.5 37t-67.5 104l119 11q14 -67 117 -67q110 0 110 47q0 23 -22 32.5t-77 9.5h-60v76h62q87 0 87 40q0 47 -99 47q-108 0 -115 -69
l-118 13q5 66 66 103t168 37q101 0 161 -31t60 -88q0 -38 -28.5 -60t-76.5 -26q116 -13 116 -91q0 -58 -64 -91.5t-170 -33.5z" />
    <glyph glyph-name="uni2154" unicode="&#x2154;" horiz-adv-x="1332" 
d="M296 -17l585 744h159l-585 -744h-159zM29 317v83q198 61 256 91q77 39 77 84q0 29 -27 46t-73 17t-75 -19t-29 -56q0 -10 3 -19l-123 12q-3 12 -3 22q0 66 64.5 106t162.5 40q104 0 165 -36.5t61 -104.5q0 -115 -233 -174h242v-92h-468zM1064 -14q-107 0 -168.5 37
t-67.5 104l119 11q14 -67 117 -67q110 0 110 47q0 23 -22 32.5t-77 9.5h-60v76h62q87 0 87 40q0 47 -99 47q-107 0 -115 -69l-118 13q5 66 66 103t168 37q101 0 161 -31t60 -88q0 -38 -28.5 -60t-76.5 -26q116 -13 116 -91q0 -58 -64 -91.5t-170 -33.5z" />
    <glyph glyph-name="oneeighth" unicode="&#x215b;" horiz-adv-x="1155" 
d="M696 727h159l-585 -744h-159zM155 317v251q-32 -26 -102 -26h-30v100h17q97 0 131 68h101v-393h-117zM1025 216q53 -16 76 -41.5t23 -63.5q0 -59 -62.5 -92t-172.5 -33q-115 0 -178.5 30.5t-63.5 85.5q0 72 102 93q-47 16 -67.5 39t-20.5 57q0 53 61 84.5t165 31.5
q102 0 162.5 -30t60.5 -80q0 -29 -22.5 -50t-62.5 -31zM887 334q-105 0 -105 -42q0 -18 21 -29.5t72 -18.5l56 -8l7 -1q51 23 51 52q0 47 -102 47zM889 65q52 0 82 13t30 36q0 20 -20 30.5t-89 21.5l-55 9q-67 -19 -67 -59q0 -51 119 -51z" />
    <glyph glyph-name="threeeighths" unicode="&#x215c;" horiz-adv-x="1337" 
d="M878 727h159l-585 -744h-159zM498 428q0 -58 -64 -91.5t-170 -33.5q-107 0 -168.5 37t-67.5 104l119 10q15 -67 117 -67q110 0 110 47q0 24 -22 33.5t-77 9.5h-60v76h62q87 0 87 40q0 47 -99 47q-107 0 -115 -69l-118 13q5 66 66 103t168 37q101 0 161 -31t60 -88
q0 -38 -28.5 -60t-76.5 -26q116 -13 116 -91zM1206 216q53 -16 76 -41.5t23 -63.5q0 -59 -62.5 -92t-172.5 -33q-115 0 -178.5 30.5t-63.5 85.5q0 72 102 93q-47 16 -67.5 39t-20.5 57q0 53 61 84.5t165 31.5q102 0 162.5 -30t60.5 -80q0 -29 -22.5 -50t-62.5 -31zM1068 334
q-105 0 -105 -42q0 -18 21 -29.5t72 -18.5l56 -8l7 -1q51 23 51 52q0 47 -102 47zM1070 65q52 0 82 13t30 36q0 20 -20 30.5t-89 21.5l-55 9q-67 -19 -67 -59q0 -51 119 -51z" />
    <glyph glyph-name="fiveeighths" unicode="&#x215d;" horiz-adv-x="1327" 
d="M867 727h159l-585 -744h-159zM491 453q0 -69 -62 -109.5t-168 -40.5q-95 0 -155.5 31.5t-73.5 87.5l118 16q15 -51 114 -51q105 0 105 66q0 61 -101 61q-83 0 -109 -41l-108 9l29 228h378v-73h-286l-14 -92q38 48 149 48q88 0 136 -36.5t48 -103.5zM1196 216
q53 -16 76 -41.5t23 -63.5q0 -59 -62.5 -92t-172.5 -33q-115 0 -178.5 30.5t-63.5 85.5q0 72 102 93q-47 16 -67.5 39t-20.5 57q0 53 61 84.5t165 31.5q102 0 162.5 -30t60.5 -80q0 -29 -22.5 -50t-62.5 -31zM1058 334q-105 0 -105 -42q0 -18 21 -29.5t72 -18.5l56 -8l7 -1
q51 23 51 52q0 47 -102 47zM1060 65q52 0 82 13t30 36q0 20 -20 30.5t-89 21.5l-55 9q-67 -19 -67 -59q0 -51 119 -51z" />
    <glyph glyph-name="seveneighths" unicode="&#x215e;" horiz-adv-x="1219" 
d="M760 727h159l-585 -744h-159zM121 317q15 191 203 303h-305v90h430v-84q-86 -50 -137.5 -130t-58.5 -178v-1h-132zM1088 216q53 -16 76 -41.5t23 -63.5q0 -59 -62.5 -92t-172.5 -33q-115 0 -178.5 30.5t-63.5 85.5q0 72 102 93q-47 16 -67.5 39t-20.5 57q0 53 61 84.5
t165 31.5q102 0 162.5 -30t60.5 -80q0 -29 -22.5 -50t-62.5 -31zM950 334q-105 0 -105 -42q0 -18 21 -29.5t72 -18.5l56 -8l7 -1q51 23 51 52q0 47 -102 47zM952 65q52 0 82 13t30 36q0 20 -20 30.5t-89 21.5l-55 9q-67 -19 -67 -59q0 -51 119 -51z" />
    <glyph glyph-name="arrowleft" unicode="&#x2190;" horiz-adv-x="1243" 
d="M1151 283h-854v-107l-205 154l205 154v-107h854v-94z" />
    <glyph glyph-name="arrowup" unicode="&#x2191;" horiz-adv-x="492" 
d="M196 -35v580h-104l154 205l154 -205h-104v-580h-100z" />
    <glyph glyph-name="arrowright" unicode="&#x2192;" horiz-adv-x="1243" 
d="M92 377h854v107l205 -154l-205 -154v107h-854v94z" />
    <glyph glyph-name="arrowdown" unicode="&#x2193;" horiz-adv-x="492" 
d="M296 745v-580h104l-154 -205l-154 205h104v580h100z" />
    <glyph glyph-name="arrowboth" unicode="&#x2194;" horiz-adv-x="1121" 
d="M824 283h-527v-107l-205 154l205 154v-107h527v107l205 -154l-205 -154v107z" />
    <glyph glyph-name="arrowupdn" unicode="&#x2195;" horiz-adv-x="492" 
d="M92 168h104v377h-104l154 205l154 -205h-104v-377h104l-154 -205z" />
    <glyph glyph-name="uni2196" unicode="&#x2196;" horiz-adv-x="915" 
d="M183 549l-91 -103v264h249l-89 -90l572 -572l-68 -72z" />
    <glyph glyph-name="uni2197" unicode="&#x2197;" horiz-adv-x="915" 
d="M733 550l-573 -573l-68 72l572 572l-90 90h250v-264z" />
    <glyph glyph-name="uni2198" unicode="&#x2198;" horiz-adv-x="915" 
d="M733 172l91 103v-264h-250l90 90l-572 572l68 72z" />
    <glyph glyph-name="uni2199" unicode="&#x2199;" horiz-adv-x="915" 
d="M183 172l573 573l68 -72l-572 -572l89 -90h-249v264z" />
    <glyph glyph-name="uni21A9" unicode="&#x21a9;" horiz-adv-x="1260" 
d="M297 176l-205 154l205 154v-107h593q175 0 175 119q0 113 -175 113h-443v94h441q141 0 211 -54t70 -153q0 -213 -299 -213h-573v-107z" />
    <glyph glyph-name="uni21AA" unicode="&#x21aa;" horiz-adv-x="1260" 
d="M963 176v107h-573q-298 0 -298 213q0 99 69.5 153t210.5 54h442v-94h-443q-176 0 -176 -113q0 -119 176 -119h592v107l206 -154z" />
    <glyph glyph-name="uni21B0" unicode="&#x21b0;" horiz-adv-x="1244" 
d="M1051 0v553h-754v-107l-205 154l205 154v-107h855v-647h-101z" />
    <glyph glyph-name="uni21B1" unicode="&#x21b1;" horiz-adv-x="1244" 
d="M193 0h-101v647h855v107l205 -154l-205 -154v107h-754v-553z" />
    <glyph glyph-name="uni21B2" unicode="&#x21b2;" horiz-adv-x="1244" 
d="M1051 710h101v-647h-855v-107l-205 154l205 154v-107h754v553z" />
    <glyph glyph-name="uni21B3" unicode="&#x21b3;" horiz-adv-x="1244" 
d="M193 710v-553h754v107l205 -154l-205 -154v107h-855v647h101z" />
    <glyph glyph-name="uni21B4" unicode="&#x21b4;" horiz-adv-x="1347" 
d="M1151 732v-557h104l-154 -206l-155 206h104v463h-958v94h1059z" />
    <glyph glyph-name="uni21BB" unicode="&#x21bb;" horiz-adv-x="1244" 
d="M998 188l-154 205h105q-17 118 -121 189t-257 71q-166 0 -272 -83t-106 -217t106.5 -218t271.5 -84q93 0 173.5 28.5t133.5 79.5l66 -70q-139 -128 -373 -128q-213 0 -346 111t-133 280q0 170 133 281t346 111q200 0 330.5 -98t148.5 -253h102z" />
    <glyph glyph-name="uni21C4" unicode="&#x21c4;" horiz-adv-x="1303" 
d="M1147 411h-850v-107l-205 154l205 155v-107h850v-95zM1006 249v107l205 -154l-205 -155v107h-848v95h848z" />
    <glyph glyph-name="uni21C5" unicode="&#x21c5;" horiz-adv-x="780" 
d="M483 15v536h-104l155 205l154 -205h-104v-536h-101zM246 -40l-154 205h104v537h100v-537h104z" />
    <glyph glyph-name="partialdiff" unicode="&#x2202;" horiz-adv-x="833" 
d="M344 721q212 0 323.5 -99.5t111.5 -283.5q0 -169 -104 -262t-299 -93q-156 0 -250 67.5t-94 179.5q0 106 83 168t229 62q162 0 249 -84q-4 97 -67.5 149.5t-181.5 52.5q-87 0 -171 -32l-61 128q100 47 232 47zM387 107q85 0 141.5 40t63.5 112q-65 77 -204 77
q-82 0 -125.5 -29.5t-43.5 -81.5q0 -53 45.5 -85.5t122.5 -32.5z" />
    <glyph glyph-name="emptyset" unicode="&#x2205;" horiz-adv-x="672" 
d="M579 459q63 -61 63 -153q0 -108 -83.5 -173t-222.5 -65q-110 0 -190 43l-75 -60l-47 45l69 55q-62 62 -62 153q0 108 83 173t222 65q113 0 190 -43l75 60l47 -45zM173 306q0 -43 23 -72l228 183q-38 16 -88 16q-75 0 -119 -34.5t-44 -92.5zM336 177q75 0 119 34.5
t44 92.5q0 43 -23 72l-227 -183q38 -16 87 -16z" />
    <glyph glyph-name="uni2206" unicode="&#x2206;" horiz-adv-x="982" 
d="M16 0l383 705h185l382 -705h-950zM490 535l-209 -395h416z" />
    <glyph glyph-name="product" unicode="&#x220f;" horiz-adv-x="965" 
d="M687 -88v637h-408v-637h-192v793h791v-793h-191z" />
    <glyph glyph-name="summation" unicode="&#x2211;" horiz-adv-x="844" 
d="M50 -88v134l348 278l-335 248v133h717v-142h-464l323 -236l-353 -273h506v-142h-742z" />
    <glyph glyph-name="minus" unicode="&#x2212;" horiz-adv-x="709" 
d="M46 269v119h617v-119h-617z" />
    <glyph glyph-name="radical" unicode="&#x221a;" horiz-adv-x="830" 
d="M16 364h241l109 -282l256 652h197l-346 -828h-207l-128 303h-122v155z" />
    <glyph glyph-name="infinity" unicode="&#x221e;" horiz-adv-x="818" 
d="M598 499q82 0 133 -46t51 -124q0 -77 -52.5 -124.5t-133.5 -47.5q-109 0 -189 85q-82 -85 -187 -85q-82 0 -133 46t-51 124q0 76 52.5 124t132.5 48q110 0 190 -85q82 85 187 85zM236 264q55 0 106 65q-48 64 -108 64q-34 0 -55.5 -17.5t-21.5 -47.5t22.5 -47t56.5 -17z
M584 263q34 0 55.5 17.5t21.5 47.5t-22.5 47t-56.5 17q-55 0 -106 -65q48 -64 108 -64z" />
    <glyph glyph-name="integral" unicode="&#x222b;" horiz-adv-x="563" 
d="M99 -115q-39 0 -84 8v137q38 -4 60 -4q54 0 80.5 27.5t26.5 92.5v338q0 118 71 180t204 62q47 0 85 -7v-138q-25 5 -61 5q-55 0 -81 -27.5t-26 -93.5v-340q0 -117 -72 -178.5t-203 -61.5z" />
    <glyph glyph-name="approxequal" unicode="&#x2248;" 
d="M551 344q-53 0 -152.5 32.5t-140.5 32.5q-93 0 -155 -50v110q26 22 68.5 36t83.5 14q63 0 158 -32.5t135 -32.5q93 0 153 50v-111q-24 -21 -66.5 -35t-83.5 -14zM551 149q-53 0 -152.5 32.5t-140.5 32.5q-93 0 -155 -50v111q26 21 68.5 35t83.5 14q63 0 158 -32.5
t135 -32.5q93 0 153 50v-110q-24 -22 -66.5 -36t-83.5 -14z" />
    <glyph glyph-name="notequal" unicode="&#x2260;" 
d="M699 371h-232l-43 -84h275v-108h-331l-60 -116h-91l60 116h-176v108h232l43 84h-275v108h331l58 112h91l-58 -112h176v-108z" />
    <glyph glyph-name="lessequal" unicode="&#x2264;" 
d="M677 140l-564 205v110l564 205v-125l-421 -134l421 -134v-127zM117 104h564v-104h-564v104z" />
    <glyph glyph-name="greaterequal" unicode="&#x2265;" 
d="M126 140v127l421 134l-421 134v125l565 -205v-110zM686 104v-104h-563v104h563z" />
    <glyph glyph-name="uni2460" unicode="&#x2460;" horiz-adv-x="930" 
d="M465 -24q-203 0 -323.5 101.5t-120.5 277.5t120.5 277.5t323.5 101.5t323.5 -101.5t120.5 -277.5t-120.5 -277.5t-323.5 -101.5zM465 39q168 0 270.5 85t102.5 231t-102.5 231t-270.5 85t-270.5 -85t-102.5 -231t102.5 -231t270.5 -85zM431 155v252q-32 -26 -103 -26h-29
v99h17q97 0 131 69h101v-394h-117z" />
    <glyph glyph-name="uni2461" unicode="&#x2461;" horiz-adv-x="930" 
d="M465 -24q-203 0 -323.5 101.5t-120.5 277.5t120.5 277.5t323.5 101.5t323.5 -101.5t120.5 -277.5t-120.5 -277.5t-323.5 -101.5zM465 39q168 0 270.5 85t102.5 231t-102.5 231t-270.5 85t-270.5 -85t-102.5 -231t102.5 -231t270.5 -85zM231 168v83q198 61 256 91
q77 39 77 84q0 29 -27 46t-73 17t-75 -19t-29 -55q0 -11 3 -20l-123 12q-3 12 -3 22q0 66 64.5 106t162.5 40q104 0 165 -36.5t61 -104.5q0 -115 -233 -174h242v-92h-468z" />
    <glyph glyph-name="uni2462" unicode="&#x2462;" horiz-adv-x="930" 
d="M465 -24q-203 0 -323.5 101.5t-120.5 277.5t120.5 277.5t323.5 101.5t323.5 -101.5t120.5 -277.5t-120.5 -277.5t-323.5 -101.5zM465 39q168 0 270.5 85t102.5 231t-102.5 231t-270.5 85t-270.5 -85t-102.5 -231t102.5 -231t270.5 -85zM466 145q-106 0 -167.5 36.5
t-68.5 103.5l120 11q13 -67 116 -67q111 0 111 47q0 23 -22 32.5t-77 9.5h-60v76h61q88 0 88 41q0 46 -100 46q-106 0 -115 -69l-117 13q5 66 65.5 103t168.5 37q100 0 160 -30.5t60 -87.5q0 -38 -28.5 -60t-76.5 -26q117 -13 117 -92q0 -58 -64.5 -91t-170.5 -33z" />
    <glyph glyph-name="uni2463" unicode="&#x2463;" horiz-adv-x="930" 
d="M465 -24q-203 0 -323.5 101.5t-120.5 277.5t120.5 277.5t323.5 101.5t323.5 -101.5t120.5 -277.5t-120.5 -277.5t-323.5 -101.5zM465 39q168 0 270.5 85t102.5 231t-102.5 231t-270.5 85t-270.5 -85t-102.5 -231t102.5 -231t270.5 -85zM699 247h-89v-82h-115v82h-303v74
l283 237h135v-231h89v-80zM495 479l-178 -152h178v152z" />
    <glyph glyph-name="uni2464" unicode="&#x2464;" horiz-adv-x="930" 
d="M465 -24q-203 0 -323.5 101.5t-120.5 277.5t120.5 277.5t323.5 101.5t323.5 -101.5t120.5 -277.5t-120.5 -277.5t-323.5 -101.5zM465 39q168 0 270.5 85t102.5 231t-102.5 231t-270.5 85t-270.5 -85t-102.5 -231t102.5 -231t270.5 -85zM459 152q-95 0 -155.5 31t-73.5 87
l118 16q16 -51 114 -51q50 0 77.5 17t27.5 49q0 61 -101 61q-84 0 -109 -40l-108 8l29 229h378v-74h-286l-14 -92q37 48 149 48q88 0 136 -36.5t48 -102.5q0 -69 -62 -109.5t-168 -40.5z" />
    <glyph glyph-name="uni2465" unicode="&#x2465;" horiz-adv-x="930" 
d="M465 734q203 0 323.5 -101.5t120.5 -277.5t-120.5 -277.5t-323.5 -101.5t-323.5 101.5t-120.5 277.5t120.5 277.5t323.5 101.5zM465 39q168 0 270.5 85t102.5 231t-102.5 231t-270.5 85t-270.5 -85t-102.5 -231t102.5 -231t270.5 -85zM495 430q95 0 147 -35t52 -103
q0 -65 -62.5 -106t-164.5 -41q-115 0 -179.5 54.5t-64.5 151.5q0 101 64.5 157.5t181.5 56.5q88 0 147.5 -25t74.5 -70l-122 -18q-26 39 -103 39q-115 0 -126 -105q57 44 155 44zM467 228q47 0 76.5 17.5t29.5 45.5q0 57 -102 57q-91 0 -125 -52q24 -68 121 -68z" />
    <glyph glyph-name="uni2466" unicode="&#x2466;" horiz-adv-x="930" 
d="M465 -24q-203 0 -323.5 101.5t-120.5 277.5t120.5 277.5t323.5 101.5t323.5 -101.5t120.5 -277.5t-120.5 -277.5t-323.5 -101.5zM465 39q168 0 270.5 85t102.5 231t-102.5 231t-270.5 85t-270.5 -85t-102.5 -231t102.5 -231t270.5 -85zM251 461v91h430v-84
q-86 -51 -137.5 -131t-58.5 -178v-1h-132q15 192 203 303h-305z" />
    <glyph glyph-name="uni2467" unicode="&#x2467;" horiz-adv-x="930" 
d="M465 734q203 0 323.5 -101.5t120.5 -277.5t-120.5 -277.5t-323.5 -101.5t-323.5 101.5t-120.5 277.5t120.5 277.5t323.5 101.5zM465 39q168 0 270.5 85t102.5 231t-102.5 231t-270.5 85t-270.5 -85t-102.5 -231t102.5 -231t270.5 -85zM606 375q52 -16 75 -41.5t23 -64.5
q0 -58 -62.5 -91t-172.5 -33q-115 0 -178.5 30.5t-63.5 84.5q0 73 103 94q-48 15 -68.5 38t-20.5 58q0 53 61 84t165 31q102 0 162.5 -30t60.5 -80q0 -28 -22.5 -49t-61.5 -31zM467 492q-105 0 -105 -42q0 -18 21 -29t72 -18l56 -8l7 -1q51 23 51 51q0 47 -102 47zM469 223
q52 0 82 13t30 36q0 20 -20 30.5t-88 22.5l-55 9q-68 -19 -68 -59q0 -52 119 -52z" />
    <glyph glyph-name="uni2468" unicode="&#x2468;" horiz-adv-x="930" 
d="M465 734q203 0 323.5 -101.5t120.5 -277.5t-120.5 -277.5t-323.5 -101.5t-323.5 101.5t-120.5 277.5t120.5 277.5t323.5 101.5zM465 39q168 0 270.5 85t102.5 231t-102.5 231t-270.5 85t-270.5 -85t-102.5 -231t102.5 -231t270.5 -85zM455 565q118 0 182 -53.5t64 -152.5
q0 -100 -65 -157t-181 -57q-87 0 -147 30t-75 81l121 18q22 -47 105 -47q118 0 126 111q-53 -45 -156 -45q-96 0 -147.5 34.5t-51.5 98.5t61.5 101.5t163.5 37.5zM452 373q93 0 123 47q-27 66 -118 66q-50 0 -78 -16t-28 -44q0 -53 101 -53z" />
    <glyph glyph-name="uni24EA" unicode="&#x24ea;" horiz-adv-x="930" 
d="M465 -24q-203 0 -323.5 101.5t-120.5 277.5t120.5 277.5t323.5 101.5t323.5 -101.5t120.5 -277.5t-120.5 -277.5t-323.5 -101.5zM465 39q168 0 270.5 85t102.5 231t-102.5 231t-270.5 85t-270.5 -85t-102.5 -231t102.5 -231t270.5 -85zM465 145q-114 0 -184.5 57
t-70.5 153t70.5 153t184.5 57t184.5 -57t70.5 -153t-70.5 -153t-184.5 -57zM465 231q61 0 97 31.5t36 92.5q0 62 -36 93.5t-97 31.5t-97 -32t-36 -93t36 -92.5t97 -31.5z" />
    <glyph glyph-name="uni24FF" unicode="&#x24ff;" horiz-adv-x="930" 
d="M465 -24q-203 0 -323.5 101.5t-120.5 277.5t120.5 277.5t323.5 101.5t323.5 -101.5t120.5 -277.5t-120.5 -277.5t-323.5 -101.5zM465 145q114 0 184.5 57t70.5 154q0 96 -70.5 152.5t-184.5 56.5q-115 0 -185 -56.5t-70 -153.5q0 -96 70.5 -153t184.5 -57zM465 232
q-60 0 -96 31.5t-36 91.5q0 62 36 93t96 31t95.5 -31t35.5 -92t-35.5 -92.5t-95.5 -31.5z" />
    <glyph glyph-name="lozenge" unicode="&#x25ca;" horiz-adv-x="729" 
d="M447 -17h-166l-267 372l267 371h166l269 -371zM364 584l-163 -229l163 -229l165 229z" />
    <glyph glyph-name="circle" unicode="&#x25cb;" horiz-adv-x="930" 
d="M465 -24q-203 0 -323.5 101.5t-120.5 277.5t120.5 277.5t323.5 101.5t323.5 -101.5t120.5 -277.5t-120.5 -277.5t-323.5 -101.5zM465 39q168 0 270.5 85t102.5 231t-102.5 231t-270.5 85t-270.5 -85t-102.5 -231t102.5 -231t270.5 -85z" />
    <glyph glyph-name="uni25CF" unicode="&#x25cf;" horiz-adv-x="930" 
d="M465 -24q-203 0 -323.5 101.5t-120.5 277.5t120.5 277.5t323.5 101.5t323.5 -101.5t120.5 -277.5t-120.5 -277.5t-323.5 -101.5z" />
    <glyph glyph-name="uni2776" unicode="&#x2776;" horiz-adv-x="930" 
d="M465 -24q-203 0 -323.5 101.5t-120.5 277.5t120.5 277.5t323.5 101.5t323.5 -101.5t120.5 -277.5t-120.5 -277.5t-323.5 -101.5zM430 155h119v394h-103q-32 -69 -130 -69h-17v-100h29q70 0 102 26v-251z" />
    <glyph glyph-name="uni2777" unicode="&#x2777;" horiz-adv-x="930" 
d="M465 -24q-203 0 -323.5 101.5t-120.5 277.5t120.5 277.5t323.5 101.5t323.5 -101.5t120.5 -277.5t-120.5 -277.5t-323.5 -101.5zM232 165h467v92h-242q232 62 232 175q0 69 -60.5 104.5t-164.5 35.5q-97 0 -162 -39.5t-65 -105.5q0 -10 3 -22l124 -11q-3 6 -3 18
q0 36 28.5 54.5t74.5 18.5t72 -16.5t26 -45.5q0 -26 -20 -47.5t-78 -46t-90 -35.5t-127 -41q-3 -1 -5 -1.5t-5 -1.5t-5 -2v-83z" />
    <glyph glyph-name="uni2778" unicode="&#x2778;" horiz-adv-x="930" 
d="M465 -24q-203 0 -323.5 101.5t-120.5 277.5t120.5 277.5t323.5 101.5t323.5 -101.5t120.5 -277.5t-120.5 -277.5t-323.5 -101.5zM466 145q106 0 170.5 32.5t64.5 89.5q0 79 -116 94q47 4 75.5 25.5t28.5 59.5q0 58 -60 88.5t-161 30.5q-107 0 -168 -37t-65 -103l119 -13
q7 70 113 70q99 0 99 -50q0 -40 -81 -40h-62v-71h62q90 0 90 -43q0 -49 -109 -49q-102 0 -114 67l-122 -10q6 -67 67.5 -104t168.5 -37z" />
    <glyph glyph-name="uni2779" unicode="&#x2779;" horiz-adv-x="930" 
d="M465 -24q-203 0 -323.5 101.5t-120.5 277.5t120.5 277.5t323.5 101.5t323.5 -101.5t120.5 -277.5t-120.5 -277.5t-323.5 -101.5zM500 159h117v81h90v81h-90v231h-136l-283 -237v-75h302v-81zM323 321l177 151v-151h-177z" />
    <glyph glyph-name="uni277A" unicode="&#x277a;" horiz-adv-x="930" 
d="M465 -24q-203 0 -323.5 101.5t-120.5 277.5t120.5 277.5t323.5 101.5t323.5 -101.5t120.5 -277.5t-120.5 -277.5t-323.5 -101.5zM459 152q106 0 167.5 40.5t61.5 108.5q0 66 -47.5 102.5t-135.5 36.5q-109 0 -148 -47l14 91h285v75h-379l-28 -229l109 -9q24 40 107 40
q100 0 100 -60q0 -31 -27 -48t-76 -17q-97 0 -113 50l-119 -16q12 -55 73 -86.5t156 -31.5z" />
    <glyph glyph-name="uni277B" unicode="&#x277b;" horiz-adv-x="930" 
d="M465 -24q-203 0 -323.5 101.5t-120.5 277.5t120.5 277.5t323.5 101.5t323.5 -101.5t120.5 -277.5t-120.5 -277.5t-323.5 -101.5zM466 145q103 0 166 40.5t63 106.5q0 67 -52.5 102t-147.5 35q-102 0 -154 -44q7 57 38 81.5t87 24.5q75 0 102 -39l123 18q-16 45 -75 70
t-146 25q-118 0 -182.5 -56.5t-64.5 -158.5q0 -97 64 -151t179 -54zM466 229q-95 0 -119 69q34 49 124 49q100 0 100 -56q0 -28 -29 -45t-76 -17z" />
    <glyph glyph-name="uni277C" unicode="&#x277c;" horiz-adv-x="930" 
d="M465 -24q-203 0 -323.5 101.5t-120.5 277.5t120.5 277.5t323.5 101.5t323.5 -101.5t120.5 -277.5t-120.5 -277.5t-323.5 -101.5zM354 158h133q7 98 57.5 178.5t135.5 130.5v85h-429v-91h305q-185 -109 -202 -303z" />
    <glyph glyph-name="uni277D" unicode="&#x277d;" horiz-adv-x="930" 
d="M465 -24q-204 0 -324 101.5t-120 277.5t120 277.5t324 101.5t324 -101.5t120 -277.5t-120 -277.5t-324 -101.5zM468 145q111 0 173.5 33t62.5 91q0 85 -114 108q100 17 100 79q0 50 -60.5 79.5t-163.5 29.5q-104 0 -164.5 -31t-60.5 -84q0 -36 24 -60t81 -39
q-57 -5 -88 -28.5t-31 -62.5q0 -54 63.5 -84.5t177.5 -30.5zM516 395l-61 8q-51 7 -71.5 18t-20.5 29q0 42 104 42q101 0 101 -47q0 -38 -52 -50zM469 224q-118 0 -118 56q0 39 70 54l51 -9q67 -12 87.5 -22.5t20.5 -30.5q0 -22 -30 -35t-81 -13z" />
    <glyph glyph-name="uni277E" unicode="&#x277e;" horiz-adv-x="930" 
d="M465 -24q-203 0 -323.5 101.5t-120.5 277.5t120.5 277.5t323.5 101.5t323.5 -101.5t120.5 -277.5t-120.5 -277.5t-323.5 -101.5zM460 145q116 0 181.5 57t65.5 158q0 98 -64 151.5t-182 53.5q-102 0 -164 -37.5t-62 -101.5t52 -98.5t148 -34.5q105 0 155 44
q-9 -109 -125 -109q-83 0 -104 46l-122 -18q15 -51 74.5 -81t146.5 -30zM458 373q-99 0 -99 53q0 28 27.5 44t76.5 16q90 0 114 -72q-32 -41 -119 -41z" />
    <glyph glyph-name="uniE000" unicode="&#xe000;" horiz-adv-x="1347" 
d="M195 732h1060v-94h-959v-463h104l-154 -206l-154 206h103v557z" />
    <glyph glyph-name="uniF8FF" unicode="&#xf8ff;" horiz-adv-x="1018" 
d="M998 663h-552v-47h552v-48h-552v-47h552v-48h-552v-47h552v-47h-552v-48h552v-47h-978v426h978v-47zM67 667l13 9h-16l-5 15l-4 -15h-16l13 -9l-5 -15l12 9l13 -9zM142 676h-16l13 -9l-5 -15l12 10l13 -10l-5 15l12 9h-15l-5 15zM229 676h-16l13 -9l-5 -15l12 10l13 -10
l-5 15l12 9h-15l-5 15zM315 676h-15l13 -9l-5 -15l12 10l13 -10l-5 15l12 9h-15l-5 15zM415 667l12 9h-15l-5 15l-5 -15h-15l12 -9l-4 -15l12 10l13 -10zM98 632h-15l12 -9l-4 -14l12 9l12 -9l-4 14l12 9h-15l-5 15zM371 623l13 9h-16l-4 15l-5 -15h-15l12 -9l-5 -14l13 9
l12 -9zM273 364v93h94v80h-94v94h-80v-94h-93v-80h93v-93h80zM67 580l13 9h-16l-5 14l-4 -14h-16l13 -9l-5 -15l12 9l13 -9zM142 589h-16l13 -9l-5 -15l12 9l13 -9l-5 15l12 9h-15l-5 14zM315 589h-15l13 -9l-5 -15l12 9l13 -9l-5 15l12 9h-15l-5 14zM415 580l12 9h-15
l-5 14l-5 -14h-15l12 -9l-4 -15l12 9l13 -9zM67 492l13 10h-16l-5 14l-4 -14h-16l13 -10l-5 -14l12 9l13 -9zM415 492l12 10h-15l-5 14l-5 -14h-15l12 -10l-4 -14l12 9l13 -9zM67 405l13 9h-16l-5 15l-4 -15h-16l13 -9l-5 -14l12 9l13 -9zM154 405l12 9h-15l-5 15l-4 -15
h-16l13 -9l-5 -14l12 9l13 -9zM328 405l12 9h-15l-5 15l-5 -15h-15l13 -9l-5 -14l12 9l13 -9zM415 405l12 9h-15l-5 15l-5 -15h-15l12 -9l-4 -14l12 9l13 -9zM115 347l-4 15l12 9h-15l-5 14l-5 -14h-15l12 -9l-4 -15l12 9zM376 347l-5 15l13 9h-16l-4 14l-5 -14h-15l12 -9
l-5 -15l13 9zM72 303l-5 15l13 9h-16l-5 15l-4 -15h-16l13 -9l-5 -15l12 9zM159 303l-5 15l12 9h-15l-5 15l-4 -15h-16l13 -9l-5 -15l12 9zM246 303l-5 15l12 9h-15l-5 15l-4 -15h-16l13 -9l-5 -15l12 9zM333 303l-5 15l12 9h-15l-5 15l-5 -15h-15l13 -9l-5 -15l12 9z
M420 303l-5 15l12 9h-15l-5 15l-5 -15h-15l12 -9l-4 -15l12 9zM20 189v48h977v-48h-977zM20 95v47h978v-47h-978zM20 0v47h978v-47h-978z" />
    <glyph glyph-name="uni00A40301" horiz-adv-x="517" 
d="M269 760l112 118h180l-127 -118h-165zM453 257q0 -272 -303 -272q-80 0 -136 12v155q47 -7 89 -7q71 0 109.5 32t38.5 114v419h202v-453z" />
    <glyph glyph-name="i.loclTRK" horiz-adv-x="356" 
d="M77 573v154h203v-154h-203zM82 0v500h192v-500h-192z" />
    <glyph glyph-name="uni006A0301" horiz-adv-x="368" 
d="M108 573l107 157h177l-126 -157h-158zM48 -211q-58 0 -86 9v137q23 -4 61 -4q36 0 53.5 23.5t17.5 77.5v468h192v-493q0 -109 -55 -163.5t-183 -54.5z" />
    <glyph glyph-name="zero.zero" horiz-adv-x="894" 
d="M447 719q182 0 295 -99.5t113 -270.5q0 -173 -113 -273t-295 -100t-295 100t-113 273q0 171 113 270.5t295 99.5zM447 580q-93 0 -149.5 -59t-56.5 -172q0 -69 22 -121l333 294q-55 58 -149 58zM447 115q93 0 149.5 59.5t56.5 174.5q0 60 -17 105l-327 -291
q54 -48 138 -48z" />
    <glyph glyph-name="zero.tf" 
d="M402 -20q-169 0 -269 95t-100 272q0 175 100.5 271.5t268.5 96.5t268 -96.5t100 -271.5q0 -178 -99.5 -272.5t-268.5 -94.5zM402 114q84 0 126 61.5t42 171.5q0 109 -42.5 171.5t-125.5 62.5q-84 0 -126 -63t-42 -171q0 -111 42 -172t126 -61z" />
    <glyph glyph-name="one.tf" 
d="M523 146h228v-146h-676v146h253v318q-59 -62 -197 -62h-49v161h29q88 0 152 35t92 97h168v-549z" />
    <glyph glyph-name="two.tf" 
d="M53 0v126q248 112 371 195q57 39 79 73t22 77q0 47 -32.5 76.5t-93.5 29.5q-62 0 -99.5 -30.5t-40.5 -88.5q0 -15 1 -28l-199 19v36q3 71 52 124.5t125 79.5t165 26q152 0 239.5 -59t87.5 -169q0 -65 -27.5 -113t-92.5 -94q-84 -60 -288 -136h426v-144h-695z" />
    <glyph glyph-name="three.tf" 
d="M402 -20q-159 0 -250.5 63t-96.5 173l198 16q11 -119 151 -119q141 0 141 96q0 93 -133 93h-55l2 109h45q58 0 92.5 24t34.5 67q0 37 -32.5 58.5t-94.5 21.5q-66 0 -105 -31.5t-40 -89.5l-198 19q0 101 88.5 168t253.5 67q156 0 242.5 -53.5t86.5 -148.5q0 -68 -50 -105
t-122 -45q89 -11 139.5 -53t50.5 -115q0 -99 -93.5 -157t-254.5 -58z" />
    <glyph glyph-name="four.tf" 
d="M453 0v149h-427v112l401 434h211v-416h136v-130h-136v-149h-185zM201 279h252v218q0 42 4 70h-4q-15 -36 -51 -79l-137 -144q-39 -45 -64 -65z" />
    <glyph glyph-name="five.tf" 
d="M395 -20q-139 0 -227 56.5t-102 150.5l190 19q8 -41 47.5 -66t96.5 -25q65 0 100.5 32t35.5 89q0 53 -34 85t-98 32q-46 0 -82.5 -19.5t-54.5 -54.5l-173 15l43 401h544v-136h-392l-19 -166q65 76 203 76q124 0 194.5 -63.5t70.5 -168.5q0 -115 -92.5 -186t-250.5 -71z
" />
    <glyph glyph-name="six.tf" 
d="M455 477q141 0 218.5 -62.5t77.5 -180.5q0 -114 -92.5 -184t-246.5 -70q-170 0 -264.5 94.5t-94.5 264.5q0 179 95 277.5t270 98.5q129 0 214.5 -48t104.5 -134l-188 -25q-28 73 -131 73q-77 0 -120.5 -47.5t-48.5 -136.5q74 80 206 80zM417 114q63 0 100.5 33t37.5 86
q0 57 -36 87.5t-99 30.5q-120 0 -161 -110q30 -127 158 -127z" />
    <glyph glyph-name="seven.tf" 
d="M232 0v18q0 155 79.5 291t230.5 239h-479v147h675v-138q-292 -206 -292 -517v-40h-214z" />
    <glyph glyph-name="eight.tf" 
d="M605 381q80 -27 119 -72t39 -117q0 -99 -95 -155.5t-263 -56.5q-172 0 -268.5 52.5t-96.5 145.5q0 63 44 105.5t126 59.5q-74 25 -111 66.5t-37 107.5q0 89 96.5 143.5t243.5 54.5q153 0 246 -51.5t93 -136.5q0 -55 -35.5 -93t-100.5 -53zM403 596q-65 0 -102.5 -22.5
t-37.5 -58.5q0 -35 30.5 -56t91.5 -33l81 -14h2q73 33 73 96q0 40 -36 64t-102 24zM405 107q72 0 113.5 24.5t41.5 66.5t-34 64t-110 37l-74 14q-98 -34 -98 -109q0 -47 42 -72t119 -25z" />
    <glyph glyph-name="nine.tf" 
d="M390 715q176 0 270.5 -92t94.5 -262q0 -182 -91.5 -281.5t-266.5 -99.5q-135 0 -227 51.5t-112 142.5l200 26q27 -82 146 -82q143 0 154 194q-78 -71 -211 -71q-138 0 -217.5 60.5t-79.5 172.5q0 110 93 175.5t247 65.5zM382 368q66 0 111 27t58 72q-14 57 -56 87.5
t-106 30.5t-104 -29.5t-40 -80.5q0 -50 38 -78.5t99 -28.5z" />
    <glyph glyph-name="zero.tf.zero" 
d="M402 715q168 0 268 -96.5t100 -271.5q0 -178 -99.5 -272.5t-268.5 -94.5t-269 95t-100 272q0 175 100.5 271.5t268.5 96.5zM402 581q-84 0 -126 -63t-42 -171q0 -51 9 -91l288 256q-42 69 -129 69zM402 114q84 0 126 61.5t42 171.5q0 49 -9 89l-288 -256q42 -66 129 -66z
" />
    <glyph glyph-name="dollar.tf" 
d="M784 207q0 -103 -84.5 -162t-240.5 -64v-86h-71v86q-132 5 -228 48t-141 118l147 87q67 -106 222 -119v175l-86 13q-117 17 -173.5 68.5t-56.5 140.5q0 94 81 146.5t235 56.5v83h71v-84q215 -10 315 -127l-130 -95q-47 79 -185 91v-163l96 -14q122 -16 175.5 -62.5
t53.5 -136.5zM364 434l24 -4v156q-134 -4 -134 -71q0 -37 23.5 -54t86.5 -27zM459 112q77 1 112.5 21.5t35.5 62.5q0 34 -21.5 50.5t-74.5 24.5l-52 8v-167z" />
    <glyph glyph-name="cent.tf" 
d="M446 95q114 14 141 108l183 -32q-24 -81 -106.5 -134.5t-217.5 -59.5v-78h-72v78q-161 8 -248 84t-87 190q0 113 86.5 188t248.5 84v71h72v-71q133 -6 217 -57.5t108 -135.5l-185 -27q-27 88 -140 104v-312zM221 251q0 -61 41 -104t112 -52v312q-72 -9 -112.5 -51.5
t-40.5 -104.5z" />
    <glyph glyph-name="sterling.tf" 
d="M600 213l186 -23q-15 -98 -82 -154t-169 -56q-44 0 -119 15.5t-133 15.5q-108 0 -235 -19l-33 93q145 38 145 165q0 34 -6 62h-107v90h84q-9 41 -9 74q0 111 84 175t229 64q274 0 317 -187l-186 -33q-19 92 -128 92q-125 0 -125 -111q0 -37 10 -74h190v-90h-168
q3 -20 3 -42q0 -99 -96 -136q44 8 90 8q30 0 79 -9t77 -9q42 0 69 23t33 66z" />
    <glyph glyph-name="florin.tf" 
d="M632 583q-65 0 -95.5 -27.5t-39.5 -95.5l-5 -32h186v-125h-203l-64 -453h-213l66 453h-163v125h181l4 30q19 141 96.5 202.5t233.5 61.5q48 0 99 -11v-137q-39 9 -83 9z" />
    <glyph glyph-name="yen.tf" 
d="M810 695l-290 -394h214v-69h-233v-59h233v-69h-233v-104h-199v104h-233v69h233v59h-233v69h214l-290 394h218l156 -239q20 -31 34 -64h2q12 32 33 64l156 239h218z" />
    <glyph glyph-name="Euro.tf" 
d="M604 233l173 -66q-39 -88 -125 -137.5t-202 -49.5q-146 0 -238 74.5t-117 202.5h-70v62h62q-1 11 -1 34v6v21h-61v63h69q25 124 120.5 198t241.5 74q120 0 204 -49t113 -137l-173 -57q-19 50 -53 74.5t-93 24.5q-125 0 -156 -128h212v-63h-221v-19v-8q0 -23 1 -34h220
v-62h-210q32 -133 157 -133q102 0 147 109z" />
    <glyph glyph-name="percent.tf" 
d="M87 -14l528 744h111l-527 -744h-112zM205 368q-84 0 -134.5 48t-50.5 130q0 79 50.5 127t133.5 48q82 0 133 -49t51 -129q0 -79 -51 -127t-132 -48zM205 467q30 0 48 20.5t18 55.5v1q0 36 -18 57t-49 21t-49.5 -20t-18.5 -55v-1q0 -37 18.5 -58t50.5 -21zM602 -10
q-84 0 -134.5 48t-50.5 130q0 79 50.5 127t133.5 48q81 0 132.5 -49t51.5 -129q0 -79 -51 -127t-132 -48zM602 89q30 0 48 20.5t18 55.5v1q0 36 -18 57t-49 21q-32 0 -50 -20.5t-18 -55.5v-1q0 -37 18.5 -57.5t50.5 -20.5z" />
    <glyph glyph-name="perthousand.tf" 
d="M186 404q-75 0 -121 41.5t-46 111.5t46 112t121 42t121 -42t46 -112t-46 -111.5t-121 -41.5zM121 558v-2q0 -31 17.5 -49t47.5 -18t47 18t17 49v2q0 31 -17 49t-47 18t-47.5 -18t-17.5 -49zM734 589v-93l-683 -297v94zM616 288q76 0 121.5 -42t45.5 -112
q0 -69 -45.5 -111t-121.5 -42q-68 0 -112 38q-44 -38 -112 -38q-75 0 -121 42t-46 111q0 70 46 112t121 42q68 0 112 -39q44 39 112 39zM457 133v2q0 31 -17.5 49t-47.5 18t-47 -18t-17 -49v-2q0 -31 17 -48.5t47 -17.5t47.5 17.5t17.5 48.5zM681 133v2q0 31 -17 49t-48 18
q-30 0 -47 -18t-17 -49v-2q0 -31 17 -48.5t47 -17.5q31 0 48 17.5t17 48.5z" />
    <glyph glyph-name="uni20BF.case" horiz-adv-x="948" 
d="M748 369q158 -26 158 -169q0 -95 -70.5 -147.5t-197.5 -52.5h-2v-87h-79v87h-175v-87h-78v87h-212v710h212v85h78v-85h175v85h79v-85q122 -1 187 -47t65 -134q0 -61 -37 -103t-103 -57zM579 582h-288v-164h289q99 0 99 83q0 81 -100 81zM589 128q109 0 109 86
q0 41 -29 63t-82 22h-296v-171h298z" />
    <glyph glyph-name="uni20BF.tf" 
d="M764 196q0 -94 -67 -144t-189 -52v-107h-80v107h-109v-107h-80v107h-184v695h184v90h80v-90h109v90h80v-90q238 -6 238 -178q0 -60 -38 -101.5t-105 -55.5q79 -11 120 -53t41 -111zM458 575h-219v-173h216q99 0 99 92q0 81 -96 81zM461 120q111 0 111 91q0 41 -29 63.5
t-79 22.5h-225v-177h222z" />
    <glyph glyph-name="uni20BF.tf.case" 
d="M764 201q0 -97 -67 -148t-189 -53v-90h-80v90h-109v-90h-80v90h-184v710h184v91h80v-91h109v91h80v-91q238 -6 238 -182q0 -62 -38 -104t-105 -57q79 -11 120 -53.5t41 -112.5zM458 589h-219v-179h216q99 0 99 95q0 84 -96 84zM461 120q111 0 111 95q0 43 -29 66t-79 23
h-225v-184h222z" />
    <glyph glyph-name="g.ss01" horiz-adv-x="875" 
d="M406 -214q-331 0 -372 194h206q26 -78 178 -78q183 0 183 131v76q-36 -49 -104.5 -76.5t-155.5 -27.5q-141 0 -229 72t-88 187q0 114 89.5 184.5t233.5 70.5q177 0 262 -106l13 87h171v-460q0 -254 -387 -254zM410 122q88 0 141.5 38t53.5 100v8q0 58 -54.5 95t-141.5 37
q-86 0 -135.5 -36.5t-49.5 -99.5q0 -66 50 -104t136 -38z" />
    <glyph glyph-name="gbreve.ss01" horiz-adv-x="875" 
d="M341 730q9 -78 93 -78q83 0 92 78h130q-7 -80 -65 -121t-157 -41q-100 0 -158 41t-65 121h130zM406 -214q-331 0 -372 194h206q26 -78 178 -78q183 0 183 131v76q-36 -49 -104.5 -76.5t-155.5 -27.5q-141 0 -229 72t-88 187q0 114 89.5 184.5t233.5 70.5q177 0 262 -106
l13 87h171v-460q0 -254 -387 -254zM410 122q88 0 141.5 38t53.5 100v8q0 58 -54.5 95t-141.5 37q-86 0 -135.5 -36.5t-49.5 -99.5q0 -66 50 -104t136 -38z" />
    <glyph glyph-name="gcircumflex.ss01" horiz-adv-x="875" 
d="M689 573h-154l-102 101l-102 -101h-154l156 157h200zM406 -214q-331 0 -372 194h206q26 -78 178 -78q183 0 183 131v76q-36 -49 -104.5 -76.5t-155.5 -27.5q-141 0 -229 72t-88 187q0 114 89.5 184.5t233.5 70.5q177 0 262 -106l13 87h171v-460q0 -254 -387 -254z
M410 122q88 0 141.5 38t53.5 100v8q0 58 -54.5 95t-141.5 37q-86 0 -135.5 -36.5t-49.5 -99.5q0 -66 50 -104t136 -38z" />
    <glyph glyph-name="uni0123.ss01" horiz-adv-x="875" 
d="M468 768l26 -47q-38 -9 -53 -19.5t-17 -29.5h99v-100h-187v76q0 98 132 120zM406 -214q-331 0 -372 194h206q26 -78 178 -78q183 0 183 131v76q-36 -49 -104.5 -76.5t-155.5 -27.5q-141 0 -229 72t-88 187q0 114 89.5 184.5t233.5 70.5q177 0 262 -106l13 87h171v-460
q0 -254 -387 -254zM410 122q88 0 141.5 38t53.5 100v8q0 58 -54.5 95t-141.5 37q-86 0 -135.5 -36.5t-49.5 -99.5q0 -66 50 -104t136 -38z" />
    <glyph glyph-name="gdotaccent.ss01" horiz-adv-x="875" 
d="M332 573v154h203v-154h-203zM406 -214q-331 0 -372 194h206q26 -78 178 -78q183 0 183 131v76q-36 -49 -104.5 -76.5t-155.5 -27.5q-141 0 -229 72t-88 187q0 114 89.5 184.5t233.5 70.5q177 0 262 -106l13 87h171v-460q0 -254 -387 -254zM410 122q88 0 141.5 38
t53.5 100v8q0 58 -54.5 95t-141.5 37q-86 0 -135.5 -36.5t-49.5 -99.5q0 -66 50 -104t136 -38z" />
    <glyph glyph-name="g_g.liga.ss01" horiz-adv-x="1750" 
d="M406 -214q-331 0 -372 194h206q26 -78 178 -78q183 0 183 131v76q-36 -49 -104.5 -76.5t-155.5 -27.5q-141 0 -229 72t-88 187q0 114 89.5 184.5t233.5 70.5q177 0 262 -106l13 87h171v-460q0 -254 -387 -254zM1281 -214q-331 0 -372 194h206q26 -78 178 -78
q183 0 183 131v76q-36 -49 -104.5 -76.5t-155.5 -27.5q-141 0 -229 72t-88 187q0 114 89.5 184.5t233.5 70.5q177 0 262 -106l13 87h171v-460q0 -254 -387 -254zM410 122q88 0 141.5 38t53.5 100v8q0 58 -54.5 95t-141.5 37q-86 0 -135.5 -36.5t-49.5 -99.5q0 -66 50 -104
t136 -38zM1285 122q88 0 141.5 38t53.5 100v8q0 58 -54.5 95t-141.5 37q-86 0 -135.5 -36.5t-49.5 -99.5q0 -66 50 -104t136 -38z" />
    <glyph glyph-name="g.sups.ss01" horiz-adv-x="670" 
d="M312 154q-252 0 -277 138h173q13 -55 114 -55q118 1 118 94v62q-54 -75 -185 -75q-103 0 -165.5 51.5t-62.5 135.5q0 82 65.5 133.5t169.5 51.5q124 0 186 -76l8 61h148v-335q0 -186 -292 -186zM316 410q57 0 92.5 26t35.5 67v4q0 40 -35 64t-91 24t-88.5 -24t-32.5 -66
q0 -44 32 -69.5t87 -25.5z" />
    <glyph glyph-name="a.sups" horiz-adv-x="642" 
d="M227 296q-89 0 -137 30t-48 86q0 60 50 85t139 30l181 11v9q0 60 -88 60q-87 0 -99 -51h-173q12 62 86 98t186 36q133 0 193.5 -42t60.5 -128v-104q0 -56 6 -106h-163q-3 22 -5 65q-17 -36 -68 -57.5t-121 -21.5zM288 380q56 0 91.5 22.5t35.5 59.5v16l-129 -10
q-81 -5 -81 -43q0 -21 22.5 -33t60.5 -12z" />
    <glyph glyph-name="b.sups" horiz-adv-x="675" 
d="M411 296q-122 0 -182 76l-11 -62h-148v529h164v-220q65 71 188 71q101 0 163.5 -53.5t62.5 -139.5q0 -91 -64.5 -146t-172.5 -55zM353 395q58 0 92 26.5t34 72.5q0 44 -33.5 70.5t-91.5 26.5q-57 0 -92 -26.5t-35 -68.5v-5q0 -43 34.5 -69.5t91.5 -26.5z" />
    <glyph glyph-name="c.sups" horiz-adv-x="624" 
d="M317 296q-135 0 -213.5 53.5t-78.5 145.5t77.5 143.5t214.5 51.5q114 0 188.5 -38.5t91.5 -105.5l-172 -22q-9 28 -39 44.5t-74 16.5q-53 0 -85 -24t-32 -65q0 -42 32.5 -68.5t84.5 -26.5q99 0 114 65l171 -25q-16 -67 -91.5 -106t-188.5 -39z" />
    <glyph glyph-name="d.sups" horiz-adv-x="675" 
d="M254 296q-103 0 -165 54.5t-62 145.5q0 86 63.5 140t168.5 54q117 0 182 -65v215h163v-530h-158v72q-61 -86 -192 -86zM318 395q56 0 91.5 27t35.5 70v5q0 42 -35.5 68t-92.5 26t-88.5 -25.5t-31.5 -70.5q0 -46 32.5 -73t88.5 -27z" />
    <glyph glyph-name="e.sups" horiz-adv-x="607" 
d="M581 475v-8h-401q7 -37 42 -58t92 -21q45 0 86.5 15.5t61.5 39.5l102 -55q-81 -92 -257 -92q-133 0 -207.5 52t-74.5 145q0 90 75.5 143.5t202.5 53.5q133 0 205.5 -57t72.5 -158zM180 532h239q-2 35 -33 57.5t-83 22.5q-55 0 -87 -21.5t-36 -58.5z" />
    <glyph glyph-name="f.sups" horiz-adv-x="478" 
d="M455 675v-98h-158v-267h-164v267h-112v98h112v12q0 160 227 160q50 0 95 -9v-104q-35 7 -78 7q-44 0 -62 -12.5t-18 -44.5v-9h158z" />
    <glyph glyph-name="g.sups" horiz-adv-x="645" 
d="M619 646q-15 5 -48 5q-29 0 -48 -6q45 -31 45 -80q0 -60 -68 -93.5t-190 -33.5q-72 0 -126 12q-16 -6 -16 -23q0 -24 39 -24l251 -4q83 -1 121.5 -25.5t38.5 -75.5q0 -75 -77.5 -109.5t-250.5 -34.5q-134 0 -196.5 20t-62.5 62q0 45 65 60q-61 22 -61 76q0 34 27 57.5
t76 33.5q-88 34 -88 102q0 60 67.5 92.5t192.5 32.5q85 0 147 -16q24 72 127 72q20 0 35 -3v-97zM310 505q45 0 70 15.5t25 44.5q0 58 -95 58q-97 0 -97 -58q0 -60 97 -60zM409 284l-254 3q-10 -10 -10 -21q0 -32 37 -44.5t137 -12.5q85 0 115.5 9t30.5 34q0 17 -12.5 24
t-43.5 8z" />
    <glyph glyph-name="h.sups" horiz-adv-x="682" 
d="M70 310v529h164v-238q24 42 73 65.5t114 23.5q98 0 151.5 -55t53.5 -155v-170h-163v154q0 115 -111 115q-57 0 -87.5 -30.5t-30.5 -88.5v-150h-164z" />
    <glyph glyph-name="i.sups" horiz-adv-x="296" 
d="M64 722v125h169v-125h-169zM66 310v365h164v-365h-164z" />
    <glyph glyph-name="j.sups" horiz-adv-x="303" 
d="M69 722v125h168v-125h-168zM50 160q-44 0 -64 7v112q15 -3 36 -3q51 0 51 67v332h164v-352q0 -85 -44 -124t-143 -39z" />
    <glyph glyph-name="k.sups" horiz-adv-x="647" 
d="M632 675l-180 -136l180 -229h-183l-120 162l-95 -69v-93h-164v529h164v-309l188 145h210z" />
    <glyph glyph-name="l.sups" horiz-adv-x="305" 
d="M234 839v-529h-164v529h164z" />
    <glyph glyph-name="m.sups" horiz-adv-x="973" 
d="M66 675h160v-81q20 45 63.5 70t101.5 25q120 0 162 -94q55 94 179 94q90 0 137.5 -51t47.5 -146v-182h-162v159q0 104 -90 104q-44 0 -68 -27t-24 -77v-159h-163v161q0 102 -90 102q-44 0 -67 -27t-23 -78v-158h-164v365z" />
    <glyph glyph-name="n.sups" horiz-adv-x="677" 
d="M66 310v365h160v-84q51 98 192 98q100 0 152 -53t52 -155v-171h-164v149q0 117 -109 117q-119 0 -119 -119v-147h-164z" />
    <glyph glyph-name="o.sups" horiz-adv-x="634" 
d="M318 296q-133 0 -213 53.5t-80 143.5t80 143.5t213 53.5t212 -53.5t79 -143.5q0 -91 -79 -144t-212 -53zM318 394q54 0 88 27t34 72q0 44 -34 71t-88 27q-56 0 -89.5 -27t-33.5 -71q0 -45 33.5 -72t89.5 -27z" />
    <glyph glyph-name="p.sups" horiz-adv-x="670" 
d="M66 168v507h161v-60q63 75 189 75q103 0 165.5 -53.5t62.5 -139.5q0 -91 -64.5 -146t-168.5 -55q-114 0 -181 70v-198h-164zM353 395q56 0 88.5 28t32.5 75q0 43 -32 68t-89 25t-92 -25t-35 -68v-1q0 -46 35 -74t92 -28z" />
    <glyph glyph-name="q.sups" horiz-adv-x="670" 
d="M441 168v202q-63 -74 -187 -74q-102 0 -164.5 55t-62.5 146q0 88 64 142t169 54q122 0 188 -79l9 61h147v-507h-163zM317 395q57 0 92.5 27.5t35.5 73.5v4q0 43 -35.5 69t-93.5 26q-56 0 -87.5 -26.5t-31.5 -71.5q0 -47 32 -74.5t88 -27.5z" />
    <glyph glyph-name="r.sups" horiz-adv-x="452" 
d="M208 560q16 57 61 90t112 33q25 0 49 -3v-136q-26 5 -64 5q-64 0 -94 -27q-42 -36 -42 -103v-109h-164v365h142v-115z" />
    <glyph glyph-name="s.sups" horiz-adv-x="580" 
d="M309 296q-94 0 -173.5 18t-122.5 50l67 76q112 -56 242 -56q44 0 64 7t20 25q0 13 -15.5 19.5t-56.5 10.5l-153 14q-70 7 -103.5 32.5t-33.5 74.5q0 62 52 92.5t178 30.5q158 0 275 -52l-63 -80q-90 50 -218 50q-78 0 -78 -30q0 -12 16 -18.5t58 -10.5l138 -13
q83 -8 117 -32t34 -81q0 -127 -244 -127z" />
    <glyph glyph-name="t.sups" horiz-adv-x="476" 
d="M10 577v98h107v82l163 56v-138h160v-98h-160v-88q0 -72 89 -72q43 0 69 8v-108q-39 -17 -116 -17q-96 0 -150.5 34.5t-54.5 119.5v123h-107z" />
    <glyph glyph-name="u.sups" horiz-adv-x="672" 
d="M445 391q-24 -46 -75 -70.5t-118 -24.5q-92 0 -144.5 46.5t-52.5 129.5v203h164v-157q0 -112 104 -112q56 0 87.5 30.5t31.5 83.5v155h164v-365h-161v81z" />
    <glyph glyph-name="v.sups" horiz-adv-x="621" 
d="M218 310l-212 365h177l101 -189q13 -26 24 -52h4q3 6 7.5 15.5t9 18t9.5 18.5l100 189h178l-213 -365h-185z" />
    <glyph glyph-name="w.sups" horiz-adv-x="871" 
d="M171 310l-151 365h162l68 -200q7 -27 11 -46h2q1 9 3.5 17.5t5.5 17t4 11.5l79 200h162l78 -200q10 -29 13 -46h2q6 31 12 46l67 200h162l-151 -365h-173l-76 187q-11 33 -14 50h-3q-1 -12 -14 -50l-76 -187h-173z" />
    <glyph glyph-name="x.sups" horiz-adv-x="629" 
d="M15 310l188 186l-183 179h197l71 -71q19 -22 28 -38h2q10 18 28 38l70 71h186l-178 -175l191 -190h-199l-83 81q-12 12 -26 34h-2q-10 -18 -26 -34l-83 -81h-181z" />
    <glyph glyph-name="y.sups" horiz-adv-x="610" 
d="M149 154q-67 0 -103 9v119q36 -6 75 -6q79 0 106 27l2 3l-223 369h181l96 -189q4 -8 12.5 -26t13.5 -30h3q4 11 12.5 27.5t12.5 25.5l93 192h175l-211 -381q-42 -74 -97.5 -107t-147.5 -33z" />
    <glyph glyph-name="z.sups" horiz-adv-x="567" 
d="M41 407l275 174h-266v94h473v-94l-272 -176h281v-95h-491v97z" />
    <glyph glyph-name="zero.case" horiz-adv-x="894" 
d="M447 -24q-181 0 -294.5 103t-113.5 277q0 175 113 276.5t295 101.5t295 -101.5t113 -276.5q0 -174 -113.5 -277t-294.5 -103zM447 115q93 0 149.5 61.5t56.5 179.5t-56.5 178.5t-149.5 60.5t-149.5 -60.5t-56.5 -178.5t56.5 -179.5t149.5 -61.5z" />
    <glyph glyph-name="one.case" horiz-adv-x="544" 
d="M237 0v478q-49 -57 -167 -57h-48v160h27q80 0 135.5 34t79.5 95h168v-710h-195z" />
    <glyph glyph-name="two.case" horiz-adv-x="844" 
d="M36 0v132q270 101 414 184q69 39 95.5 75.5t26.5 83.5q0 52 -41 86t-119 34t-122.5 -36t-44.5 -103q0 -13 3 -31l-201 18q-3 12 -3 38q0 115 102.5 184t265.5 69q173 0 270 -64.5t97 -179.5q0 -76 -39.5 -129t-117.5 -98q-118 -67 -294 -116h466v-147h-758z" />
    <glyph glyph-name="three.case" horiz-adv-x="841" 
d="M415 -24q-175 0 -275.5 66.5t-108.5 184.5l200 16q12 -132 187 -132q84 0 130 26t46 74q0 50 -40.5 71t-123.5 21h-83v113h81q152 0 152 89q0 45 -42.5 70t-123.5 25q-84 0 -130.5 -34.5t-49.5 -100.5l-197 19q4 112 102 181t274 69q177 0 273 -56.5t96 -157.5
q0 -71 -49 -108.5t-127 -45.5q194 -22 194 -171q0 -98 -102.5 -158.5t-282.5 -60.5z" />
    <glyph glyph-name="four.case" horiz-adv-x="864" 
d="M855 154h-155v-154h-192v154h-496v120l469 436h219v-427h155v-129zM508 484q0 70 5 95h-5q-13 -25 -73 -85l-144 -143q-41 -41 -80 -68h297v201z" />
    <glyph glyph-name="five.case" horiz-adv-x="821" 
d="M406 -24q-153 0 -252 59t-116 161l193 23q10 -50 58 -79t120 -29q83 0 128 33.5t45 96.5q0 60 -43.5 91.5t-123.5 31.5q-128 0 -174 -91l-176 15l46 422h620v-138h-467l-21 -172q30 43 92.5 66.5t145.5 23.5q142 0 222.5 -65t80.5 -182q0 -123 -102 -195t-276 -72z" />
    <glyph glyph-name="six.case" horiz-adv-x="847" 
d="M485 486q157 0 241.5 -64.5t84.5 -184.5q0 -118 -103 -189.5t-273 -71.5q-190 0 -293 96t-103 274q0 186 106 287t299 101q143 0 238.5 -53t120.5 -149l-200 -27q-33 95 -166 95q-98 0 -151 -53.5t-57 -156.5q87 96 256 96zM435 110q79 0 127 35t48 92q0 60 -43 91.5
t-124 31.5q-71 0 -123.5 -29t-77.5 -83q38 -138 193 -138z" />
    <glyph glyph-name="seven.case" horiz-adv-x="735" 
d="M193 0v18q0 160 84 299t244 246h-507v147h704v-138q-311 -210 -311 -532v-40h-214z" />
    <glyph glyph-name="eight.case" horiz-adv-x="854" 
d="M635 392q95 -28 138 -75t43 -121q0 -104 -102 -162t-284 -58q-185 0 -289 54.5t-104 151.5q0 66 47 109.5t134 60.5q-82 26 -120.5 69t-38.5 109q0 94 99 149t269 55q168 0 268 -52.5t100 -142.5q0 -56 -42 -94.5t-118 -52.5zM428 615q-79 0 -123.5 -22.5t-44.5 -64.5
q0 -36 35.5 -58t114.5 -35l93 -15q2 0 3 -1q88 36 88 102q0 46 -43 70t-123 24zM430 102q85 0 134 27t49 73q0 41 -39 65t-133 40l-88 15q-112 -34 -112 -114q0 -51 49 -78.5t140 -27.5z" />
    <glyph glyph-name="nine.case" horiz-adv-x="848" 
d="M406 734q194 0 298 -94t104 -270q0 -188 -105 -291t-299 -103q-142 0 -238 57t-122 157l200 27q35 -103 167 -103q101 0 153.5 56t54.5 162q-84 -84 -256 -84q-156 0 -241.5 61.5t-85.5 176.5t101 181.5t269 66.5zM404 374q77 0 129.5 27t74.5 73q-37 133 -196 133
q-82 0 -128 -31.5t-46 -89.5q0 -53 44 -82.5t122 -29.5z" />
    <glyph glyph-name="one.case.ss02" horiz-adv-x="748" 
d="M498 146h228v-146h-676v146h253v333q-59 -62 -197 -62h-49v161h29q88 0 152 35t92 97h168v-564z" />
    <glyph glyph-name="zero.case.zero" horiz-adv-x="894" 
d="M447 734q182 0 295 -101.5t113 -276.5q0 -174 -113.5 -277t-294.5 -103t-294.5 103t-113.5 277q0 175 113 276.5t295 101.5zM447 595q-93 0 -149.5 -60.5t-56.5 -178.5q0 -71 22 -123l331 303q-53 59 -147 59zM447 115q93 0 149.5 61.5t56.5 179.5q0 64 -18 112
l-327 -302q54 -51 139 -51z" />
    <glyph glyph-name="zero.osf" horiz-adv-x="887" 
d="M443 -24q-182 0 -292.5 80t-110.5 212t110.5 211.5t292.5 79.5q183 0 293 -80t110 -212q0 -131 -110.5 -211t-292.5 -80zM443 117q94 0 149.5 41t55.5 109q0 69 -55.5 109.5t-149.5 40.5q-93 0 -148.5 -40.5t-55.5 -109.5q0 -68 55.5 -109t148.5 -41z" />
    <glyph glyph-name="one.osf" horiz-adv-x="754" 
d="M500 133h230v-133h-675v133h253v209q-70 -55 -206 -59h-36v149h32q79 0 143.5 28.5t88.5 74.5h170v-402z" />
    <glyph glyph-name="two.osf" horiz-adv-x="826" 
d="M42 120q285 71 381 109q63 25 88.5 49.5t25.5 59.5q0 40 -35.5 64t-94.5 24q-144 0 -144 -109q0 -11 2 -19l-200 19q-2 14 -2 23q0 99 94.5 159t250.5 60q155 0 243.5 -53.5t88.5 -147.5q0 -78 -90 -131q-92 -54 -255 -94h381v-133h-734v120z" />
    <glyph glyph-name="three.osf" horiz-adv-x="838" 
d="M412 -174q-172 0 -273.5 64.5t-107.5 180.5l197 15q10 -124 187 -124q84 0 131 25t47 72q0 42 -38 62t-126 20h-77v109h75q143 0 143 82q0 44 -40.5 67.5t-117.5 23.5q-172 0 -173 -128l-194 20q0 111 100 177.5t268 66.5q169 0 264 -54.5t95 -154.5q0 -65 -46 -102.5
t-119 -47.5q92 -9 141 -51t49 -110q0 -99 -105 -156t-280 -57z" />
    <glyph glyph-name="four.osf" horiz-adv-x="875" 
d="M516 -150v147h-497v121l470 417h219v-408h155v-130h-155v-147h-192zM214 127h302v207q0 43 4 70h-4q-20 -34 -66 -76l-163 -150q-43 -37 -73 -51z" />
    <glyph glyph-name="five.osf" horiz-adv-x="822" 
d="M407 -174q-154 0 -253 58.5t-116 158.5l193 23q10 -49 58.5 -77t120.5 -28q82 0 127 33.5t45 93.5q0 56 -43 86t-123 30q-128 0 -175 -86l-176 15l46 402h620v-138h-467l-21 -154q30 40 93 63t146 23q143 0 223.5 -63.5t80.5 -176.5q0 -120 -103 -191.5t-276 -71.5z" />
    <glyph glyph-name="six.osf" horiz-adv-x="848" 
d="M485 477q157 0 241.5 -63.5t84.5 -179.5q0 -115 -103 -184.5t-273 -69.5q-190 0 -293 93.5t-103 265.5q0 179 106 277.5t299 98.5q143 0 238.5 -50.5t120.5 -140.5l-200 -26q-33 83 -166 83q-96 0 -149 -49.5t-58 -144.5q87 90 255 90zM435 114q79 0 127 33t48 86
q0 57 -43 87.5t-124 30.5q-146 0 -201 -105q38 -132 193 -132z" />
    <glyph glyph-name="seven.osf" horiz-adv-x="736" 
d="M193 -150v18q0 154 84 286t245 234h-508v147h704v-138q-310 -202 -310 -507v-40h-215z" />
    <glyph glyph-name="eight.osf" horiz-adv-x="854" 
d="M639 385q93 -27 135.5 -73t42.5 -118q0 -101 -102.5 -157.5t-284.5 -56.5q-185 0 -288.5 52.5t-103.5 146.5q0 64 47 106.5t133 58.5q-82 26 -120 68t-38 107q0 90 99.5 143t268.5 53q168 0 267.5 -50.5t99.5 -136.5q0 -54 -41 -91t-115 -52zM428 596q-78 0 -122.5 -21
t-44.5 -58q0 -35 35 -56t115 -33l93 -15q3 0 4 -1q86 34 86 97q0 42 -43 64.5t-123 22.5zM431 107q85 0 134 25t49 68q0 40 -39 62.5t-134 37.5l-89 15q-111 -33 -111 -110q0 -47 49.5 -72.5t140.5 -25.5z" />
    <glyph glyph-name="nine.osf" horiz-adv-x="848" 
d="M407 559q193 0 297.5 -94t104.5 -268q0 -183 -103.5 -277t-304.5 -94q-302 0 -354 189l189 23q24 -79 173 -79q201 0 210 198q-84 -78 -253 -78q-158 0 -244 61t-86 174q0 112 100.5 178.5t270.5 66.5zM408 206q150 0 201 92q-18 63 -69 97t-128 34q-80 0 -127 -31
t-47 -84q0 -51 45 -79.5t125 -28.5z" />
    <glyph glyph-name="zero.osf.zero" horiz-adv-x="887" 
d="M443 559q183 0 293 -80t110 -212q0 -131 -110.5 -211t-292.5 -80t-292.5 80t-110.5 212t110.5 211.5t292.5 79.5zM443 417q-93 0 -148.5 -40.5t-55.5 -109.5q0 -44 25 -78l319 194q-54 34 -140 34zM443 117q94 0 149.5 41t55.5 109q0 45 -24 78l-319 -194q53 -34 138 -34
z" />
    <glyph glyph-name="one.ss02" horiz-adv-x="748" 
d="M496 146h228v-146h-676v146h252v318q-59 -62 -196 -62h-49v161h28q89 0 153 35t92 97h168v-549z" />
    <glyph glyph-name="zero.tf.case" 
d="M402 -24q-169 0 -269 98.5t-100 280.5t100.5 280.5t268.5 98.5q169 0 268.5 -98t99.5 -280q0 -183 -100 -281.5t-268 -98.5zM402 109q84 0 126 65.5t42 181.5t-42.5 180.5t-125.5 64.5q-84 0 -126 -65t-42 -180q0 -116 42.5 -181.5t125.5 -65.5z" />
    <glyph glyph-name="one.tf.case" 
d="M523 146h228v-146h-676v146h253v332q-28 -30 -81 -47t-116 -17h-49v160h29q89 0 152.5 36t91.5 100h168v-564z" />
    <glyph glyph-name="two.tf.case" 
d="M53 0v125q248 117 371 203q57 39 79 74.5t22 80.5q0 51 -32.5 82.5t-93.5 31.5q-62 0 -99.5 -32.5t-40.5 -94.5q0 -16 1 -28l-199 19v35q3 74 52.5 129.5t125 82t164.5 26.5q152 0 239.5 -61t87.5 -174q0 -66 -27.5 -114.5t-92.5 -97.5q-86 -63 -288 -144h426v-143h-695z
" />
    <glyph glyph-name="three.tf.case" 
d="M402 -24q-159 0 -250.5 63.5t-96.5 175.5l198 16q11 -123 151 -123q141 0 141 101q0 97 -133 97h-55l2 108h45q58 0 92.5 26t34.5 73q0 41 -32.5 65t-94.5 24q-68 0 -106 -34t-39 -97l-198 19q0 105 88.5 174.5t253.5 69.5q157 0 243 -55t86 -155q0 -72 -50 -110.5
t-122 -46.5q89 -10 139.5 -53.5t50.5 -118.5q0 -101 -93.5 -160t-254.5 -59z" />
    <glyph glyph-name="four.tf.case" 
d="M453 0v154h-427v112l401 444h211v-427h136v-129h-136v-154h-185zM201 283h252v228q0 44 4 72h-4q-12 -31 -50 -80l-137 -159q-24 -34 -65 -61z" />
    <glyph glyph-name="five.tf.case" 
d="M395 -24q-139 0 -227 58.5t-102 155.5l190 19q8 -45 47.5 -71.5t96.5 -26.5q66 0 101 34t35 96q0 55 -34 88.5t-98 33.5q-46 0 -82.5 -20.5t-54.5 -56.5l-173 15l43 409h544v-136h-392l-19 -174q66 79 203 79q124 0 194.5 -65t70.5 -172q0 -119 -92.5 -192.5
t-250.5 -73.5z" />
    <glyph glyph-name="six.tf.case" 
d="M455 486q141 0 218.5 -64.5t77.5 -184.5q0 -118 -92.5 -189.5t-246.5 -71.5q-170 0 -264.5 97.5t-94.5 272.5q0 185 94.5 286.5t267.5 101.5q133 0 221.5 -50.5t112.5 -142.5l-200 -26q-29 85 -141 85q-74 0 -114.5 -50t-44.5 -147q73 83 206 83zM417 110q63 0 100.5 35
t37.5 92q0 60 -36 91.5t-99 31.5q-119 0 -161 -117q30 -133 158 -133z" />
    <glyph glyph-name="seven.tf.case" 
d="M232 0v18q0 160 79.5 299.5t230.5 245.5h-479v147h675v-138q-292 -211 -292 -532v-40h-214z" />
    <glyph glyph-name="eight.tf.case" 
d="M601 388q82 -28 122 -72.5t40 -118.5q0 -104 -94.5 -162.5t-263.5 -58.5q-173 0 -269 54.5t-96 151.5q0 65 44 109t127 61q-74 25 -111.5 67.5t-37.5 110.5q0 93 96 148.5t244 55.5q153 0 246 -53t93 -142q0 -57 -36.5 -96t-103.5 -55zM402 615q-67 0 -103 -23t-36 -64
q0 -72 122 -93l81 -14h1q74 34 74 99q0 95 -139 95zM405 102q73 0 114 26.5t41 73.5q0 43 -34.5 66.5t-109.5 37.5l-75 15q-97 -35 -97 -113q0 -51 42 -78.5t119 -27.5z" />
    <glyph glyph-name="nine.tf.case" 
d="M390 734q176 0 270.5 -94t94.5 -270q0 -187 -93.5 -290.5t-264.5 -103.5q-134 0 -224 53.5t-115 147.5l200 27q32 -91 146 -91q143 0 154 209q-77 -74 -211 -74q-139 0 -218 61.5t-79 175.5q0 115 93 182t247 67zM382 374q67 0 112 29t58 77q-32 124 -163 124
q-65 0 -104.5 -31t-39.5 -88q0 -52 38 -81.5t99 -29.5z" />
    <glyph glyph-name="zero.tf.case.zero" 
d="M402 734q169 0 268.5 -98t99.5 -280q0 -183 -100 -281.5t-268 -98.5q-169 0 -269 98.5t-100 280.5t100.5 280.5t268.5 98.5zM402 601q-84 0 -126 -65t-42 -180q0 -53 9 -95l290 266q-42 74 -131 74zM402 109q84 0 126 65.5t42 181.5q0 49 -8 92l-290 -266q42 -73 130 -73
z" />
    <glyph glyph-name="zero.tosf" 
d="M401 -24q-166 0 -267.5 77.5t-101.5 212.5q0 133 103 213t266 80t266.5 -80t103.5 -213q0 -134 -103 -212t-267 -78zM401 117q76 0 124.5 38.5t48.5 110.5q0 71 -49 111.5t-124 40.5q-74 0 -121.5 -40t-47.5 -112t47 -110.5t122 -38.5z" />
    <glyph glyph-name="one.tosf" 
d="M521 130h201v-130h-623v130h230v227q-68 -64 -195 -67h-26v142h17q76 0 139 28.5t87 74.5h170v-405z" />
    <glyph glyph-name="two.tosf" 
d="M47 120q285 83 366 120q50 23 71 47.5t21 56.5q0 37 -31 61t-88 24q-64 0 -98.5 -26.5t-34.5 -77.5q0 -14 1 -22l-188 20q-2 14 -2 26q0 94 90 152t235 58q142 0 224.5 -53.5t82.5 -147.5q0 -86 -90 -138q-78 -46 -237 -87h363v-133h-685v120z" />
    <glyph glyph-name="three.tosf" 
d="M401 -174q-158 0 -249.5 62.5t-96.5 172.5l198 16q9 -119 151 -119q67 0 104 24t37 72q0 90 -134 90h-55l2 109h46q58 0 92.5 22.5t34.5 65.5q0 39 -33 62.5t-94 23.5q-68 0 -106 -32.5t-39 -94.5l-198 19q0 103 88.5 171.5t252.5 68.5q157 0 243.5 -55t86.5 -153
q0 -65 -50 -101.5t-122 -44.5q89 -10 139.5 -51.5t50.5 -112.5q0 -98 -94 -156.5t-255 -58.5z" />
    <glyph glyph-name="four.tosf" 
d="M453 -150v147h-427v112l401 426h211v-409h136v-129h-136v-147h-185zM201 126h252v211q0 42 4 69h-4q-16 -38 -51 -76l-133 -144q-30 -34 -68 -60z" />
    <glyph glyph-name="five.tosf" 
d="M395 -174q-139 0 -227 57.5t-102 152.5l190 19q8 -43 47.5 -68.5t96.5 -25.5q65 0 100.5 33t35.5 91q0 53 -34 85t-98 32q-46 0 -82.5 -19.5t-54.5 -53.5l-173 15l43 391h544v-136h-392l-19 -158q66 78 203 78q124 0 194.5 -63.5t70.5 -168.5q0 -117 -92.5 -189
t-250.5 -72z" />
    <glyph glyph-name="six.tosf" 
d="M455 477q141 0 218.5 -62.5t77.5 -180.5q0 -114 -92.5 -184t-246.5 -70q-170 0 -264.5 94.5t-94.5 264.5q0 179 95 277.5t270 98.5q129 0 214.5 -48t104.5 -134l-188 -25q-28 73 -131 73q-77 0 -120.5 -47.5t-48.5 -136.5q74 80 206 80zM417 114q63 0 100.5 33t37.5 86
q0 57 -36 87.5t-99 30.5q-120 0 -161 -110q30 -127 158 -127z" />
    <glyph glyph-name="seven.tosf" 
d="M232 -150v18q0 152 79.5 285.5t230.5 234.5h-479v147h675v-138q-292 -203 -292 -507v-40h-214z" />
    <glyph glyph-name="eight.tosf" 
d="M605 381q80 -27 119 -72t39 -117q0 -99 -95 -155.5t-263 -56.5q-172 0 -268.5 52.5t-96.5 145.5q0 63 44 105.5t126 59.5q-74 25 -111 66.5t-37 107.5q0 89 96.5 143.5t243.5 54.5q153 0 246 -51.5t93 -136.5q0 -55 -35.5 -93t-100.5 -53zM403 596q-65 0 -102.5 -22.5
t-37.5 -58.5q0 -35 30.5 -56t91.5 -33l81 -14h2q73 33 73 96q0 40 -36 64t-102 24zM405 107q72 0 113.5 24.5t41.5 66.5t-34 64t-110 37l-74 14q-98 -34 -98 -109q0 -47 42 -72t119 -25z" />
    <glyph glyph-name="nine.tosf" 
d="M390 559q175 0 270 -91t95 -260q0 -182 -93.5 -282t-264.5 -100q-134 0 -224 52.5t-115 144.5l200 26q32 -86 146 -86q143 0 154 196q-76 -71 -211 -71q-139 0 -218 60t-79 172q0 110 93 174.5t247 64.5zM389 214q121 0 164 87q-25 128 -164 128q-64 0 -104 -29t-40 -79
t40 -78.5t104 -28.5z" />
    <glyph glyph-name="zero.tosf.zero" 
d="M401 559q163 0 266.5 -80t103.5 -213q0 -134 -103 -212t-267 -78q-166 0 -267.5 77.5t-101.5 212.5q0 133 103 213t266 80zM401 418q-74 0 -121.5 -40t-47.5 -112q0 -35 12 -64l284 173q-48 43 -127 43zM401 117q76 0 124.5 38.5t48.5 110.5q0 36 -14 66l-285 -173
q47 -42 126 -42z" />
    <glyph glyph-name="zero.subs" horiz-adv-x="684" 
d="M342 -157q-136 0 -221 71.5t-85 199.5t85 199.5t221 71.5t221 -71.5t85 -199.5t-85 -199.5t-221 -71.5zM342 -44q59 0 96.5 38.5t37.5 119.5q0 80 -37.5 118.5t-96.5 38.5t-96.5 -38.5t-37.5 -118.5q0 -81 37.5 -119.5t96.5 -38.5z" />
    <glyph glyph-name="one.subs" horiz-adv-x="437" 
d="M182 -140v323q-34 -40 -117 -40h-39v135h22q122 0 158 89h142v-507h-166z" />
    <glyph glyph-name="two.subs" horiz-adv-x="651" 
d="M38 -140v104q195 75 249 102q131 67 131 132q0 32 -26.5 52t-73.5 20q-49 0 -78.5 -21.5t-29.5 -63.5q0 -7 2 -17l-170 13q-1 9 -1 25q0 85 78 132t198 47q127 0 201.5 -42.5t74.5 -128.5q0 -44 -22.5 -80t-67 -64t-93 -48.5t-116.5 -41.5h309v-120h-565z" />
    <glyph glyph-name="three.subs" horiz-adv-x="643" 
d="M316 -157q-133 0 -209 48.5t-77 135.5l170 13q-1 -44 31 -66t86 -22q114 0 114 64q0 56 -104 56h-59v87h58q97 0 97 54q0 29 -28.5 45.5t-78.5 16.5q-115 0 -115 -87l-169 13q0 83 75 133.5t206 50.5q132 0 207.5 -40t75.5 -116q0 -96 -132 -109q142 -15 142 -120
q0 -73 -79.5 -115t-210.5 -42z" />
    <glyph glyph-name="four.subs" horiz-adv-x="680" 
d="M662 -38h-117v-102h-163v102h-362v101l345 304h180v-298h117v-107zM382 257l-202 -188h202v188z" />
    <glyph glyph-name="five.subs" horiz-adv-x="629" 
d="M308 -157q-115 0 -188.5 43t-83.5 115l162 17q5 -30 36 -48t77 -18q52 0 81.5 21t29.5 58q0 36 -28.5 55.5t-81.5 19.5q-40 0 -69.5 -14.5t-41.5 -38.5l-146 13l32 301h465v-106h-335l-12 -110q45 56 164 56q104 0 164.5 -46.5t60.5 -127.5q0 -87 -77.5 -138.5
t-208.5 -51.5z" />
    <glyph glyph-name="six.subs" horiz-adv-x="648" 
d="M374 207q115 0 178 -46t63 -131q0 -87 -77 -137t-210 -50q-143 0 -217.5 66t-74.5 193q0 136 79.5 209.5t226.5 73.5q104 0 174.5 -36t91.5 -101l-169 -18q-24 55 -105 55q-124 0 -136 -135q63 57 176 57zM328 -49q52 0 84 21.5t32 56.5q0 36 -28.5 56.5t-79.5 20.5
q-89 0 -131 -62q24 -93 123 -93z" />
    <glyph glyph-name="seven.subs" horiz-adv-x="568" 
d="M153 -140v14q0 230 234 372h-368v121h524v-115q-212 -140 -212 -359v-33h-178z" />
    <glyph glyph-name="eight.subs" horiz-adv-x="654" 
d="M488 144q69 -20 100 -54.5t31 -89.5q0 -74 -76.5 -115.5t-214.5 -41.5q-137 0 -215 39t-78 107q0 45 34.5 75.5t97.5 41.5q-116 36 -116 129q0 69 74 109.5t201 40.5q128 0 203 -38t75 -102q0 -79 -116 -101zM327 288q-48 0 -77 -15.5t-29 -40.5q0 -44 103 -58l60 -9
q4 0 5 -1q45 20 45 62q0 29 -28.5 45.5t-78.5 16.5zM328 -56q54 0 86 17t32 46q0 25 -25.5 40t-87.5 26l-63 10q-62 -21 -62 -70q0 -32 31.5 -50.5t88.5 -18.5z" />
    <glyph glyph-name="nine.subs" horiz-adv-x="648" 
d="M311 385q147 0 224 -66t77 -192q0 -138 -78.5 -211t-226.5 -73q-105 0 -176 39t-91 108l168 17q9 -27 37 -42.5t69 -15.5q121 0 135 129q-57 -43 -174 -43q-116 0 -179 44.5t-63 127.5q0 82 75 130t203 48zM313 137q89 0 132 48q-23 98 -128 98q-53 0 -83 -20t-30 -56
q0 -32 30 -51t79 -19z" />
    <glyph glyph-name="zero.dnom" horiz-adv-x="577" 
d="M288 -14q-113 0 -183.5 57.5t-70.5 152.5q0 97 70 154t185 57q114 0 184.5 -57t70.5 -153t-71 -153.5t-185 -57.5zM288 72q61 0 97 32t36 93q0 62 -35.5 93t-96.5 31t-97 -31.5t-36 -93.5q0 -61 36 -92.5t96 -31.5z" />
    <glyph glyph-name="one.dnom" horiz-adv-x="351" 
d="M155 0v251q-32 -25 -102 -25h-30v99h17q97 0 131 68h101v-393h-117z" />
    <glyph glyph-name="two.dnom" horiz-adv-x="536" 
d="M29 0v83q198 61 256 91q77 39 77 84q0 29 -27 46t-73 17t-75 -19t-29 -55q0 -11 3 -20l-123 12q-3 12 -3 22q0 66 64.5 106t162.5 40q104 0 165 -36.5t61 -104.5q0 -115 -233 -174h242v-92h-468z" />
    <glyph glyph-name="three.dnom" horiz-adv-x="533" 
d="M264 -14q-107 0 -168.5 37t-67.5 104l119 11q14 -67 117 -67q110 0 110 47q0 23 -22 32.5t-77 9.5h-60v76h62q87 0 87 40q0 47 -99 47q-107 0 -115 -69l-118 13q5 66 66 103t168 37q101 0 161 -31t60 -88q0 -38 -28.5 -60t-76.5 -26q116 -13 116 -91q0 -58 -64 -91.5
t-170 -33.5z" />
    <glyph glyph-name="four.dnom" horiz-adv-x="540" 
d="M524 82h-89v-82h-116v82h-302v74l282 237h136v-231h89v-80zM319 314l-177 -152h177v152z" />
    <glyph glyph-name="five.dnom" horiz-adv-x="522" 
d="M261 -14q-95 0 -155.5 31.5t-73.5 87.5l118 16q15 -51 114 -51q105 0 105 66q0 61 -101 61q-82 0 -109 -40l-108 8l29 228h378v-73h-286l-14 -92q38 48 149 48q88 0 136 -36.5t48 -103.5q0 -69 -62 -109.5t-168 -40.5z" />
    <glyph glyph-name="six.dnom" horiz-adv-x="537" 
d="M305 271q96 0 148 -34.5t52 -103.5q0 -65 -62.5 -106t-164.5 -41q-116 0 -180 54.5t-64 151.5q0 101 64.5 158t181.5 57q88 0 147.5 -25t74.5 -70l-122 -18q-26 39 -104 39q-114 0 -126 -106q55 44 155 44zM278 70q47 0 76 17.5t29 45.5q0 57 -101 57q-94 0 -125 -53
q24 -67 121 -67z" />
    <glyph glyph-name="seven.dnom" horiz-adv-x="468" 
d="M19 303v90h430v-83q-86 -51 -137.5 -131t-58.5 -178v-1h-132q15 191 203 303h-305z" />
    <glyph glyph-name="eight.dnom" horiz-adv-x="541" 
d="M410 216q53 -16 76 -41.5t23 -63.5q0 -59 -62.5 -92t-172.5 -33q-115 0 -178.5 30.5t-63.5 85.5q0 72 102 93q-47 16 -67.5 39t-20.5 57q0 53 61 84.5t165 31.5q102 0 162.5 -30t60.5 -80q0 -29 -22.5 -50t-62.5 -31zM272 334q-105 0 -105 -42q0 -18 21 -29.5t72 -18.5
l56 -8l7 -1q51 23 51 52q0 47 -102 47zM274 65q52 0 82 13t30 36q0 20 -20 30.5t-89 21.5l-55 9q-67 -19 -67 -59q0 -51 119 -51z" />
    <glyph glyph-name="nine.dnom" horiz-adv-x="538" 
d="M258 407q118 0 182 -54t64 -152q0 -101 -65.5 -158t-180.5 -57q-88 0 -148 30t-74 82l120 17q22 -46 106 -46q117 0 126 111q-51 -45 -156 -45q-96 0 -147.5 34t-51.5 99q0 63 61.5 101t163.5 38zM255 215q93 0 123 47q-27 65 -118 65q-50 0 -78 -15.5t-28 -43.5
q0 -53 101 -53z" />
    <glyph glyph-name="zero.numr" horiz-adv-x="577" 
d="M288 303q-113 0 -183.5 57.5t-70.5 152.5q0 97 70 154t185 57q114 0 184.5 -57t70.5 -153t-71 -153.5t-185 -57.5zM288 389q61 0 97 32t36 93q0 62 -35.5 93t-96.5 31t-97 -31.5t-36 -93.5q0 -61 36 -92.5t96 -31.5z" />
    <glyph glyph-name="one.numr" horiz-adv-x="351" 
d="M155 317v251q-32 -25 -102 -25h-30v99h17q97 0 131 68h101v-393h-117z" />
    <glyph glyph-name="two.numr" horiz-adv-x="536" 
d="M29 317v83q198 61 256 91q77 39 77 84q0 29 -27 46t-73 17t-75 -19t-29 -55q0 -11 3 -20l-123 12q-3 12 -3 22q0 66 64.5 106t162.5 40q104 0 165 -36.5t61 -104.5q0 -115 -233 -174h242v-92h-468z" />
    <glyph glyph-name="three.numr" horiz-adv-x="533" 
d="M264 303q-107 0 -168.5 37t-67.5 104l119 11q14 -67 117 -67q110 0 110 47q0 23 -22 32.5t-77 9.5h-60v76h62q87 0 87 40q0 47 -99 47q-107 0 -115 -69l-118 13q5 66 66 103t168 37q101 0 161 -31t60 -88q0 -38 -28.5 -60t-76.5 -26q116 -13 116 -91q0 -58 -64 -91.5
t-170 -33.5z" />
    <glyph glyph-name="four.numr" horiz-adv-x="540" 
d="M524 399h-89v-82h-116v82h-302v74l282 237h136v-231h89v-80zM319 631l-177 -152h177v152z" />
    <glyph glyph-name="five.numr" horiz-adv-x="522" 
d="M261 303q-95 0 -155.5 31.5t-73.5 87.5l118 16q15 -51 114 -51q105 0 105 66q0 61 -101 61q-82 0 -109 -40l-108 8l29 228h378v-73h-286l-14 -92q38 48 149 48q88 0 136 -36.5t48 -103.5q0 -69 -62 -109.5t-168 -40.5z" />
    <glyph glyph-name="six.numr" horiz-adv-x="537" 
d="M305 588q96 0 148 -34.5t52 -103.5q0 -65 -62.5 -106t-164.5 -41q-116 0 -180 54.5t-64 151.5q0 101 64.5 158t181.5 57q88 0 147.5 -25t74.5 -70l-122 -18q-26 39 -104 39q-114 0 -126 -106q55 44 155 44zM278 387q47 0 76 17.5t29 45.5q0 57 -101 57q-94 0 -125 -53
q24 -67 121 -67z" />
    <glyph glyph-name="seven.numr" horiz-adv-x="468" 
d="M19 620v90h430v-83q-86 -51 -137.5 -131t-58.5 -178v-1h-132q15 191 203 303h-305z" />
    <glyph glyph-name="eight.numr" horiz-adv-x="541" 
d="M410 533q53 -16 76 -41.5t23 -63.5q0 -59 -62.5 -92t-172.5 -33q-115 0 -178.5 30.5t-63.5 85.5q0 72 102 93q-47 16 -67.5 39t-20.5 57q0 53 61 84.5t165 31.5q102 0 162.5 -30t60.5 -80q0 -29 -22.5 -50t-62.5 -31zM272 651q-105 0 -105 -42q0 -18 21 -29.5t72 -18.5
l56 -8l7 -1q51 23 51 52q0 47 -102 47zM274 382q52 0 82 13t30 36q0 20 -20 30.5t-89 21.5l-55 9q-67 -19 -67 -59q0 -51 119 -51z" />
    <glyph glyph-name="nine.numr" horiz-adv-x="538" 
d="M258 724q118 0 182 -54t64 -152q0 -101 -65.5 -158t-180.5 -57q-88 0 -148 30t-74 82l120 17q22 -46 106 -46q117 0 126 111q-51 -45 -156 -45q-96 0 -147.5 34t-51.5 99q0 63 61.5 101t163.5 38zM255 532q93 0 123 47q-27 65 -118 65q-50 0 -78 -15.5t-28 -43.5
q0 -53 101 -53z" />
    <glyph glyph-name="zero.sups" horiz-adv-x="684" 
d="M342 293q-136 0 -221 71.5t-85 199.5t85 199.5t221 71.5t221 -71.5t85 -199.5t-85 -199.5t-221 -71.5zM342 406q59 0 96.5 38.5t37.5 119.5q0 80 -37.5 118.5t-96.5 38.5t-96.5 -38.5t-37.5 -118.5q0 -81 37.5 -119.5t96.5 -38.5z" />
    <glyph glyph-name="one.sups" horiz-adv-x="437" 
d="M182 310v323q-34 -40 -117 -40h-39v135h22q122 0 158 89h142v-507h-166z" />
    <glyph glyph-name="two.sups" horiz-adv-x="651" 
d="M38 310v104q195 75 249 102q131 67 131 132q0 32 -26.5 52t-73.5 20q-49 0 -78.5 -21.5t-29.5 -63.5q0 -7 2 -17l-170 13q-1 9 -1 25q0 85 78 132t198 47q127 0 201.5 -42.5t74.5 -128.5q0 -44 -22.5 -80t-67 -64t-93 -48.5t-116.5 -41.5h309v-120h-565z" />
    <glyph glyph-name="three.sups" horiz-adv-x="643" 
d="M316 293q-133 0 -209 48.5t-77 135.5l170 13q-1 -44 31 -66t86 -22q114 0 114 64q0 56 -104 56h-59v87h58q97 0 97 54q0 29 -28.5 45.5t-78.5 16.5q-115 0 -115 -87l-169 13q0 83 75 133.5t206 50.5q132 0 207.5 -40t75.5 -116q0 -96 -132 -109q142 -15 142 -120
q0 -73 -79.5 -115t-210.5 -42z" />
    <glyph glyph-name="four.sups" horiz-adv-x="680" 
d="M662 412h-117v-102h-163v102h-362v101l345 304h180v-298h117v-107zM382 707l-202 -188h202v188z" />
    <glyph glyph-name="five.sups" horiz-adv-x="629" 
d="M308 293q-115 0 -188.5 43t-83.5 115l162 17q5 -30 36 -48t77 -18q52 0 81.5 21t29.5 58q0 36 -28.5 55.5t-81.5 19.5q-40 0 -69.5 -14.5t-41.5 -38.5l-146 13l32 301h465v-106h-335l-12 -110q45 56 164 56q104 0 164.5 -46.5t60.5 -127.5q0 -87 -77.5 -138.5
t-208.5 -51.5z" />
    <glyph glyph-name="six.sups" horiz-adv-x="648" 
d="M374 657q115 0 178 -46t63 -131q0 -87 -77 -137t-210 -50q-143 0 -217.5 66t-74.5 193q0 136 79.5 209.5t226.5 73.5q104 0 174.5 -36t91.5 -101l-169 -18q-24 55 -105 55q-124 0 -136 -135q63 57 176 57zM328 401q52 0 84 21.5t32 56.5q0 36 -28.5 56.5t-79.5 20.5
q-89 0 -131 -62q24 -93 123 -93z" />
    <glyph glyph-name="seven.sups" horiz-adv-x="568" 
d="M153 310v14q0 230 234 372h-368v121h524v-115q-212 -140 -212 -359v-33h-178z" />
    <glyph glyph-name="eight.sups" horiz-adv-x="654" 
d="M488 594q69 -20 100 -54.5t31 -89.5q0 -74 -76.5 -115.5t-214.5 -41.5q-137 0 -215 39t-78 107q0 45 34.5 75.5t97.5 41.5q-116 36 -116 129q0 69 74 109.5t201 40.5q128 0 203 -38t75 -102q0 -79 -116 -101zM327 738q-48 0 -77 -15.5t-29 -40.5q0 -44 103 -58l60 -9
q4 0 5 -1q45 20 45 62q0 29 -28.5 45.5t-78.5 16.5zM328 394q54 0 86 17t32 46q0 25 -25.5 40t-87.5 26l-63 10q-62 -21 -62 -70q0 -32 31.5 -50.5t88.5 -18.5z" />
    <glyph glyph-name="nine.sups" horiz-adv-x="648" 
d="M311 835q147 0 224 -66t77 -192q0 -138 -78.5 -211t-226.5 -73q-105 0 -176 39t-91 108l168 17q9 -27 37 -42.5t69 -15.5q121 0 135 129q-57 -43 -174 -43q-116 0 -179 44.5t-63 127.5q0 82 75 130t203 48zM313 587q89 0 132 48q-23 98 -128 98q-53 0 -83 -20t-30 -56
q0 -32 30 -51t79 -19z" />
    <glyph glyph-name="colon.case" horiz-adv-x="341" 
d="M275 550v-164h-209v164h209zM275 164v-164h-209v164h209z" />
    <glyph glyph-name="semicolon.case" horiz-adv-x="341" 
d="M275 550v-164h-209v164h209zM112 -164l-20 74q87 16 87 85v5h-101v180h197v-167q0 -71 -38.5 -118.5t-124.5 -58.5z" />
    <glyph glyph-name="exclamdown.case" horiz-adv-x="409" 
d="M314 569h-219v156h219v-156zM122 488h165l27 -488h-219z" />
    <glyph glyph-name="questiondown.case" horiz-adv-x="802" 
d="M522 711v-156h-215v156h215zM507 510v-31q0 -51 -22 -85.5t-77 -55.5l-95 -38q-44 -17 -65 -39t-21 -58q0 -42 43.5 -70t124.5 -28q85 0 135.5 32t50.5 91q0 27 -5 46l198 -17q6 -18 6 -46q0 -107 -104 -170.5t-281 -63.5q-168 0 -267 57t-99 156q0 69 36.5 111t104.5 70
l91 38q36 15 49.5 33.5t13.5 45.5v22h183z" />
    <glyph glyph-name="periodcentered.case" horiz-adv-x="341" 
d="M275 448v-163h-209v163h209z" />
    <glyph glyph-name="bullet.case" horiz-adv-x="393" 
d="M196 241q-57 0 -93.5 35.5t-36.5 91.5q0 59 36.5 95t93.5 36t94 -36t37 -95q0 -56 -37 -91.5t-94 -35.5z" />
    <glyph glyph-name="slash.case" horiz-adv-x="732" 
d="M225 -87h-183l465 877h183z" />
    <glyph glyph-name="backslash.case" horiz-adv-x="732" 
d="M507 -87l-465 877h183l465 -877h-183z" />
    <glyph glyph-name="asterisk.ss04" horiz-adv-x="292" 
d="M147 710l-31 -93h-97l79 -57l-30 -93l79 57l79 -57l-31 93l79 57h-97z" />
    <glyph glyph-name="period.tf" horiz-adv-x="402" 
d="M305 164v-164h-209v164h209z" />
    <glyph glyph-name="comma.tf" horiz-adv-x="402" 
d="M136 -164l-20 74q88 16 88 85v5h-102v180h197v-167q0 -71 -38.5 -118.5t-124.5 -58.5z" />
    <glyph glyph-name="colon.tf" horiz-adv-x="402" 
d="M305 500v-164h-209v164h209zM305 164v-164h-209v164h209z" />
    <glyph glyph-name="semicolon.tf" horiz-adv-x="402" 
d="M305 500v-164h-209v164h209zM142 -164l-19 74q87 17 87 85v5h-102v180h197v-167q0 -71 -38.5 -118.5t-124.5 -58.5z" />
    <glyph glyph-name="slash.tf" 
d="M261 -117h-184l466 877h183z" />
    <glyph glyph-name="parenleft.case" horiz-adv-x="426" 
d="M278 -109q-102 95 -160.5 219.5t-58.5 248.5t59.5 249.5t162.5 213.5l140 -61q-181 -175 -181 -405q0 -223 183 -403z" />
    <glyph glyph-name="parenright.case" horiz-adv-x="426" 
d="M148 -109l-145 62q183 179 183 403q0 230 -181 405l140 61q103 -88 162.5 -213.5t59.5 -249.5t-58.5 -249t-160.5 -219z" />
    <glyph glyph-name="braceleft.case" horiz-adv-x="430" 
d="M311 -87q-104 0 -151 36.5t-47 120.5v147q0 47 -17.5 69t-80.5 23v107q64 1 80.5 20t16.5 67v135q0 78 50 118.5t146 40.5h111v-120h-55q-41 0 -60 -18t-19 -61v-93q0 -56 -22 -92t-80 -50q59 -16 80.5 -54t21.5 -94v-111q0 -41 19 -56t60 -15h55v-120h-108z" />
    <glyph glyph-name="braceright.case" horiz-adv-x="430" 
d="M119 -87h-108v120h55q41 0 60 15t19 56v111q0 56 21.5 94t80.5 54q-58 14 -80 50t-22 92v93q0 43 -19 61t-60 18h-55v120h111q96 0 146 -40.5t50 -118.5v-135q0 -48 16.5 -67t80.5 -20v-107q-63 -1 -80.5 -23t-17.5 -69v-147q0 -84 -47 -120.5t-151 -36.5z" />
    <glyph glyph-name="bracketleft.case" horiz-adv-x="436" 
d="M92 -86v884h333v-120h-161v-644h161v-120h-333z" />
    <glyph glyph-name="bracketright.case" horiz-adv-x="436" 
d="M344 -86h-333v120h161v644h-161v120h333v-884z" />
    <glyph glyph-name="parenleft.tf" 
d="M439 -143q-103 94 -161 218.5t-58 248.5t59.5 249.5t162.5 213.5l140 -61q-182 -173 -182 -405q0 -221 183 -403z" />
    <glyph glyph-name="parenright.tf" 
d="M365 -143l-145 61q183 182 183 403q0 231 -181 405l140 61q102 -88 161.5 -213.5t59.5 -249.5t-58 -248.5t-160 -218.5z" />
    <glyph glyph-name="hyphen.case" horiz-adv-x="614" 
d="M46 417h522v-136h-522v136z" />
    <glyph glyph-name="endash.case" horiz-adv-x="790" 
d="M46 428h698v-161h-698v161z" />
    <glyph glyph-name="emdash.case" horiz-adv-x="1069" 
d="M46 432h977v-168h-977v168z" />
    <glyph glyph-name="underscore.case" horiz-adv-x="675" 
d="M0 -25h675v-103h-675v103z" />
    <glyph glyph-name="hyphen.tf" 
d="M90 346h622v-136h-622v136z" />
    <glyph glyph-name="underscore.tf" 
d="M0 -79h803v-103h-803v103z" />
    <glyph glyph-name="guillemotleft.case" horiz-adv-x="789" 
d="M266 137l-242 210l247 205h182l-244 -204l241 -211h-184zM585 137l-241 210l246 205h182l-244 -204l241 -211h-184z" />
    <glyph glyph-name="guillemotright.case" horiz-adv-x="789" 
d="M204 137h-184l241 211l-244 204h182l246 -205zM523 137h-184l241 211l-244 204h182l247 -205z" />
    <glyph glyph-name="guilsinglleft.case" horiz-adv-x="470" 
d="M266 137l-242 210l247 205h182l-244 -204l241 -211h-184z" />
    <glyph glyph-name="guilsinglright.case" horiz-adv-x="470" 
d="M204 137h-184l241 211l-244 204h182l246 -205z" />
    <glyph glyph-name="parenleft.subs" horiz-adv-x="348" 
d="M227 -246q-71 72 -113 163.5t-42 180.5t43.5 181.5t114.5 156.5l120 -46q-128 -128 -128 -294q0 -161 130 -295z" />
    <glyph glyph-name="parenright.subs" horiz-adv-x="348" 
d="M121 -246l-125 47q130 134 130 295q0 166 -128 294l120 46q71 -64 114.5 -156t43.5 -182q0 -89 -42 -180.5t-113 -163.5z" />
    <glyph glyph-name="parenleft.sups" horiz-adv-x="348" 
d="M227 204q-71 72 -113 163.5t-42 180.5q0 90 43.5 182t114.5 156l120 -46q-128 -128 -128 -294q0 -161 130 -295z" />
    <glyph glyph-name="parenright.sups" horiz-adv-x="348" 
d="M121 204l-125 47q130 134 130 295q0 166 -128 294l120 46q71 -64 114.5 -156t43.5 -182q0 -89 -42 -180.5t-113 -163.5z" />
    <glyph glyph-name="uni0E3F.case" horiz-adv-x="948" 
d="M745 367q161 -24 161 -166q0 -98 -71 -149.5t-197 -51.5h-124v-93h-72v93h-350v710h350v93h72v-93h117q257 0 257 -182q0 -61 -38 -103.5t-105 -57.5zM281 590v-180h161v180h-161zM589 590h-75v-180h75q100 0 100 93q0 87 -100 87zM281 120h161v184h-161v-184zM600 120
q107 0 107 94q0 90 -109 90h-84v-184h86z" />
    <glyph glyph-name="currency.case" horiz-adv-x="696" 
d="M657 353q0 -85 -55 -146l64 -56l-71 -68l-77 66q-70 -32 -166 -32q-102 0 -180 38l-76 -67l-72 68l69 61q-47 58 -47 136q0 80 48 137l-70 61l72 68l78 -67q74 37 178 37q99 0 172 -34l77 65l72 -68l-67 -58q51 -59 51 -141zM352 231q75 0 118.5 33t43.5 89
q0 54 -43.5 86.5t-118.5 32.5t-119 -32.5t-44 -86.5q0 -56 44 -89t119 -33z" />
    <glyph glyph-name="dollar.case" horiz-adv-x="879" 
d="M847 217q0 -106 -98 -169t-271 -68v-85h-73v85q-144 5 -250.5 49t-154.5 120l143 89q76 -111 262 -125v184l-102 10q-126 14 -188 63.5t-62 139.5q0 101 92.5 160.5t259.5 64.5v78h73v-79q245 -11 361 -142l-127 -98q-61 96 -234 110v-175l109 -10q135 -13 197.5 -61
t62.5 -141zM368 440l37 -4v170q-164 -4 -164 -83q0 -38 29.5 -57t97.5 -26zM478 111q180 5 180 91q0 38 -28 56.5t-90 25.5l-62 6v-179z" />
    <glyph glyph-name="Euro.case" horiz-adv-x="1010" 
d="M569 122q163 0 228 119l181 -67q-54 -94 -161.5 -146t-254.5 -52q-183 0 -296.5 78.5t-146.5 206.5h-114v65h103q-2 24 -2 37q0 18 1 27h-102v65h113q34 124 152.5 201.5t301.5 77.5q146 0 254.5 -51t157.5 -139l-191 -61q-60 105 -224 105q-190 0 -243 -133h362v-65
h-378q-1 -9 -1 -27q0 -13 2 -37h377v-65h-361q56 -139 242 -139z" />
    <glyph glyph-name="uni20BA.case" horiz-adv-x="839" 
d="M643 285l190 -23q-35 -130 -115 -196t-240 -66h-340v274l-115 -23v69l115 23v73l-115 -23v69l115 23v225h200v-184l317 64v-69l-317 -64v-73l317 64v-69l-317 -64v-172h107q83 0 132 39t66 103z" />
    <glyph glyph-name="uni20BD.case" horiz-adv-x="907" 
d="M603 246h-274v-71h283v-71h-283v-104h-199v104h-124v71h124v71h-123v128h123v336h471q135 0 212.5 -60.5t77.5 -166.5q0 -109 -77.5 -173t-210.5 -64zM329 575v-201h227q59 0 91.5 26.5t32.5 74.5q0 47 -32.5 73.5t-90.5 26.5h-228z" />
    <glyph glyph-name="uni20B9.case" horiz-adv-x="911" 
d="M856 599h-237q27 -36 33 -88h204v-70h-205q-12 -83 -81.5 -135.5t-208.5 -55.5h-23l297 -250h-246l-310 271v78h206q137 0 156 92h-362v70h362q-20 88 -142 88h-220v111h777v-111z" />
    <glyph glyph-name="sterling.case" horiz-adv-x="853" 
d="M659 215l187 -22q-17 -100 -88 -157t-179 -57q-51 0 -140 16t-156 16q-110 0 -238 -19l-32 93q146 40 146 169q0 35 -6 65h-109v92h87q-9 41 -9 76q0 115 91 181t249 66q298 0 345 -196l-186 -34q-25 100 -156 100q-152 0 -152 -117q0 -38 10 -76h248v-92h-226
q3 -21 3 -45q0 -100 -96 -140q55 11 92 11q38 0 100 -10.5t98 -10.5q49 0 79 23.5t38 67.5z" />
    <glyph glyph-name="uni0E3F.tf.case" 
d="M606 367q79 -11 120.5 -53.5t41.5 -112.5q0 -99 -70.5 -150t-197.5 -51h-72v-90h-73v90h-296v710h296v89h73v-89h69q122 0 187.5 -45.5t65.5 -136.5q0 -62 -38 -104t-106 -57zM355 590h-114v-180h114v180zM462 590h-34v-180h31q100 0 100 95q0 85 -97 85zM241 119h114
v185h-114v-185zM465 119q112 0 112 96q0 43 -29 66t-80 23h-40v-185h37z" />
    <glyph glyph-name="currency.tf.case" 
d="M711 353q0 -85 -55 -146l64 -56l-72 -68l-76 66q-72 -32 -166 -32q-104 0 -180 38l-77 -67l-72 68l70 61q-47 58 -47 136q0 80 48 137l-71 61l72 68l79 -67q74 37 178 37q98 0 172 -34l76 65l72 -68l-66 -58q51 -59 51 -141zM406 231q75 0 118.5 33t43.5 89
q0 54 -43.5 86.5t-118.5 32.5t-119 -32.5t-44 -86.5q0 -56 44 -89t119 -33z" />
    <glyph glyph-name="dollar.tf.case" 
d="M784 210q0 -105 -84.5 -165t-240.5 -65v-85h-71v85q-132 6 -228 50.5t-141 122.5l147 86q66 -110 222 -125v185l-86 13q-118 19 -174 70.5t-56 140.5q0 97 81 151.5t235 58.5v80h71v-81q214 -10 315 -135l-130 -94q-47 84 -185 98v-171l96 -14q122 -17 175.5 -65.5
t53.5 -140.5zM364 444l24 -4v164q-134 -4 -134 -78q0 -37 23.5 -54.5t86.5 -27.5zM459 111q78 2 113 22.5t35 65.5q0 37 -21.5 55t-74.5 26l-52 8v-177z" />
    <glyph glyph-name="Euro.tf.case" 
d="M457 119q102 0 147 117l173 -66q-39 -92 -125 -143t-202 -51q-146 0 -238 76.5t-117 209.5h-70v64h62q-1 12 -1 36v6q0 15 1 22h-62v64h69q25 128 121.5 204t243.5 76q116 0 202 -49t122 -138l-182 -59q-41 104 -144 104q-129 0 -160 -138h213v-64h-221v-21v-8
q0 -24 1 -35h220v-64h-211q33 -143 158 -143z" />
    <glyph glyph-name="uni20BA.tf.case" 
d="M589 286l184 -23q-28 -129 -106 -196t-231 -67h-313v271l-91 -20v70l91 20v72l-91 -20v70l91 20v227h200v-183l278 62v-70l-278 -62v-72l278 62v-70l-278 -62v-172h87q76 0 121 39.5t58 103.5z" />
    <glyph glyph-name="uni20BD.tf.case" 
d="M495 248h-169v-75h186v-69h-186v-104h-199v104h-95v69h95v75h-95v121h95v341h365q136 0 212.5 -61t76.5 -165q0 -108 -77 -172t-209 -64zM326 581v-212h134q58 0 90 28.5t32 79.5q0 50 -31.5 77t-89.5 27h-135z" />
    <glyph glyph-name="uni20B9.tf.case" 
d="M762 599h-189q26 -36 33 -89h156v-71h-157q-5 -38 -21 -69.5t-45.5 -60t-81.5 -45t-121 -17.5h-15l304 -247h-247l-315 267v79h184q133 0 150 93h-334v71h334q-17 89 -137 89h-197v111h699v-111z" />
    <glyph glyph-name="sterling.tf.case" 
d="M600 215l186 -22q-15 -100 -82.5 -157t-168.5 -57q-44 0 -119 16t-133 16q-108 0 -235 -19l-33 93q145 40 145 170q0 25 -6 65h-107v91h84q-9 43 -9 77q0 115 83.5 180.5t229.5 65.5q274 0 317 -196l-186 -33q-19 102 -128 102q-125 0 -125 -119q0 -39 10 -77h190v-91
h-169q4 -19 4 -46q0 -100 -96 -140q44 8 90 8q30 0 79 -9.5t77 -9.5q42 0 69 24t33 68z" />
    <glyph glyph-name="uni20A9.tf.case" 
d="M789 390h-54l-10 -68h64v-61h-73l-40 -261h-205l-29 261h-79l-30 -261h-204l-40 261h-74v61h65l-10 68h-55v62h45l-39 258h149l24 -258h84l38 258h173l37 -258h85l24 258h149l-39 -258h44v-62zM394 534l-9 -82h35l-9 82q-6 56 -7 82h-4q0 -2 -6 -82zM199 390l7 -68h53
l10 68h-70zM370 322h65l-8 68h-49zM599 322l7 68h-71l10 -68h54zM238 175l13 86h-40l8 -86q1 -11 7 -82h2q5 35 10 82zM586 175l8 86h-40l12 -86q7 -49 10 -82h3q1 24 4 53z" />
    <glyph glyph-name="yen.tf.case" 
d="M810 710l-291 -404h215v-69h-233v-61h233v-70h-233v-106h-199v106h-233v70h233v61h-233v69h215l-291 404h218l156 -247q19 -29 34 -65h2q13 34 33 65l156 247h218z" />
    <glyph glyph-name="uni20A9.case" horiz-adv-x="1399" 
d="M1369 389h-119l-23 -66h142v-63h-164l-89 -260h-220l-89 260h-214l-89 -260h-221l-89 260h-164v63h142l-23 66h-119v63h98l-89 258h187l73 -258h208l90 258h205l91 -258h208l73 258h186l-89 -258h98v-63zM663 465l-4 -13h81l-4 13q-24 71 -34 136h-5q-8 -58 -34 -136z
M317 389l19 -66h125l24 66h-168zM614 323h171l-23 66h-125zM1064 323l19 66h-168l23 -66h126zM433 242l6 18h-85l4 -15q24 -83 31 -138h5q6 43 39 135zM1042 245l4 15h-85l6 -18q33 -92 39 -135h4q9 58 32 138z" />
    <glyph glyph-name="yen.case" horiz-adv-x="923" 
d="M932 710l-346 -400h264v-72h-289v-60h289v-72h-289v-106h-199v106h-282v72h282v60h-282v72h257l-346 400h225l180 -217q31 -38 67 -92h3q37 55 68 92l184 217h214z" />
    <glyph glyph-name="uni0E3F.tf" 
d="M606 360q79 -11 120.5 -53t41.5 -111q0 -97 -70.5 -146.5t-197.5 -49.5h-72v-107h-73v107h-296v695h296v89h73v-89h69q253 0 253 -178q0 -60 -38 -101.5t-106 -55.5zM355 576h-114v-174h114v174zM462 576h-34v-174h31q100 0 100 92q0 82 -97 82zM241 119h114v178h-114
v-178zM465 119q112 0 112 92q0 41 -29 63.5t-80 22.5h-40v-178h37z" />
    <glyph glyph-name="currency.tf" 
d="M711 303q0 -85 -55 -146l64 -56l-72 -68l-76 66q-72 -32 -166 -32q-104 0 -180 38l-77 -67l-72 68l70 61q-47 58 -47 136q0 80 48 137l-71 61l72 68l79 -67q74 37 178 37q98 0 172 -34l76 65l72 -68l-66 -58q51 -59 51 -141zM406 181q75 0 118.5 33t43.5 89
q0 54 -43.5 86.5t-118.5 32.5t-119 -32.5t-44 -86.5q0 -56 44 -89t119 -33z" />
    <glyph glyph-name="uni20BA.tf" 
d="M589 281l184 -23q-28 -128 -105.5 -193t-231.5 -65h-313v265l-91 -20v69l91 20v70l-91 -20v68l91 20v223h199v-180l279 60v-68l-279 -60v-70l279 60v-68l-279 -61v-165h88q75 0 120.5 38.5t58.5 99.5z" />
    <glyph glyph-name="uni20BD.tf" 
d="M495 239h-169v-71h186v-68h-186v-100h-199v100h-95v68h95v71h-95v122h95v334h365q136 0 212.5 -60t76.5 -164q0 -105 -77 -168.5t-209 -63.5zM326 566v-205h134q59 0 90.5 27.5t31.5 76.5q0 48 -31.5 74.5t-89.5 26.5h-135z" />
    <glyph glyph-name="uni20B9.tf" 
d="M762 584h-188q28 -40 32 -87h156v-69h-157q-11 -80 -73.5 -133t-195.5 -55h-15l304 -240h-247l-315 259v79h184q133 0 150 90h-334v69h334q-19 87 -137 87h-197v111h699v-111z" />
    <glyph glyph-name="uni20A9.tf" 
d="M789 381h-54l-10 -66h64v-60h-73l-40 -255h-205l-29 255h-79l-30 -255h-204l-40 255h-74v60h65l-10 66h-55v60h45l-39 254h149l24 -254h84l38 254h173l38 -254h84l24 254h149l-39 -254h44v-60zM394 519l-9 -78h35l-9 78q-6 53 -7 81h-4q0 -5 -6 -81zM200 381l6 -66h53
l10 66h-69zM370 315h65l-8 66h-49zM599 315l6 66h-70l10 -66h54zM238 174l12 81h-39l8 -81q1 -11 7 -82h2q4 30 10 82zM586 174l8 81h-40l12 -81q7 -52 10 -82h3q1 24 4 53z" />
    <glyph glyph-name="plus.case" horiz-adv-x="709" 
d="M663 437v-117h-245v-195h-128v195h-244v117h244v185h128v-185h245z" />
    <glyph glyph-name="minus.case" horiz-adv-x="709" 
d="M46 319v119h617v-119h-617z" />
    <glyph glyph-name="multiply.case" 
d="M698 554l-209 -179l208 -178l-84 -78l-212 182l-212 -181l-84 77l208 178l-208 179l85 77l211 -181l211 181z" />
    <glyph glyph-name="divide.case" horiz-adv-x="709" 
d="M353 495q-33 0 -55 21.5t-22 55.5t22 56t55 22q34 0 56.5 -21.5t22.5 -56.5q0 -34 -22.5 -55.5t-56.5 -21.5zM46 319v118h617v-118h-617zM353 103q-33 0 -55 21.5t-22 55.5t22 56t55 22q34 0 56.5 -21.5t22.5 -56.5q0 -34 -22.5 -55.5t-56.5 -21.5z" />
    <glyph glyph-name="equal.case" horiz-adv-x="691" 
d="M46 421v108h598v-108h-598zM46 229v108h598v-108h-598z" />
    <glyph glyph-name="notequal.case" 
d="M699 421h-232l-43 -84h275v-108h-331l-60 -116h-91l60 116h-176v108h232l43 84h-275v108h331l58 112h91l-58 -112h176v-108z" />
    <glyph glyph-name="greater.case" 
d="M139 116v127l422 134l-422 134v125l565 -205v-110z" />
    <glyph glyph-name="less.case" 
d="M664 116l-565 205v110l565 205v-125l-421 -134l421 -134v-127z" />
    <glyph glyph-name="greaterequal.case" 
d="M126 190v127l421 134l-421 134v125l565 -205v-110zM686 154v-104h-563v104h563z" />
    <glyph glyph-name="lessequal.case" 
d="M677 190l-564 205v110l564 205v-125l-421 -134l421 -134v-127zM117 154h564v-104h-564v104z" />
    <glyph glyph-name="plusminus.case" 
d="M464 459h246v-117h-246v-152h-127v152h-244v117h244v153h127v-153zM93 50v107h617v-107h-617z" />
    <glyph glyph-name="approxequal.case" 
d="M551 394q-53 0 -152.5 32.5t-140.5 32.5q-93 0 -155 -50v110q26 22 68.5 36t83.5 14q63 0 158 -32.5t135 -32.5q93 0 153 50v-111q-24 -21 -66.5 -35t-83.5 -14zM551 199q-53 0 -152.5 32.5t-140.5 32.5q-93 0 -155 -50v111q26 21 68.5 35t83.5 14q63 0 158 -32.5
t135 -32.5q93 0 153 50v-110q-24 -22 -66.5 -36t-83.5 -14z" />
    <glyph glyph-name="asciitilde.case" 
d="M515 268q-57 0 -119.5 33.5t-94.5 33.5q-71 0 -82 -67l-115 28q12 72 61.5 109t122.5 37q60 0 124 -33.5t94 -33.5q65 0 78 71l114 -21q-11 -80 -62 -118.5t-121 -38.5z" />
    <glyph glyph-name="logicalnot.case" 
d="M116 437h569v-265h-118v154h-451v111z" />
    <glyph glyph-name="infinity.case" horiz-adv-x="818" 
d="M598 549q82 0 133 -46t51 -124q0 -77 -52.5 -124.5t-133.5 -47.5q-109 0 -189 85q-82 -85 -187 -85q-82 0 -133 46t-51 124q0 76 52.5 124t132.5 48q110 0 190 -85q82 85 187 85zM236 314q55 0 106 65q-48 64 -108 64q-34 0 -55.5 -17.5t-21.5 -47.5t22.5 -47t56.5 -17z
M584 313q34 0 55.5 17.5t21.5 47.5t-22.5 47t-56.5 17q-55 0 -106 -65q48 -64 108 -64z" />
    <glyph glyph-name="emptyset.case" horiz-adv-x="672" 
d="M579 509q63 -61 63 -153q0 -108 -83.5 -173t-222.5 -65q-110 0 -190 43l-75 -60l-47 45l69 55q-62 62 -62 153q0 108 83 173t222 65q113 0 190 -43l75 60l47 -45zM173 356q0 -43 23 -72l228 183q-38 16 -88 16q-75 0 -119 -34.5t-44 -92.5zM336 227q75 0 119 34.5
t44 92.5q0 43 -23 72l-227 -183q38 -16 87 -16z" />
    <glyph glyph-name="plus.tf.case" 
d="M709 437v-117h-245v-195h-127v195h-244v117h244v185h127v-185h245z" />
    <glyph glyph-name="minus.tf.case" 
d="M93 319v119h616v-119h-616z" />
    <glyph glyph-name="divide.tf.case" 
d="M376 495q-34 0 -56 21.5t-22 55.5t22 56t56 22t56 -21.5t22 -56.5q0 -34 -22 -55.5t-56 -21.5zM69 319v118h616v-118h-616zM376 103q-34 0 -56 21.5t-22 55.5t22 56t56 22t56 -21.5t22 -56.5q0 -34 -22 -55.5t-56 -21.5z" />
    <glyph glyph-name="equal.tf.case" 
d="M101 421v108h598v-108h-598zM101 229v108h598v-108h-598z" />
    <glyph glyph-name="emptyset.tf.case" 
d="M645 509q63 -61 63 -153q0 -108 -83.5 -173t-222.5 -65q-113 0 -190 43l-75 -60l-47 45l69 55q-63 61 -63 153q0 108 83.5 173t222.5 65q113 0 190 -43l75 60l47 -45zM239 356q0 -43 23 -72l228 183q-38 16 -88 16q-75 0 -119 -34.5t-44 -92.5zM402 227q75 0 119 34.5
t44 92.5q0 43 -23 72l-227 -183q38 -16 87 -16z" />
    <glyph glyph-name="plus.tf" 
d="M709 387v-117h-245v-195h-127v195h-244v117h244v185h127v-185h245z" />
    <glyph glyph-name="minus.tf" 
d="M93 269v119h616v-119h-616z" />
    <glyph glyph-name="divide.tf" 
d="M376 445q-34 0 -56 21.5t-22 55.5t22 56t56 22t56 -21.5t22 -56.5q0 -34 -22 -55.5t-56 -21.5zM69 269v118h616v-118h-616zM376 53q-34 0 -56 21.5t-22 55.5t22 56t56 22t56 -21.5t22 -56.5q0 -34 -22 -55.5t-56 -21.5z" />
    <glyph glyph-name="equal.tf" 
d="M101 371v108h598v-108h-598zM101 179v108h598v-108h-598z" />
    <glyph glyph-name="emptyset.tf" 
d="M645 459q63 -61 63 -153q0 -108 -83.5 -173t-222.5 -65q-113 0 -190 43l-75 -60l-47 45l69 55q-63 61 -63 153q0 108 83.5 173t222.5 65q113 0 190 -43l75 60l47 -45zM239 306q0 -43 23 -72l228 183q-38 16 -88 16q-75 0 -119 -34.5t-44 -92.5zM402 177q75 0 119 34.5
t44 92.5q0 43 -23 72l-227 -183q38 -16 87 -16z" />
    <glyph glyph-name="uni21BB.alt" horiz-adv-x="1199" 
d="M1076 393h102l-154 -205l-154 205h106q-15 115 -116 187.5t-261 72.5q-192 0 -306 -106l-66 69q140 128 375 128q206 0 332.5 -99.5t141.5 -251.5zM599 51q191 0 306 107l66 -70q-139 -127 -375 -127q-206 0 -332 99t-141 250h-102l154 205l154 -205h-107
q15 -114 116 -186.5t261 -72.5z" />
    <glyph glyph-name="arrowup.ss03" horiz-adv-x="838" 
d="M349 505l-169 -188l-88 105l328 328l326 -328l-85 -105l-174 188v-540h-138v540z" />
    <glyph glyph-name="uni2197.ss03" horiz-adv-x="927" 
d="M707 485l-515 -526l-100 104l523 523l-248 -4v128h469v-470h-132z" />
    <glyph glyph-name="arrowright.ss03" horiz-adv-x="1248" 
d="M914 264h-822v130h822l-190 177l104 86l328 -327l-328 -328l-105 89z" />
    <glyph glyph-name="uni2198.ss03" horiz-adv-x="927" 
d="M707 213l-3 245h132v-470h-469v128l248 -4l-523 523l100 104z" />
    <glyph glyph-name="arrowdown.ss03" horiz-adv-x="838" 
d="M349 205v540h138v-540l174 188l85 -105l-326 -328l-328 328l88 105z" />
    <glyph glyph-name="uni2199.ss03" horiz-adv-x="927" 
d="M220 213l515 526l101 -104l-523 -523l248 4v-128h-469v470h132z" />
    <glyph glyph-name="arrowleft.ss03" horiz-adv-x="1248" 
d="M334 264l191 -173l-105 -89l-328 328l328 327l104 -86l-190 -177h822v-130h-822z" />
    <glyph glyph-name="uni2196.ss03" horiz-adv-x="927" 
d="M220 485l4 -245h-132v470h469v-128l-248 4l523 -523l-101 -104z" />
    <glyph glyph-name="at.case" horiz-adv-x="1007" 
d="M486 -31q-218 0 -341.5 101.5t-123.5 279.5q0 172 135.5 278.5t353.5 106.5q217 0 346.5 -99.5t129.5 -265.5q0 -107 -57 -169.5t-155 -62.5q-125 0 -152 92q-67 -99 -219 -99q-89 0 -137.5 33t-48.5 93q0 62 47 94.5t151 42.5l201 18v6q0 40 -29 61t-83 21
q-49 0 -78.5 -17.5t-32.5 -48.5h-163q7 71 84 116t192 45q129 0 196.5 -49t67.5 -143v-115q0 -67 59 -67q38 0 59.5 39t21.5 108q0 142 -106 221t-295 79q-188 0 -298 -85.5t-110 -232.5q0 -145 106 -228.5t291 -83.5q127 0 224 41l28 -62q-105 -48 -264 -48zM468 225
q64 0 106 29.5t42 75.5v21l-161 -16q-77 -9 -77 -56q0 -25 24.5 -39.5t65.5 -14.5z" />
    <glyph glyph-name="section.case" horiz-adv-x="715" 
d="M616 262q57 -37 57 -112q0 -83 -88.5 -128.5t-252.5 -45.5q-229 0 -332 103l99 88q82 -76 255 -76q136 0 136 47q0 23 -18 33.5t-65 14.5l-202 17q-193 17 -193 142q0 71 73 110q-62 38 -62 109q0 80 87.5 125t240.5 45q208 0 315 -78l-91 -91q-93 57 -241 57
q-130 0 -130 -45q0 -38 79 -47l205 -16q102 -9 148 -41.5t46 -96.5q0 -74 -66 -114zM266 317l209 -18q3 0 7 -0.5t7 -0.5q27 15 27 47q0 26 -19.5 38.5t-68.5 16.5l-203 17q-6 0 -16 2q-32 -15 -32 -47q0 -25 20.5 -38t68.5 -17z" />
    <glyph glyph-name="bar.case" horiz-adv-x="287" 
d="M87 -87v877h113v-877h-113z" />
    <glyph glyph-name="brokenbar.case" horiz-adv-x="286" 
d="M199 800v-375h-112v375h112zM199 304v-381h-112v381h112z" />
    <glyph glyph-name="dagger.case" horiz-adv-x="654" 
d="M390 436v-468h-127v468h-225v104h225v220h127v-220h226v-104h-226z" />
    <glyph glyph-name="daggerdbl.case" horiz-adv-x="654" 
d="M616 436h-226v-144h226v-104h-226v-220h-127v220h-225v104h225v144h-225v104h225v220h127v-220h226v-104z" />
    <glyph glyph-name="bar.tf" horiz-adv-x="402" 
d="M144 -117v877h113v-877h-113z" />
    <glyph glyph-name="plus.subs" horiz-adv-x="555" 
d="M513 146v-93h-186v-143h-100v143h-185v93h185v136h100v-136h186z" />
    <glyph glyph-name="minus.subs" horiz-adv-x="555" 
d="M42 54v92h471v-92h-471z" />
    <glyph glyph-name="multiply.subs" horiz-adv-x="615" 
d="M530 227l-154 -130l153 -129l-66 -60l-156 131l-156 -131l-66 59l154 130l-154 130l66 59l156 -131l155 131z" />
    <glyph glyph-name="divide.subs" horiz-adv-x="555" 
d="M277 186q-27 0 -45 17t-18 45q0 27 18 44.5t45 17.5t45 -17.5t18 -44.5t-18 -44.5t-45 -17.5zM42 54v93h471v-93h-471zM277 -113q-27 0 -45 17.5t-18 44.5q0 28 18 45t45 17t45 -17t18 -45q0 -27 -18 -44.5t-45 -17.5z" />
    <glyph glyph-name="plus.sups" horiz-adv-x="555" 
d="M513 596v-93h-186v-143h-100v143h-185v93h185v136h100v-136h186z" />
    <glyph glyph-name="minus.sups" horiz-adv-x="555" 
d="M42 504v92h471v-92h-471z" />
    <glyph glyph-name="multiply.sups" horiz-adv-x="615" 
d="M530 677l-155 -130l154 -129l-66 -60l-156 132l-156 -131l-66 58l154 130l-154 130l66 59l156 -131l155 131z" />
    <glyph glyph-name="divide.sups" horiz-adv-x="555" 
d="M277 636q-27 0 -45 17t-18 45q0 27 18 44.5t45 17.5t45 -17.5t18 -44.5t-18 -44.5t-45 -17.5zM42 504v93h471v-93h-471zM277 337q-27 0 -45 17.5t-18 44.5q0 28 18 45t45 17t45 -17t18 -45q0 -27 -18 -44.5t-45 -17.5z" />
    <glyph glyph-name="caronaccentcomb" horiz-adv-x="287" 
d="M105 520l-25 52q59 8 62 38h-92v100h181v-69q0 -106 -126 -121z" />
    </font>
</defs>
</svg>
